<mxfile host="Electron" modified="2024-09-16T11:58:53.272Z" agent="Mozilla/5.0 (Macintosh; Intel Mac OS X 10_15_7) AppleWebKit/537.36 (KHTML, like Gecko) draw.io/24.0.4 Chrome/120.0.6099.109 Electron/28.1.0 Safari/537.36" etag="8t-t0mtp0gMd5JehgrD0" version="24.0.4" type="device">
  <diagram name="Page-1" id="_nR7e4XgD6fj8UJKNjDj">
    <mxGraphModel dx="3063" dy="-2449" grid="1" gridSize="10" guides="1" tooltips="1" connect="1" arrows="1" fold="1" page="1" pageScale="1" pageWidth="850" pageHeight="1100" math="0" shadow="0">
      <root>
        <mxCell id="0" />
        <mxCell id="1" parent="0" />
        <mxCell id="XHxUQaSKLuy_v2T0ugLt-1" value="" style="rounded=0;whiteSpace=wrap;html=1;" vertex="1" parent="1">
          <mxGeometry x="-797.82" y="5545" width="852.16" height="220" as="geometry" />
        </mxCell>
        <mxCell id="nqIc30WBPKle0FcAkf76-1" value="..." style="rounded=0;whiteSpace=wrap;html=1;" parent="1" vertex="1">
          <mxGeometry x="-755" y="3518.19" width="280" height="80" as="geometry" />
        </mxCell>
        <mxCell id="nqIc30WBPKle0FcAkf76-2" value="" style="rounded=1;whiteSpace=wrap;html=1;dashed=1;dashPattern=8 8;fillColor=#ffe6cc;strokeColor=#d79b00;" parent="1" vertex="1">
          <mxGeometry x="-360" y="3337.5" width="505.26" height="480" as="geometry" />
        </mxCell>
        <mxCell id="nqIc30WBPKle0FcAkf76-3" value="" style="rounded=1;whiteSpace=wrap;html=1;dashed=1;fillColor=#ffe6cc;strokeColor=#d79b00;" parent="1" vertex="1">
          <mxGeometry x="332.49" y="3523.19" width="445.03" height="834" as="geometry" />
        </mxCell>
        <mxCell id="nqIc30WBPKle0FcAkf76-4" value="warp_id=0" style="rounded=0;whiteSpace=wrap;html=1;fillColor=#ffff88;strokeColor=#36393d;" parent="1" vertex="1">
          <mxGeometry x="-250.51999999999998" y="3427.5" width="360.52" height="40" as="geometry" />
        </mxCell>
        <mxCell id="nqIc30WBPKle0FcAkf76-5" value="" style="shape=curlyBracket;whiteSpace=wrap;html=1;rounded=1;flipH=1;labelPosition=right;verticalLabelPosition=middle;align=left;verticalAlign=middle;rotation=-180;" parent="1" vertex="1">
          <mxGeometry x="-331.56" y="3427.5" width="81.04" height="320" as="geometry" />
        </mxCell>
        <mxCell id="nqIc30WBPKle0FcAkf76-6" value="256" style="text;html=1;align=center;verticalAlign=middle;resizable=0;points=[];autosize=1;strokeColor=none;fillColor=none;" parent="1" vertex="1">
          <mxGeometry x="-360" y="3572.5" width="40" height="30" as="geometry" />
        </mxCell>
        <mxCell id="nqIc30WBPKle0FcAkf76-7" value="" style="shape=curlyBracket;whiteSpace=wrap;html=1;rounded=1;flipH=1;labelPosition=right;verticalLabelPosition=middle;align=left;verticalAlign=middle;rotation=-180;" parent="1" vertex="1">
          <mxGeometry x="-270.52" y="3547.5" width="20" height="40" as="geometry" />
        </mxCell>
        <mxCell id="nqIc30WBPKle0FcAkf76-8" value="32" style="text;html=1;align=center;verticalAlign=middle;resizable=0;points=[];autosize=1;strokeColor=none;fillColor=none;" parent="1" vertex="1">
          <mxGeometry x="-298.96000000000004" y="3552.5" width="40" height="30" as="geometry" />
        </mxCell>
        <mxCell id="nqIc30WBPKle0FcAkf76-9" value="warp_id=1" style="rounded=0;whiteSpace=wrap;html=1;fillColor=#ffff88;strokeColor=#36393d;" parent="1" vertex="1">
          <mxGeometry x="-250.51999999999998" y="3467.5" width="360.52" height="40" as="geometry" />
        </mxCell>
        <mxCell id="nqIc30WBPKle0FcAkf76-10" value="warp_id=2" style="rounded=0;whiteSpace=wrap;html=1;fillColor=#ffff88;strokeColor=#36393d;" parent="1" vertex="1">
          <mxGeometry x="-250.51999999999998" y="3507.5" width="360.52" height="40" as="geometry" />
        </mxCell>
        <mxCell id="nqIc30WBPKle0FcAkf76-11" value="warp_id=3" style="rounded=0;whiteSpace=wrap;html=1;fillColor=#dae8fc;strokeColor=#6c8ebf;" parent="1" vertex="1">
          <mxGeometry x="-250.51999999999998" y="3547.5" width="360.52" height="40" as="geometry" />
        </mxCell>
        <mxCell id="nqIc30WBPKle0FcAkf76-12" value="warp_id=4" style="rounded=0;whiteSpace=wrap;html=1;fillColor=#ffff88;strokeColor=#36393d;" parent="1" vertex="1">
          <mxGeometry x="-250.51999999999998" y="3587.5" width="360.52" height="40" as="geometry" />
        </mxCell>
        <mxCell id="nqIc30WBPKle0FcAkf76-13" value="warp_id=5" style="rounded=0;whiteSpace=wrap;html=1;fillColor=#ffff88;strokeColor=#36393d;" parent="1" vertex="1">
          <mxGeometry x="-250.51999999999998" y="3627.5" width="360.52" height="40" as="geometry" />
        </mxCell>
        <mxCell id="nqIc30WBPKle0FcAkf76-14" value="warp_id=6" style="rounded=0;whiteSpace=wrap;html=1;fillColor=#ffff88;strokeColor=#36393d;" parent="1" vertex="1">
          <mxGeometry x="-250.51999999999998" y="3667.5" width="360.52" height="40" as="geometry" />
        </mxCell>
        <mxCell id="nqIc30WBPKle0FcAkf76-15" value="warp_id=7" style="rounded=0;whiteSpace=wrap;html=1;fillColor=#ffff88;strokeColor=#36393d;" parent="1" vertex="1">
          <mxGeometry x="-250.51999999999998" y="3707.5" width="360.52" height="40" as="geometry" />
        </mxCell>
        <mxCell id="nqIc30WBPKle0FcAkf76-16" value="" style="curved=1;endArrow=classic;html=1;rounded=0;exitX=1;exitY=0.5;exitDx=0;exitDy=0;entryX=0;entryY=0.25;entryDx=0;entryDy=0;" parent="1" source="nqIc30WBPKle0FcAkf76-11" target="nqIc30WBPKle0FcAkf76-28" edge="1">
          <mxGeometry width="50" height="50" relative="1" as="geometry">
            <mxPoint x="310" y="3360" as="sourcePoint" />
            <mxPoint x="390" y="3310" as="targetPoint" />
            <Array as="points">
              <mxPoint x="220" y="3434.3" />
              <mxPoint x="320" y="3374.3" />
            </Array>
          </mxGeometry>
        </mxCell>
        <mxCell id="nqIc30WBPKle0FcAkf76-17" value="" style="shape=curlyBracket;whiteSpace=wrap;html=1;rounded=1;flipH=1;labelPosition=right;verticalLabelPosition=middle;align=left;verticalAlign=middle;rotation=90;" parent="1" vertex="1">
          <mxGeometry x="-80" y="3577.5" width="20" height="360" as="geometry" />
        </mxCell>
        <mxCell id="nqIc30WBPKle0FcAkf76-18" value="K" style="text;html=1;align=center;verticalAlign=middle;resizable=0;points=[];autosize=1;strokeColor=none;fillColor=none;" parent="1" vertex="1">
          <mxGeometry x="-85" y="3767.5" width="30" height="30" as="geometry" />
        </mxCell>
        <mxCell id="nqIc30WBPKle0FcAkf76-19" value="" style="whiteSpace=wrap;html=1;aspect=fixed;fillColor=#d5e8d4;strokeColor=#82b366;" parent="1" vertex="1">
          <mxGeometry x="-250.51999999999998" y="3427.5" width="10" height="10" as="geometry" />
        </mxCell>
        <mxCell id="nqIc30WBPKle0FcAkf76-20" value="" style="endArrow=classic;html=1;rounded=0;exitX=0;exitY=0;exitDx=0;exitDy=0;entryX=0.5;entryY=1;entryDx=0;entryDy=0;" parent="1" source="nqIc30WBPKle0FcAkf76-19" target="nqIc30WBPKle0FcAkf76-134" edge="1">
          <mxGeometry width="50" height="50" relative="1" as="geometry">
            <mxPoint x="-240" y="3427.5" as="sourcePoint" />
            <mxPoint x="-230" y="3397.5" as="targetPoint" />
          </mxGeometry>
        </mxCell>
        <mxCell id="nqIc30WBPKle0FcAkf76-21" value="" style="whiteSpace=wrap;html=1;aspect=fixed;fillColor=#d5e8d4;strokeColor=#82b366;" parent="1" vertex="1">
          <mxGeometry x="-250.51999999999998" y="3547.5" width="10" height="10" as="geometry" />
        </mxCell>
        <mxCell id="nqIc30WBPKle0FcAkf76-22" value="" style="endArrow=classic;html=1;rounded=0;entryX=0.5;entryY=1;entryDx=0;entryDy=0;" parent="1" target="nqIc30WBPKle0FcAkf76-135" edge="1">
          <mxGeometry width="50" height="50" relative="1" as="geometry">
            <mxPoint x="-250.51999999999998" y="3547.5" as="sourcePoint" />
            <mxPoint x="-340" y="3507.5" as="targetPoint" />
          </mxGeometry>
        </mxCell>
        <mxCell id="nqIc30WBPKle0FcAkf76-23" value="32" style="text;html=1;align=center;verticalAlign=middle;resizable=0;points=[];autosize=1;strokeColor=none;fillColor=none;" parent="1" vertex="1">
          <mxGeometry x="649.98" y="3365" width="40" height="30" as="geometry" />
        </mxCell>
        <mxCell id="nqIc30WBPKle0FcAkf76-24" value="" style="shape=curlyBracket;whiteSpace=wrap;html=1;rounded=1;flipH=1;labelPosition=right;verticalLabelPosition=middle;align=left;verticalAlign=middle;" parent="1" vertex="1">
          <mxGeometry x="640" y="3340" width="20" height="80" as="geometry" />
        </mxCell>
        <mxCell id="nqIc30WBPKle0FcAkf76-25" value="" style="shape=curlyBracket;whiteSpace=wrap;html=1;rounded=1;flipH=1;labelPosition=right;verticalLabelPosition=middle;align=left;verticalAlign=middle;rotation=-180;direction=south;" parent="1" vertex="1">
          <mxGeometry x="399.92" y="3420" width="241.4" height="21.55" as="geometry" />
        </mxCell>
        <mxCell id="nqIc30WBPKle0FcAkf76-26" value="K" style="text;html=1;align=center;verticalAlign=middle;resizable=0;points=[];autosize=1;strokeColor=none;fillColor=none;" parent="1" vertex="1">
          <mxGeometry x="506.74" y="3428.5" width="30" height="30" as="geometry" />
        </mxCell>
        <mxCell id="nqIc30WBPKle0FcAkf76-27" value="" style="rounded=0;whiteSpace=wrap;html=1;fillColor=#f8cecc;strokeColor=#b85450;strokeWidth=5;" parent="1" vertex="1">
          <mxGeometry x="519.98" y="3340" width="40.02" height="20" as="geometry" />
        </mxCell>
        <mxCell id="nqIc30WBPKle0FcAkf76-28" value="" style="rounded=0;whiteSpace=wrap;html=1;fillColor=#dae8fc;strokeColor=#6c8ebf;" parent="1" vertex="1">
          <mxGeometry x="399.92" y="3340" width="40.02" height="80" as="geometry" />
        </mxCell>
        <mxCell id="nqIc30WBPKle0FcAkf76-29" value="..." style="rounded=0;whiteSpace=wrap;html=1;fillColor=#dae8fc;strokeColor=#6c8ebf;" parent="1" vertex="1">
          <mxGeometry x="439.94" y="3340" width="40.02" height="80" as="geometry" />
        </mxCell>
        <mxCell id="nqIc30WBPKle0FcAkf76-30" value="..." style="rounded=0;whiteSpace=wrap;html=1;fillColor=#dae8fc;strokeColor=#6c8ebf;" parent="1" vertex="1">
          <mxGeometry x="479.96000000000004" y="3340" width="40.02" height="80" as="geometry" />
        </mxCell>
        <mxCell id="nqIc30WBPKle0FcAkf76-31" value="" style="rounded=0;whiteSpace=wrap;html=1;fillColor=#e1d5e7;strokeColor=#9673a6;strokeWidth=5;" parent="1" vertex="1">
          <mxGeometry x="560" y="3340" width="40" height="20" as="geometry" />
        </mxCell>
        <mxCell id="nqIc30WBPKle0FcAkf76-32" value="..." style="rounded=0;whiteSpace=wrap;html=1;fillColor=#dae8fc;strokeColor=#6c8ebf;" parent="1" vertex="1">
          <mxGeometry x="600.02" y="3340" width="40.02" height="80" as="geometry" />
        </mxCell>
        <mxCell id="nqIc30WBPKle0FcAkf76-33" value="" style="shape=curlyBracket;whiteSpace=wrap;html=1;rounded=1;flipH=1;labelPosition=right;verticalLabelPosition=middle;align=left;verticalAlign=middle;rotation=-90;size=0.5;" parent="1" vertex="1">
          <mxGeometry x="534.39" y="3315.46" width="10.7" height="39.54" as="geometry" />
        </mxCell>
        <mxCell id="nqIc30WBPKle0FcAkf76-34" value="MMA_K=16" style="text;html=1;align=center;verticalAlign=middle;resizable=0;points=[];autosize=1;strokeColor=none;fillColor=none;" parent="1" vertex="1">
          <mxGeometry x="494.99" y="3310" width="90" height="30" as="geometry" />
        </mxCell>
        <mxCell id="nqIc30WBPKle0FcAkf76-35" value="&lt;font style=&quot;font-size: 8px;&quot;&gt;lane_id=0&lt;/font&gt;" style="rounded=0;whiteSpace=wrap;html=1;fillColor=#60a917;strokeColor=#2D7600;fontColor=#ffffff;" parent="1" vertex="1">
          <mxGeometry x="399.92" y="3540" width="80.52" height="40" as="geometry" />
        </mxCell>
        <mxCell id="nqIc30WBPKle0FcAkf76-36" value="&lt;span style=&quot;font-size: 8px;&quot;&gt;lane_id=1&lt;/span&gt;" style="rounded=0;whiteSpace=wrap;html=1;fillColor=#1ba1e2;strokeColor=#006EAF;fontColor=#ffffff;" parent="1" vertex="1">
          <mxGeometry x="479.48" y="3540" width="80.52" height="40" as="geometry" />
        </mxCell>
        <mxCell id="nqIc30WBPKle0FcAkf76-37" value="&lt;span style=&quot;font-size: 8px;&quot;&gt;lane_id=2&lt;/span&gt;" style="rounded=0;whiteSpace=wrap;html=1;fillColor=#6a00ff;strokeColor=#3700CC;fontColor=#ffffff;" parent="1" vertex="1">
          <mxGeometry x="560" y="3540" width="80.52" height="40" as="geometry" />
        </mxCell>
        <mxCell id="nqIc30WBPKle0FcAkf76-38" value="&lt;span style=&quot;font-size: 8px;&quot;&gt;lane_id=3&lt;/span&gt;" style="rounded=0;whiteSpace=wrap;html=1;fillColor=#d80073;strokeColor=#A50040;fontColor=#ffffff;" parent="1" vertex="1">
          <mxGeometry x="639.5600000000001" y="3540" width="80.52" height="40" as="geometry" />
        </mxCell>
        <mxCell id="nqIc30WBPKle0FcAkf76-39" value="&lt;span style=&quot;font-size: 8px;&quot;&gt;lane_id=4&lt;/span&gt;" style="rounded=0;whiteSpace=wrap;html=1;fillColor=#60a917;strokeColor=#2D7600;fontColor=#ffffff;" parent="1" vertex="1">
          <mxGeometry x="399.92" y="3580" width="80.52" height="40" as="geometry" />
        </mxCell>
        <mxCell id="nqIc30WBPKle0FcAkf76-40" value="&lt;span style=&quot;font-size: 8px;&quot;&gt;lane_id=5&lt;/span&gt;" style="rounded=0;whiteSpace=wrap;html=1;fillColor=#1ba1e2;strokeColor=#006EAF;fontColor=#ffffff;" parent="1" vertex="1">
          <mxGeometry x="479.48" y="3580" width="80.52" height="40" as="geometry" />
        </mxCell>
        <mxCell id="nqIc30WBPKle0FcAkf76-41" value="&lt;span style=&quot;font-size: 8px;&quot;&gt;lane_id=6&lt;/span&gt;" style="rounded=0;whiteSpace=wrap;html=1;fillColor=#6a00ff;strokeColor=#3700CC;fontColor=#ffffff;" parent="1" vertex="1">
          <mxGeometry x="560" y="3580" width="80.52" height="40" as="geometry" />
        </mxCell>
        <mxCell id="nqIc30WBPKle0FcAkf76-42" value="&lt;span style=&quot;font-size: 8px;&quot;&gt;lane_id=7&lt;/span&gt;" style="rounded=0;whiteSpace=wrap;html=1;fillColor=#d80073;strokeColor=#A50040;fontColor=#ffffff;" parent="1" vertex="1">
          <mxGeometry x="639.5600000000001" y="3580" width="80.52" height="40" as="geometry" />
        </mxCell>
        <mxCell id="nqIc30WBPKle0FcAkf76-43" value="&lt;span style=&quot;font-size: 8px;&quot;&gt;lane_id=8&lt;/span&gt;" style="rounded=0;whiteSpace=wrap;html=1;fillColor=#60a917;strokeColor=#2D7600;fontColor=#ffffff;" parent="1" vertex="1">
          <mxGeometry x="399.92" y="3620" width="80.52" height="40" as="geometry" />
        </mxCell>
        <mxCell id="nqIc30WBPKle0FcAkf76-44" value="&lt;span style=&quot;font-size: 8px;&quot;&gt;lane_id=9&lt;/span&gt;" style="rounded=0;whiteSpace=wrap;html=1;fillColor=#1ba1e2;strokeColor=#006EAF;fontColor=#ffffff;" parent="1" vertex="1">
          <mxGeometry x="479.48" y="3620" width="80.52" height="40" as="geometry" />
        </mxCell>
        <mxCell id="nqIc30WBPKle0FcAkf76-45" value="&lt;span style=&quot;font-size: 8px;&quot;&gt;lane_id=10&lt;/span&gt;" style="rounded=0;whiteSpace=wrap;html=1;fillColor=#6a00ff;strokeColor=#3700CC;fontColor=#ffffff;" parent="1" vertex="1">
          <mxGeometry x="560" y="3620" width="80.52" height="40" as="geometry" />
        </mxCell>
        <mxCell id="nqIc30WBPKle0FcAkf76-46" value="&lt;span style=&quot;font-size: 8px;&quot;&gt;lane_id=11&lt;/span&gt;" style="rounded=0;whiteSpace=wrap;html=1;fillColor=#d80073;strokeColor=#A50040;fontColor=#ffffff;" parent="1" vertex="1">
          <mxGeometry x="639.5600000000001" y="3620" width="80.52" height="40" as="geometry" />
        </mxCell>
        <mxCell id="nqIc30WBPKle0FcAkf76-47" value="&lt;span style=&quot;font-size: 8px;&quot;&gt;lane_id=12&lt;/span&gt;" style="rounded=0;whiteSpace=wrap;html=1;fillColor=#60a917;strokeColor=#2D7600;fontColor=#ffffff;" parent="1" vertex="1">
          <mxGeometry x="399.92" y="3660" width="80.52" height="40" as="geometry" />
        </mxCell>
        <mxCell id="nqIc30WBPKle0FcAkf76-48" value="&lt;span style=&quot;font-size: 8px;&quot;&gt;lane_id=13&lt;/span&gt;" style="rounded=0;whiteSpace=wrap;html=1;fillColor=#1ba1e2;strokeColor=#006EAF;fontColor=#ffffff;" parent="1" vertex="1">
          <mxGeometry x="479.48" y="3660" width="80.52" height="40" as="geometry" />
        </mxCell>
        <mxCell id="nqIc30WBPKle0FcAkf76-49" value="&lt;span style=&quot;font-size: 8px;&quot;&gt;lane_id=14&lt;/span&gt;" style="rounded=0;whiteSpace=wrap;html=1;fillColor=#6a00ff;strokeColor=#3700CC;fontColor=#ffffff;" parent="1" vertex="1">
          <mxGeometry x="560" y="3660" width="80.52" height="40" as="geometry" />
        </mxCell>
        <mxCell id="nqIc30WBPKle0FcAkf76-50" value="&lt;span style=&quot;font-size: 8px;&quot;&gt;lane_id=15&lt;/span&gt;" style="rounded=0;whiteSpace=wrap;html=1;fillColor=#d80073;strokeColor=#A50040;fontColor=#ffffff;" parent="1" vertex="1">
          <mxGeometry x="639.5600000000001" y="3660" width="80.52" height="40" as="geometry" />
        </mxCell>
        <mxCell id="nqIc30WBPKle0FcAkf76-51" value="&lt;span style=&quot;font-size: 8px;&quot;&gt;lane_id=16&lt;/span&gt;" style="rounded=0;whiteSpace=wrap;html=1;fillColor=#60a917;strokeColor=#2D7600;fontColor=#ffffff;" parent="1" vertex="1">
          <mxGeometry x="399.92" y="3700" width="80.52" height="40" as="geometry" />
        </mxCell>
        <mxCell id="nqIc30WBPKle0FcAkf76-52" value="&lt;span style=&quot;font-size: 8px;&quot;&gt;lane_id=17&lt;/span&gt;" style="rounded=0;whiteSpace=wrap;html=1;fillColor=#1ba1e2;strokeColor=#006EAF;fontColor=#ffffff;" parent="1" vertex="1">
          <mxGeometry x="479.48" y="3700" width="80.52" height="40" as="geometry" />
        </mxCell>
        <mxCell id="nqIc30WBPKle0FcAkf76-53" value="&lt;span style=&quot;font-size: 8px;&quot;&gt;lane_id=18&lt;/span&gt;" style="rounded=0;whiteSpace=wrap;html=1;fillColor=#6a00ff;strokeColor=#3700CC;fontColor=#ffffff;" parent="1" vertex="1">
          <mxGeometry x="560" y="3700" width="80.52" height="40" as="geometry" />
        </mxCell>
        <mxCell id="nqIc30WBPKle0FcAkf76-54" value="&lt;span style=&quot;font-size: 8px;&quot;&gt;lane_id=19&lt;/span&gt;" style="rounded=0;whiteSpace=wrap;html=1;fillColor=#d80073;strokeColor=#A50040;fontColor=#ffffff;" parent="1" vertex="1">
          <mxGeometry x="639.5600000000001" y="3700" width="80.52" height="40" as="geometry" />
        </mxCell>
        <mxCell id="nqIc30WBPKle0FcAkf76-55" value="&lt;span style=&quot;font-size: 8px;&quot;&gt;lane_id=20&lt;/span&gt;" style="rounded=0;whiteSpace=wrap;html=1;fillColor=#60a917;strokeColor=#2D7600;fontColor=#ffffff;" parent="1" vertex="1">
          <mxGeometry x="399.92" y="3740" width="80.52" height="40" as="geometry" />
        </mxCell>
        <mxCell id="nqIc30WBPKle0FcAkf76-56" value="&lt;span style=&quot;font-size: 8px;&quot;&gt;lane_id=21&lt;/span&gt;" style="rounded=0;whiteSpace=wrap;html=1;fillColor=#1ba1e2;strokeColor=#006EAF;fontColor=#ffffff;" parent="1" vertex="1">
          <mxGeometry x="479.48" y="3740" width="80.52" height="40" as="geometry" />
        </mxCell>
        <mxCell id="nqIc30WBPKle0FcAkf76-57" value="&lt;span style=&quot;font-size: 8px;&quot;&gt;lane_id=22&lt;/span&gt;" style="rounded=0;whiteSpace=wrap;html=1;fillColor=#6a00ff;strokeColor=#3700CC;fontColor=#ffffff;" parent="1" vertex="1">
          <mxGeometry x="560" y="3740" width="80.52" height="40" as="geometry" />
        </mxCell>
        <mxCell id="nqIc30WBPKle0FcAkf76-58" value="&lt;span style=&quot;font-size: 8px;&quot;&gt;lane_id=23&lt;/span&gt;" style="rounded=0;whiteSpace=wrap;html=1;fillColor=#d80073;strokeColor=#A50040;fontColor=#ffffff;" parent="1" vertex="1">
          <mxGeometry x="639.5600000000001" y="3740" width="80.52" height="40" as="geometry" />
        </mxCell>
        <mxCell id="nqIc30WBPKle0FcAkf76-59" value="&lt;span style=&quot;font-size: 8px;&quot;&gt;lane_id=24&lt;/span&gt;" style="rounded=0;whiteSpace=wrap;html=1;fillColor=#60a917;strokeColor=#2D7600;fontColor=#ffffff;" parent="1" vertex="1">
          <mxGeometry x="399.92" y="3780" width="80.52" height="40" as="geometry" />
        </mxCell>
        <mxCell id="nqIc30WBPKle0FcAkf76-60" value="&lt;span style=&quot;font-size: 8px;&quot;&gt;lane_id=25&lt;/span&gt;" style="rounded=0;whiteSpace=wrap;html=1;fillColor=#1ba1e2;strokeColor=#006EAF;fontColor=#ffffff;" parent="1" vertex="1">
          <mxGeometry x="479.48" y="3780" width="80.52" height="40" as="geometry" />
        </mxCell>
        <mxCell id="nqIc30WBPKle0FcAkf76-61" value="&lt;span style=&quot;font-size: 8px;&quot;&gt;lane_id=26&lt;/span&gt;" style="rounded=0;whiteSpace=wrap;html=1;fillColor=#6a00ff;strokeColor=#3700CC;fontColor=#ffffff;" parent="1" vertex="1">
          <mxGeometry x="560" y="3780" width="80.52" height="40" as="geometry" />
        </mxCell>
        <mxCell id="nqIc30WBPKle0FcAkf76-62" value="&lt;span style=&quot;font-size: 8px;&quot;&gt;lane_id=27&lt;/span&gt;" style="rounded=0;whiteSpace=wrap;html=1;fillColor=#d80073;strokeColor=#A50040;fontColor=#ffffff;" parent="1" vertex="1">
          <mxGeometry x="639.5600000000001" y="3780" width="80.52" height="40" as="geometry" />
        </mxCell>
        <mxCell id="nqIc30WBPKle0FcAkf76-63" value="&lt;span style=&quot;font-size: 8px;&quot;&gt;lane_id=28&lt;/span&gt;" style="rounded=0;whiteSpace=wrap;html=1;fillColor=#60a917;strokeColor=#2D7600;fontColor=#ffffff;" parent="1" vertex="1">
          <mxGeometry x="399.92" y="3820" width="80.52" height="40" as="geometry" />
        </mxCell>
        <mxCell id="nqIc30WBPKle0FcAkf76-64" value="&lt;span style=&quot;font-size: 8px;&quot;&gt;lane_id=29&lt;/span&gt;" style="rounded=0;whiteSpace=wrap;html=1;fillColor=#1ba1e2;strokeColor=#006EAF;fontColor=#ffffff;" parent="1" vertex="1">
          <mxGeometry x="479.48" y="3820" width="80.52" height="40" as="geometry" />
        </mxCell>
        <mxCell id="nqIc30WBPKle0FcAkf76-65" value="&lt;span style=&quot;font-size: 8px;&quot;&gt;lane_id=30&lt;/span&gt;" style="rounded=0;whiteSpace=wrap;html=1;fillColor=#6a00ff;strokeColor=#3700CC;fontColor=#ffffff;" parent="1" vertex="1">
          <mxGeometry x="560" y="3820" width="80.52" height="40" as="geometry" />
        </mxCell>
        <mxCell id="nqIc30WBPKle0FcAkf76-66" value="&lt;span style=&quot;font-size: 8px;&quot;&gt;lane_id=31&lt;/span&gt;" style="rounded=0;whiteSpace=wrap;html=1;fillColor=#d80073;strokeColor=#A50040;fontColor=#ffffff;" parent="1" vertex="1">
          <mxGeometry x="639.56" y="3820" width="80.44" height="40" as="geometry" />
        </mxCell>
        <mxCell id="nqIc30WBPKle0FcAkf76-67" value="" style="whiteSpace=wrap;html=1;aspect=fixed;fillColor=#d5e8d4;strokeColor=#82b366;" parent="1" vertex="1">
          <mxGeometry x="519.98" y="3340" width="10" height="10" as="geometry" />
        </mxCell>
        <mxCell id="nqIc30WBPKle0FcAkf76-68" value="" style="shape=curlyBracket;whiteSpace=wrap;html=1;rounded=1;flipH=1;labelPosition=right;verticalLabelPosition=middle;align=left;verticalAlign=middle;" parent="1" vertex="1">
          <mxGeometry x="719.22" y="3540" width="30.78" height="320" as="geometry" />
        </mxCell>
        <mxCell id="nqIc30WBPKle0FcAkf76-69" value="8" style="text;html=1;align=center;verticalAlign=middle;resizable=0;points=[];autosize=1;strokeColor=none;fillColor=none;" parent="1" vertex="1">
          <mxGeometry x="740" y="3685" width="30" height="30" as="geometry" />
        </mxCell>
        <mxCell id="nqIc30WBPKle0FcAkf76-70" value="MMA_K=16*half" style="text;html=1;align=center;verticalAlign=middle;resizable=0;points=[];autosize=1;strokeColor=none;fillColor=none;" parent="1" vertex="1">
          <mxGeometry x="424.38" y="3871" width="110" height="30" as="geometry" />
        </mxCell>
        <mxCell id="nqIc30WBPKle0FcAkf76-71" value="" style="shape=curlyBracket;whiteSpace=wrap;html=1;rounded=1;flipH=1;labelPosition=right;verticalLabelPosition=middle;align=left;verticalAlign=middle;rotation=90;" parent="1" vertex="1">
          <mxGeometry x="466.89" y="3793.12" width="24.98" height="158.73" as="geometry" />
        </mxCell>
        <mxCell id="nqIc30WBPKle0FcAkf76-72" value="&lt;font style=&quot;font-size: 8px;&quot;&gt;lane_id=0&lt;br&gt;&lt;/font&gt;" style="rounded=0;whiteSpace=wrap;html=1;fillColor=#60a917;fontColor=#ffffff;strokeColor=#2D7600;" parent="1" vertex="1">
          <mxGeometry x="399.14" y="3980" width="80.52" height="40" as="geometry" />
        </mxCell>
        <mxCell id="nqIc30WBPKle0FcAkf76-73" value="&lt;span style=&quot;font-size: 8px;&quot;&gt;lane_id=1&lt;/span&gt;" style="rounded=0;whiteSpace=wrap;html=1;fillColor=#1ba1e2;fontColor=#ffffff;strokeColor=#006EAF;" parent="1" vertex="1">
          <mxGeometry x="478.70000000000005" y="3980" width="80.52" height="40" as="geometry" />
        </mxCell>
        <mxCell id="nqIc30WBPKle0FcAkf76-74" value="&lt;span style=&quot;font-size: 8px;&quot;&gt;lane_id=2&lt;/span&gt;" style="rounded=0;whiteSpace=wrap;html=1;fillColor=#6a00ff;fontColor=#ffffff;strokeColor=#3700CC;" parent="1" vertex="1">
          <mxGeometry x="559.22" y="3980" width="80.52" height="40" as="geometry" />
        </mxCell>
        <mxCell id="nqIc30WBPKle0FcAkf76-75" value="&lt;span style=&quot;font-size: 8px;&quot;&gt;lane_id=3&lt;/span&gt;" style="rounded=0;whiteSpace=wrap;html=1;fillColor=#d80073;fontColor=#ffffff;strokeColor=#A50040;" parent="1" vertex="1">
          <mxGeometry x="638.7800000000001" y="3980" width="80.52" height="40" as="geometry" />
        </mxCell>
        <mxCell id="nqIc30WBPKle0FcAkf76-76" value="&lt;span style=&quot;font-size: 8px;&quot;&gt;lane_id=4&lt;/span&gt;" style="rounded=0;whiteSpace=wrap;html=1;fillColor=#60a917;fontColor=#ffffff;strokeColor=#2D7600;" parent="1" vertex="1">
          <mxGeometry x="399.14" y="4020" width="80.52" height="40" as="geometry" />
        </mxCell>
        <mxCell id="nqIc30WBPKle0FcAkf76-77" value="&lt;span style=&quot;font-size: 8px;&quot;&gt;lane_id=5&lt;/span&gt;" style="rounded=0;whiteSpace=wrap;html=1;fillColor=#1ba1e2;fontColor=#ffffff;strokeColor=#006EAF;" parent="1" vertex="1">
          <mxGeometry x="478.70000000000005" y="4020" width="80.52" height="40" as="geometry" />
        </mxCell>
        <mxCell id="nqIc30WBPKle0FcAkf76-78" value="&lt;span style=&quot;font-size: 8px;&quot;&gt;lane_id=6&lt;/span&gt;" style="rounded=0;whiteSpace=wrap;html=1;fillColor=#6a00ff;fontColor=#ffffff;strokeColor=#3700CC;" parent="1" vertex="1">
          <mxGeometry x="559.22" y="4020" width="80.52" height="40" as="geometry" />
        </mxCell>
        <mxCell id="nqIc30WBPKle0FcAkf76-79" value="&lt;span style=&quot;font-size: 8px;&quot;&gt;lane_id=7&lt;/span&gt;" style="rounded=0;whiteSpace=wrap;html=1;fillColor=#d80073;fontColor=#ffffff;strokeColor=#A50040;" parent="1" vertex="1">
          <mxGeometry x="638.7800000000001" y="4020" width="80.52" height="40" as="geometry" />
        </mxCell>
        <mxCell id="nqIc30WBPKle0FcAkf76-80" value="&lt;span style=&quot;font-size: 8px;&quot;&gt;lane_id=11&lt;/span&gt;" style="rounded=0;whiteSpace=wrap;html=1;fillColor=#d80073;fontColor=#ffffff;strokeColor=#A50040;" parent="1" vertex="1">
          <mxGeometry x="399.14" y="4060" width="80.52" height="40" as="geometry" />
        </mxCell>
        <mxCell id="nqIc30WBPKle0FcAkf76-81" value="&lt;span style=&quot;font-size: 8px;&quot;&gt;lane_id=8&lt;/span&gt;" style="rounded=0;whiteSpace=wrap;html=1;fillColor=#60a917;fontColor=#ffffff;strokeColor=#2D7600;" parent="1" vertex="1">
          <mxGeometry x="478.70000000000005" y="4060" width="80.52" height="40" as="geometry" />
        </mxCell>
        <mxCell id="nqIc30WBPKle0FcAkf76-82" value="&lt;span style=&quot;font-size: 8px;&quot;&gt;lane_id=9&lt;/span&gt;" style="rounded=0;whiteSpace=wrap;html=1;fillColor=#1ba1e2;fontColor=#ffffff;strokeColor=#006EAF;" parent="1" vertex="1">
          <mxGeometry x="559.22" y="4060" width="80.52" height="40" as="geometry" />
        </mxCell>
        <mxCell id="nqIc30WBPKle0FcAkf76-83" value="&lt;span style=&quot;font-size: 8px;&quot;&gt;lane_id=10&lt;/span&gt;" style="rounded=0;whiteSpace=wrap;html=1;fillColor=#6a00ff;fontColor=#ffffff;strokeColor=#3700CC;" parent="1" vertex="1">
          <mxGeometry x="638.7800000000001" y="4060" width="80.52" height="40" as="geometry" />
        </mxCell>
        <mxCell id="nqIc30WBPKle0FcAkf76-84" value="&lt;span style=&quot;font-size: 8px;&quot;&gt;lane_id=15&lt;/span&gt;" style="rounded=0;whiteSpace=wrap;html=1;fillColor=#d80073;fontColor=#ffffff;strokeColor=#A50040;" parent="1" vertex="1">
          <mxGeometry x="399.14" y="4100" width="80.52" height="40" as="geometry" />
        </mxCell>
        <mxCell id="nqIc30WBPKle0FcAkf76-85" value="&lt;span style=&quot;font-size: 8px;&quot;&gt;lane_id=12&lt;/span&gt;" style="rounded=0;whiteSpace=wrap;html=1;fillColor=#60a917;fontColor=#ffffff;strokeColor=#2D7600;" parent="1" vertex="1">
          <mxGeometry x="478.70000000000005" y="4100" width="80.52" height="40" as="geometry" />
        </mxCell>
        <mxCell id="nqIc30WBPKle0FcAkf76-86" value="&lt;span style=&quot;font-size: 8px;&quot;&gt;lane_id=13&lt;/span&gt;" style="rounded=0;whiteSpace=wrap;html=1;fillColor=#1ba1e2;fontColor=#ffffff;strokeColor=#006EAF;" parent="1" vertex="1">
          <mxGeometry x="559.22" y="4100" width="80.52" height="40" as="geometry" />
        </mxCell>
        <mxCell id="nqIc30WBPKle0FcAkf76-87" value="&lt;span style=&quot;font-size: 8px;&quot;&gt;lane_id=14&lt;/span&gt;" style="rounded=0;whiteSpace=wrap;html=1;fillColor=#6a00ff;fontColor=#ffffff;strokeColor=#3700CC;" parent="1" vertex="1">
          <mxGeometry x="638.7800000000001" y="4100" width="80.52" height="40" as="geometry" />
        </mxCell>
        <mxCell id="nqIc30WBPKle0FcAkf76-88" value="&lt;span style=&quot;font-size: 8px;&quot;&gt;lane_id=18&lt;/span&gt;" style="rounded=0;whiteSpace=wrap;html=1;fillColor=#6a00ff;fontColor=#ffffff;strokeColor=#3700CC;" parent="1" vertex="1">
          <mxGeometry x="399.14" y="4140" width="80.52" height="40" as="geometry" />
        </mxCell>
        <mxCell id="nqIc30WBPKle0FcAkf76-89" value="&lt;span style=&quot;font-size: 8px;&quot;&gt;lane_id=19&lt;/span&gt;" style="rounded=0;whiteSpace=wrap;html=1;fillColor=#d80073;fontColor=#ffffff;strokeColor=#A50040;" parent="1" vertex="1">
          <mxGeometry x="478.70000000000005" y="4140" width="80.52" height="40" as="geometry" />
        </mxCell>
        <mxCell id="nqIc30WBPKle0FcAkf76-90" value="&lt;span style=&quot;font-size: 8px;&quot;&gt;lane_id=16&lt;/span&gt;" style="rounded=0;whiteSpace=wrap;html=1;fillColor=#60a917;fontColor=#ffffff;strokeColor=#2D7600;" parent="1" vertex="1">
          <mxGeometry x="559.22" y="4140" width="80.52" height="40" as="geometry" />
        </mxCell>
        <mxCell id="nqIc30WBPKle0FcAkf76-91" value="&lt;span style=&quot;font-size: 8px;&quot;&gt;lane_id=17&lt;/span&gt;" style="rounded=0;whiteSpace=wrap;html=1;fillColor=#1ba1e2;fontColor=#ffffff;strokeColor=#006EAF;" parent="1" vertex="1">
          <mxGeometry x="638.7800000000001" y="4140" width="80.52" height="40" as="geometry" />
        </mxCell>
        <mxCell id="nqIc30WBPKle0FcAkf76-92" value="&lt;span style=&quot;font-size: 8px;&quot;&gt;lane_id=22&lt;/span&gt;" style="rounded=0;whiteSpace=wrap;html=1;fillColor=#6a00ff;fontColor=#ffffff;strokeColor=#3700CC;" parent="1" vertex="1">
          <mxGeometry x="399.14" y="4180" width="80.52" height="40" as="geometry" />
        </mxCell>
        <mxCell id="nqIc30WBPKle0FcAkf76-93" value="&lt;span style=&quot;font-size: 8px;&quot;&gt;lane_id=23&lt;/span&gt;" style="rounded=0;whiteSpace=wrap;html=1;fillColor=#d80073;fontColor=#ffffff;strokeColor=#A50040;" parent="1" vertex="1">
          <mxGeometry x="478.70000000000005" y="4180" width="80.52" height="40" as="geometry" />
        </mxCell>
        <mxCell id="nqIc30WBPKle0FcAkf76-94" value="&lt;span style=&quot;font-size: 8px;&quot;&gt;lane_id=20&lt;/span&gt;" style="rounded=0;whiteSpace=wrap;html=1;fillColor=#60a917;fontColor=#ffffff;strokeColor=#2D7600;" parent="1" vertex="1">
          <mxGeometry x="559.22" y="4180" width="80.52" height="40" as="geometry" />
        </mxCell>
        <mxCell id="nqIc30WBPKle0FcAkf76-95" value="&lt;span style=&quot;font-size: 8px;&quot;&gt;lane_id=21&lt;/span&gt;" style="rounded=0;whiteSpace=wrap;html=1;fillColor=#1ba1e2;fontColor=#ffffff;strokeColor=#006EAF;" parent="1" vertex="1">
          <mxGeometry x="638.7800000000001" y="4180" width="80.52" height="40" as="geometry" />
        </mxCell>
        <mxCell id="nqIc30WBPKle0FcAkf76-96" value="&lt;span style=&quot;font-size: 8px;&quot;&gt;lane_id=25&lt;/span&gt;" style="rounded=0;whiteSpace=wrap;html=1;fillColor=#1ba1e2;fontColor=#ffffff;strokeColor=#006EAF;" parent="1" vertex="1">
          <mxGeometry x="399.14" y="4220" width="80.52" height="40" as="geometry" />
        </mxCell>
        <mxCell id="nqIc30WBPKle0FcAkf76-97" value="&lt;span style=&quot;font-size: 8px;&quot;&gt;lane_id=26&lt;/span&gt;" style="rounded=0;whiteSpace=wrap;html=1;fillColor=#6a00ff;fontColor=#ffffff;strokeColor=#3700CC;" parent="1" vertex="1">
          <mxGeometry x="478.70000000000005" y="4220" width="80.52" height="40" as="geometry" />
        </mxCell>
        <mxCell id="nqIc30WBPKle0FcAkf76-98" value="&lt;span style=&quot;font-size: 8px;&quot;&gt;lane_id=27&lt;/span&gt;" style="rounded=0;whiteSpace=wrap;html=1;fillColor=#d80073;fontColor=#ffffff;strokeColor=#A50040;" parent="1" vertex="1">
          <mxGeometry x="559.22" y="4220" width="80.52" height="40" as="geometry" />
        </mxCell>
        <mxCell id="nqIc30WBPKle0FcAkf76-99" value="&lt;span style=&quot;font-size: 8px;&quot;&gt;lane_id=24&lt;/span&gt;" style="rounded=0;whiteSpace=wrap;html=1;fillColor=#60a917;fontColor=#ffffff;strokeColor=#2D7600;" parent="1" vertex="1">
          <mxGeometry x="638.7800000000001" y="4220" width="80.52" height="40" as="geometry" />
        </mxCell>
        <mxCell id="nqIc30WBPKle0FcAkf76-100" value="&lt;span style=&quot;font-size: 8px;&quot;&gt;lane_id=28&lt;/span&gt;" style="rounded=0;whiteSpace=wrap;html=1;fillColor=#1ba1e2;fontColor=#ffffff;strokeColor=#006EAF;" parent="1" vertex="1">
          <mxGeometry x="399.14" y="4260" width="80.52" height="40" as="geometry" />
        </mxCell>
        <mxCell id="nqIc30WBPKle0FcAkf76-101" value="&lt;span style=&quot;font-size: 8px;&quot;&gt;lane_id=29&lt;/span&gt;" style="rounded=0;whiteSpace=wrap;html=1;fillColor=#6a00ff;fontColor=#ffffff;strokeColor=#3700CC;" parent="1" vertex="1">
          <mxGeometry x="478.70000000000005" y="4260" width="80.52" height="40" as="geometry" />
        </mxCell>
        <mxCell id="nqIc30WBPKle0FcAkf76-102" value="&lt;span style=&quot;font-size: 8px;&quot;&gt;lane_id=30&lt;/span&gt;" style="rounded=0;whiteSpace=wrap;html=1;fillColor=#d80073;fontColor=#ffffff;strokeColor=#A50040;" parent="1" vertex="1">
          <mxGeometry x="559.22" y="4260" width="80.52" height="40" as="geometry" />
        </mxCell>
        <mxCell id="nqIc30WBPKle0FcAkf76-103" value="&lt;span style=&quot;font-size: 8px;&quot;&gt;lane_id=31&lt;/span&gt;" style="rounded=0;whiteSpace=wrap;html=1;fillColor=#60a917;fontColor=#ffffff;strokeColor=#2D7600;" parent="1" vertex="1">
          <mxGeometry x="638.7799999999999" y="4260" width="80.44" height="40" as="geometry" />
        </mxCell>
        <mxCell id="nqIc30WBPKle0FcAkf76-104" value="" style="shape=curlyBracket;whiteSpace=wrap;html=1;rounded=1;flipH=1;labelPosition=right;verticalLabelPosition=middle;align=left;verticalAlign=middle;rotation=90;" parent="1" vertex="1">
          <mxGeometry x="546.75" y="4152.49" width="24.98" height="320" as="geometry" />
        </mxCell>
        <mxCell id="nqIc30WBPKle0FcAkf76-105" value="" style="shape=curlyBracket;whiteSpace=wrap;html=1;rounded=1;flipH=1;labelPosition=right;verticalLabelPosition=middle;align=left;verticalAlign=middle;rotation=90;" parent="1" vertex="1">
          <mxGeometry x="627.51" y="3793.12" width="24.98" height="158.73" as="geometry" />
        </mxCell>
        <mxCell id="nqIc30WBPKle0FcAkf76-106" value="MMA_K=16*half" style="text;html=1;align=center;verticalAlign=middle;resizable=0;points=[];autosize=1;strokeColor=none;fillColor=none;" parent="1" vertex="1">
          <mxGeometry x="585" y="3872" width="110" height="30" as="geometry" />
        </mxCell>
        <mxCell id="nqIc30WBPKle0FcAkf76-107" value="" style="rounded=0;whiteSpace=wrap;html=1;fillColor=#d5e8d4;strokeColor=#82b366;" parent="1" vertex="1">
          <mxGeometry x="640.08" y="3540" width="80" height="10" as="geometry" />
        </mxCell>
        <mxCell id="nqIc30WBPKle0FcAkf76-108" value="" style="whiteSpace=wrap;html=1;aspect=fixed;fillColor=#d5e8d4;strokeColor=#82b366;" parent="1" vertex="1">
          <mxGeometry x="399.92" y="3540" width="10" height="10" as="geometry" />
        </mxCell>
        <mxCell id="nqIc30WBPKle0FcAkf76-110" value="" style="endArrow=classic;html=1;rounded=0;" parent="1" target="nqIc30WBPKle0FcAkf76-113" edge="1">
          <mxGeometry width="50" height="50" relative="1" as="geometry">
            <mxPoint x="659.98" y="3540" as="sourcePoint" />
            <mxPoint x="705.06" y="3480.0199999999995" as="targetPoint" />
          </mxGeometry>
        </mxCell>
        <mxCell id="nqIc30WBPKle0FcAkf76-111" value="" style="endArrow=classic;html=1;rounded=0;entryX=0.5;entryY=1;entryDx=0;entryDy=0;" parent="1" target="nqIc30WBPKle0FcAkf76-112" edge="1">
          <mxGeometry width="50" height="50" relative="1" as="geometry">
            <mxPoint x="400" y="3540" as="sourcePoint" />
            <mxPoint x="350" y="3530" as="targetPoint" />
          </mxGeometry>
        </mxCell>
        <mxCell id="nqIc30WBPKle0FcAkf76-112" value="&lt;font style=&quot;font-size: 11px;&quot;&gt;&lt;span style=&quot;text-align: left; text-wrap: nowrap;&quot;&gt;&lt;font style=&quot;font-size: 11px;&quot; color=&quot;#ff3333&quot;&gt;&lt;b style=&quot;&quot;&gt;half*&lt;/b&gt;&lt;/font&gt; A_lane_ptr=&lt;/span&gt;&lt;span style=&quot;text-align: left; text-wrap: nowrap; background-color: initial;&quot;&gt;(int4*)(A_warp_ptr+tile_k*MMA_K+&lt;/span&gt;&lt;/font&gt;&lt;div style=&quot;text-align: left; text-wrap: nowrap; font-size: 11px;&quot;&gt;&lt;font style=&quot;font-size: 11px;&quot;&gt;&lt;span style=&quot;white-space-collapse: preserve;&quot;&gt;&#x9;&lt;/span&gt;&lt;span style=&quot;white-space-collapse: preserve;&quot;&gt;&#x9;&lt;/span&gt;(lane_id/CHUNK_COPY_LINE_LANES)*K&lt;/font&gt;&lt;span style=&quot;font-size: 11px;&quot;&gt;)&lt;/span&gt;&lt;/div&gt;" style="rounded=1;whiteSpace=wrap;html=1;" parent="1" vertex="1">
          <mxGeometry x="200" y="3465" width="290" height="40" as="geometry" />
        </mxCell>
        <mxCell id="nqIc30WBPKle0FcAkf76-113" value="&lt;font style=&quot;font-size: 11px;&quot;&gt;&lt;span style=&quot;text-wrap: nowrap;&quot;&gt;A_lane_ptr=&lt;/span&gt;&lt;span style=&quot;text-wrap: nowrap; background-color: initial;&quot;&gt;(&lt;b&gt;&lt;font style=&quot;font-size: 11px;&quot; color=&quot;#ff3333&quot;&gt;int4*&lt;/font&gt;&lt;/b&gt;)(A_warp_ptr+tile_k*MMA_K+&lt;/span&gt;&lt;/font&gt;&lt;div style=&quot;text-wrap: nowrap; font-size: 11px;&quot;&gt;&lt;font style=&quot;font-size: 11px;&quot;&gt;&lt;span style=&quot;white-space-collapse: preserve;&quot;&gt;&#x9;&lt;/span&gt;&lt;span style=&quot;white-space-collapse: preserve;&quot;&gt;&#x9;&lt;/span&gt;&lt;span style=&quot;white-space-collapse: preserve;&quot;&gt;&#x9;&lt;/span&gt;&amp;nbsp; &amp;nbsp; &amp;nbsp; (lane_id/CHUNK_COPY_LINE_LANES)*K)+&lt;br&gt;&lt;span style=&quot;white-space-collapse: preserve;&quot;&gt;&#x9;&lt;/span&gt;&lt;span style=&quot;white-space-collapse: preserve;&quot;&gt;&#x9;&lt;/span&gt;&lt;span style=&quot;white-space-collapse: preserve;&quot;&gt;&#x9;&lt;/span&gt;&amp;nbsp; &amp;nbsp; &amp;nbsp; (lane_id%&lt;span style=&quot;background-color: initial;&quot;&gt;CHUNK_COPY_LINE_LANES&lt;/span&gt;&lt;span style=&quot;background-color: initial;&quot;&gt;)&lt;/span&gt;&lt;/font&gt;&lt;/div&gt;" style="rounded=1;whiteSpace=wrap;html=1;align=left;" parent="1" vertex="1">
          <mxGeometry x="660" y="3448.19" width="317.51" height="60" as="geometry" />
        </mxCell>
        <mxCell id="nqIc30WBPKle0FcAkf76-114" value="&lt;meta charset=&quot;utf-8&quot;&gt;&lt;span style=&quot;color: rgb(0, 0, 0); font-family: Helvetica; font-size: 12px; font-style: normal; font-variant-ligatures: normal; font-variant-caps: normal; font-weight: 400; letter-spacing: normal; orphans: 2; text-align: left; text-indent: 0px; text-transform: none; widows: 2; word-spacing: 0px; -webkit-text-stroke-width: 0px; white-space: nowrap; background-color: rgb(251, 251, 251); text-decoration-thickness: initial; text-decoration-style: initial; text-decoration-color: initial; display: inline !important; float: none;&quot;&gt;A_warp_ptr+tile_k*MMA_K&lt;/span&gt;" style="rounded=1;whiteSpace=wrap;html=1;" parent="1" vertex="1">
          <mxGeometry x="145.48" y="3355" width="154" height="30" as="geometry" />
        </mxCell>
        <mxCell id="nqIc30WBPKle0FcAkf76-322" style="edgeStyle=orthogonalEdgeStyle;rounded=0;orthogonalLoop=1;jettySize=auto;html=1;exitX=1;exitY=0.5;exitDx=0;exitDy=0;entryX=0;entryY=0.5;entryDx=0;entryDy=0;" parent="1" source="nqIc30WBPKle0FcAkf76-116" target="nqIc30WBPKle0FcAkf76-72" edge="1">
          <mxGeometry relative="1" as="geometry" />
        </mxCell>
        <mxCell id="nqIc30WBPKle0FcAkf76-326" style="edgeStyle=orthogonalEdgeStyle;rounded=0;orthogonalLoop=1;jettySize=auto;html=1;" parent="1" source="nqIc30WBPKle0FcAkf76-116" edge="1">
          <mxGeometry relative="1" as="geometry">
            <mxPoint x="-185" y="4090" as="targetPoint" />
          </mxGeometry>
        </mxCell>
        <mxCell id="nqIc30WBPKle0FcAkf76-116" value="part of shared&amp;nbsp;&lt;span style=&quot;background-color: initial;&quot;&gt;memory&lt;/span&gt;&lt;div&gt;&lt;font color=&quot;#cc6600&quot;&gt;smem[][AB_SMEM_STRIDE]&lt;/font&gt;&lt;/div&gt;" style="shape=hexagon;perimeter=hexagonPerimeter2;whiteSpace=wrap;html=1;fixedSize=1;" parent="1" vertex="1">
          <mxGeometry x="-279.3" y="3960" width="189.48" height="80" as="geometry" />
        </mxCell>
        <mxCell id="nqIc30WBPKle0FcAkf76-118" value="" style="rounded=0;whiteSpace=wrap;html=1;fillColor=#f8cecc;strokeColor=#b85450;" parent="1" vertex="1">
          <mxGeometry x="519.98" y="3360" width="40.02" height="20" as="geometry" />
        </mxCell>
        <mxCell id="nqIc30WBPKle0FcAkf76-119" value="" style="rounded=0;whiteSpace=wrap;html=1;fillColor=#f8cecc;strokeColor=#b85450;" parent="1" vertex="1">
          <mxGeometry x="519.98" y="3380" width="40.02" height="20" as="geometry" />
        </mxCell>
        <mxCell id="nqIc30WBPKle0FcAkf76-120" value="" style="rounded=0;whiteSpace=wrap;html=1;fillColor=#f8cecc;strokeColor=#b85450;" parent="1" vertex="1">
          <mxGeometry x="519.98" y="3400" width="40.02" height="20" as="geometry" />
        </mxCell>
        <mxCell id="nqIc30WBPKle0FcAkf76-121" value="" style="shape=curlyBracket;whiteSpace=wrap;html=1;rounded=1;flipH=1;labelPosition=right;verticalLabelPosition=middle;align=left;verticalAlign=middle;rotation=-180;" parent="1" vertex="1">
          <mxGeometry x="509.98" y="3340" width="10" height="20" as="geometry" />
        </mxCell>
        <mxCell id="nqIc30WBPKle0FcAkf76-122" value="8" style="text;html=1;align=center;verticalAlign=middle;resizable=0;points=[];autosize=1;strokeColor=none;fillColor=none;" parent="1" vertex="1">
          <mxGeometry x="491.87" y="3335" width="30" height="30" as="geometry" />
        </mxCell>
        <mxCell id="nqIc30WBPKle0FcAkf76-123" value="" style="rounded=0;whiteSpace=wrap;html=1;fillColor=#e1d5e7;strokeColor=#9673a6;" parent="1" vertex="1">
          <mxGeometry x="560.02" y="3360" width="40" height="20" as="geometry" />
        </mxCell>
        <mxCell id="nqIc30WBPKle0FcAkf76-124" value="" style="rounded=0;whiteSpace=wrap;html=1;fillColor=#e1d5e7;strokeColor=#9673a6;" parent="1" vertex="1">
          <mxGeometry x="560.02" y="3380" width="40" height="20" as="geometry" />
        </mxCell>
        <mxCell id="nqIc30WBPKle0FcAkf76-125" value="" style="rounded=0;whiteSpace=wrap;html=1;fillColor=#e1d5e7;strokeColor=#9673a6;" parent="1" vertex="1">
          <mxGeometry x="560.02" y="3400" width="40" height="20" as="geometry" />
        </mxCell>
        <mxCell id="nqIc30WBPKle0FcAkf76-126" value="" style="endArrow=classic;html=1;rounded=0;entryX=1;entryY=0;entryDx=0;entryDy=0;" parent="1" source="nqIc30WBPKle0FcAkf76-27" target="nqIc30WBPKle0FcAkf76-35" edge="1">
          <mxGeometry width="50" height="50" relative="1" as="geometry">
            <mxPoint x="540" y="3510" as="sourcePoint" />
            <mxPoint x="590" y="3460" as="targetPoint" />
          </mxGeometry>
        </mxCell>
        <mxCell id="nqIc30WBPKle0FcAkf76-127" value="" style="endArrow=classic;html=1;rounded=0;entryX=1;entryY=0;entryDx=0;entryDy=0;exitX=0.5;exitY=1;exitDx=0;exitDy=0;" parent="1" source="nqIc30WBPKle0FcAkf76-31" target="nqIc30WBPKle0FcAkf76-37" edge="1">
          <mxGeometry width="50" height="50" relative="1" as="geometry">
            <mxPoint x="530" y="3370" as="sourcePoint" />
            <mxPoint x="490" y="3550" as="targetPoint" />
          </mxGeometry>
        </mxCell>
        <mxCell id="nqIc30WBPKle0FcAkf76-128" value="" style="shape=curlyBracket;whiteSpace=wrap;html=1;rounded=1;flipH=1;labelPosition=right;verticalLabelPosition=middle;align=left;verticalAlign=middle;rotation=90;" parent="1" vertex="1">
          <mxGeometry x="521.87" y="3737" width="74.98" height="320" as="geometry" />
        </mxCell>
        <mxCell id="nqIc30WBPKle0FcAkf76-129" value="4*int4 ==&amp;gt; 32*half=CHUNK_COPY_LINES_PER_WARP" style="text;html=1;align=center;verticalAlign=middle;resizable=0;points=[];autosize=1;strokeColor=none;fillColor=none;" parent="1" vertex="1">
          <mxGeometry x="409.92" y="3910" width="320" height="30" as="geometry" />
        </mxCell>
        <mxCell id="nqIc30WBPKle0FcAkf76-130" value="4*int4 ==&amp;gt; 32*half=CHUNK_COPY_LINES_PER_WARP" style="text;html=1;align=center;verticalAlign=middle;resizable=0;points=[];autosize=1;strokeColor=none;fillColor=none;" parent="1" vertex="1">
          <mxGeometry x="405" y="4320" width="320" height="30" as="geometry" />
        </mxCell>
        <mxCell id="nqIc30WBPKle0FcAkf76-131" value="&lt;div style=&quot;text-align: left;&quot;&gt;&lt;span style=&quot;text-wrap: nowrap; background-color: initial;&quot;&gt;A_smem_idx=BLOCK_ROWS/WARPS_PER_BLOCK*warp_id+&lt;/span&gt;&lt;/div&gt;&lt;div style=&quot;text-align: left; text-wrap: nowrap;&quot;&gt;&lt;span style=&quot;white-space-collapse: preserve;&quot;&gt;&#x9;&lt;/span&gt;&lt;span style=&quot;white-space-collapse: preserve;&quot;&gt;&#x9;&lt;/span&gt;&lt;span style=&quot;white-space-collapse: preserve;&quot;&gt;&#x9;&lt;/span&gt;land_id/CHUNK_COPY_LINE_LANES&lt;/div&gt;" style="rounded=1;whiteSpace=wrap;html=1;" parent="1" vertex="1">
          <mxGeometry x="-442.81" y="3842.5" width="360" height="60" as="geometry" />
        </mxCell>
        <mxCell id="nqIc30WBPKle0FcAkf76-134" value="&lt;meta charset=&quot;utf-8&quot;&gt;&lt;span style=&quot;color: rgb(0, 0, 0); font-family: Helvetica; font-size: 12px; font-style: normal; font-variant-ligatures: normal; font-variant-caps: normal; font-weight: 400; letter-spacing: normal; orphans: 2; text-align: center; text-indent: 0px; text-transform: none; widows: 2; word-spacing: 0px; -webkit-text-stroke-width: 0px; white-space: nowrap; background-color: rgb(251, 251, 251); text-decoration-thickness: initial; text-decoration-style: initial; text-decoration-color: initial; display: inline !important; float: none;&quot;&gt;block_tile_i*MMA_M*K&lt;/span&gt;" style="rounded=1;whiteSpace=wrap;html=1;" parent="1" vertex="1">
          <mxGeometry x="-290" y="3367.5" width="130" height="30" as="geometry" />
        </mxCell>
        <mxCell id="nqIc30WBPKle0FcAkf76-135" value="&lt;span style=&quot;text-wrap: nowrap;&quot;&gt;&lt;b&gt;&lt;font color=&quot;#ff3333&quot;&gt;half*&lt;/font&gt;&lt;/b&gt;&lt;/span&gt;&lt;span style=&quot;text-wrap: nowrap;&quot;&gt;&amp;nbsp;A_warp_ptr&lt;/span&gt;" style="rounded=1;whiteSpace=wrap;html=1;" parent="1" vertex="1">
          <mxGeometry x="-140" y="3347.5" width="110" height="30" as="geometry" />
        </mxCell>
        <mxCell id="nqIc30WBPKle0FcAkf76-136" value="i=0 ==&amp;gt; A_smem_idx = 32*3+0 ~ 32*3+7" style="rounded=0;whiteSpace=wrap;html=1;fillColor=#f5f5f5;fontColor=#333333;strokeColor=#666666;" parent="1" vertex="1">
          <mxGeometry x="1060" y="3855" width="250" height="30" as="geometry" />
        </mxCell>
        <mxCell id="nqIc30WBPKle0FcAkf76-137" value="" style="curved=1;endArrow=classic;html=1;rounded=0;exitX=1;exitY=1;exitDx=0;exitDy=0;entryX=0;entryY=0.5;entryDx=0;entryDy=0;strokeWidth=3;" parent="1" source="nqIc30WBPKle0FcAkf76-87" target="nqIc30WBPKle0FcAkf76-136" edge="1">
          <mxGeometry width="50" height="50" relative="1" as="geometry">
            <mxPoint x="810" y="3800" as="sourcePoint" />
            <mxPoint x="860" y="3750" as="targetPoint" />
            <Array as="points">
              <mxPoint x="750" y="4020" />
              <mxPoint x="840" y="3894.3" />
              <mxPoint x="980" y="3834.3" />
            </Array>
          </mxGeometry>
        </mxCell>
        <mxCell id="nqIc30WBPKle0FcAkf76-138" value="&lt;font style=&quot;font-size: 14px;&quot;&gt;i=0&lt;/font&gt;" style="edgeLabel;html=1;align=center;verticalAlign=middle;resizable=0;points=[];" parent="nqIc30WBPKle0FcAkf76-137" vertex="1" connectable="0">
          <mxGeometry x="-0.0185" y="-1" relative="1" as="geometry">
            <mxPoint x="8" y="1" as="offset" />
          </mxGeometry>
        </mxCell>
        <mxCell id="nqIc30WBPKle0FcAkf76-139" value="i=1 ==&amp;gt;&amp;nbsp;A_smem_idx = 32*3+8 ~ 32*3+15" style="rounded=0;whiteSpace=wrap;html=1;fillColor=#fff2cc;strokeColor=#d6b656;" parent="1" vertex="1">
          <mxGeometry x="1060" y="3885" width="250" height="30" as="geometry" />
        </mxCell>
        <mxCell id="nqIc30WBPKle0FcAkf76-140" value="i=2 ==&amp;gt;&amp;nbsp;A_smem_idx = 32*3+16 ~ 32*3+23" style="rounded=0;whiteSpace=wrap;html=1;fillColor=#fff2cc;strokeColor=#d6b656;" parent="1" vertex="1">
          <mxGeometry x="1060" y="3915" width="250" height="30" as="geometry" />
        </mxCell>
        <mxCell id="nqIc30WBPKle0FcAkf76-141" value="i=3 ==&amp;gt;&amp;nbsp;A_smem_idx = 32*3+24 ~ 32*3+31" style="rounded=0;whiteSpace=wrap;html=1;fillColor=#fff2cc;strokeColor=#d6b656;" parent="1" vertex="1">
          <mxGeometry x="1060" y="3945" width="250" height="30" as="geometry" />
        </mxCell>
        <mxCell id="nqIc30WBPKle0FcAkf76-142" value="for(size_t i=0; i&amp;lt;A_smem_iters; ++i)" style="rounded=1;whiteSpace=wrap;html=1;" parent="1" vertex="1">
          <mxGeometry x="840" y="3987.5" width="210" height="30" as="geometry" />
        </mxCell>
        <mxCell id="nqIc30WBPKle0FcAkf76-143" value="" style="shape=curlyBracket;whiteSpace=wrap;html=1;rounded=1;flipH=1;labelPosition=right;verticalLabelPosition=middle;align=left;verticalAlign=middle;rotation=-90;" parent="1" vertex="1">
          <mxGeometry x="1175" y="3360" width="20" height="250" as="geometry" />
        </mxCell>
        <mxCell id="nqIc30WBPKle0FcAkf76-144" value="32*half" style="text;html=1;align=center;verticalAlign=middle;resizable=0;points=[];autosize=1;strokeColor=none;fillColor=none;" parent="1" vertex="1">
          <mxGeometry x="1155" y="3455" width="60" height="30" as="geometry" />
        </mxCell>
        <mxCell id="nqIc30WBPKle0FcAkf76-145" value="" style="shape=curlyBracket;whiteSpace=wrap;html=1;rounded=1;flipH=1;labelPosition=right;verticalLabelPosition=middle;align=left;verticalAlign=middle;rotation=-180;" parent="1" vertex="1">
          <mxGeometry x="1040" y="3855" width="20" height="120" as="geometry" />
        </mxCell>
        <mxCell id="nqIc30WBPKle0FcAkf76-146" value="&lt;div&gt;warp_id=2&lt;br&gt;&lt;/div&gt;A_smem_idx = 32*2+0 ~ 32*2+31" style="rounded=0;whiteSpace=wrap;html=1;fillColor=#fff2cc;strokeColor=#d6b656;" parent="1" vertex="1">
          <mxGeometry x="1060" y="3735" width="250" height="120" as="geometry" />
        </mxCell>
        <mxCell id="nqIc30WBPKle0FcAkf76-147" value="&lt;div&gt;warp_id=1&lt;br&gt;&lt;/div&gt;A_smem_idx = 32*1+0 ~ 32*1+31" style="rounded=0;whiteSpace=wrap;html=1;fillColor=#fff2cc;strokeColor=#d6b656;" parent="1" vertex="1">
          <mxGeometry x="1060" y="3615" width="250" height="120" as="geometry" />
        </mxCell>
        <mxCell id="nqIc30WBPKle0FcAkf76-148" value="&lt;div&gt;warp_id=0&lt;/div&gt;A_smem_idx = 32*0+0 ~ 32*0+31" style="rounded=0;whiteSpace=wrap;html=1;fillColor=#fff2cc;strokeColor=#d6b656;" parent="1" vertex="1">
          <mxGeometry x="1060" y="3495" width="250" height="120" as="geometry" />
        </mxCell>
        <mxCell id="nqIc30WBPKle0FcAkf76-149" value="&lt;div&gt;warp_id=7&lt;/div&gt;A_smem_idx = 32*7+0 ~ 32*7+31" style="rounded=0;whiteSpace=wrap;html=1;fillColor=#fff2cc;strokeColor=#d6b656;" parent="1" vertex="1">
          <mxGeometry x="1060" y="4095" width="250" height="120" as="geometry" />
        </mxCell>
        <mxCell id="nqIc30WBPKle0FcAkf76-150" value="" style="shape=curlyBracket;whiteSpace=wrap;html=1;rounded=1;flipH=1;labelPosition=right;verticalLabelPosition=middle;align=left;verticalAlign=middle;" parent="1" vertex="1">
          <mxGeometry x="1310" y="3495.12" width="20" height="120" as="geometry" />
        </mxCell>
        <mxCell id="nqIc30WBPKle0FcAkf76-151" value="32" style="text;html=1;align=center;verticalAlign=middle;resizable=0;points=[];autosize=1;strokeColor=none;fillColor=none;" parent="1" vertex="1">
          <mxGeometry x="1320" y="3540.12" width="40" height="30" as="geometry" />
        </mxCell>
        <mxCell id="nqIc30WBPKle0FcAkf76-152" value="...&lt;div&gt;&lt;/div&gt;" style="rounded=0;whiteSpace=wrap;html=1;fillColor=#fff2cc;strokeColor=#d6b656;" parent="1" vertex="1">
          <mxGeometry x="1060" y="3975" width="250" height="120" as="geometry" />
        </mxCell>
        <mxCell id="nqIc30WBPKle0FcAkf76-153" value="&lt;font style=&quot;font-size: 25px;&quot;&gt;B&lt;/font&gt;&lt;div&gt;&lt;/div&gt;" style="rounded=0;whiteSpace=wrap;html=1;fillColor=#d5e8d4;strokeColor=#82b366;" parent="1" vertex="1">
          <mxGeometry x="1060" y="4215" width="250" height="120" as="geometry" />
        </mxCell>
        <mxCell id="nqIc30WBPKle0FcAkf76-154" value="" style="edgeStyle=elbowEdgeStyle;elbow=vertical;endArrow=classic;html=1;curved=0;rounded=0;endSize=8;startSize=8;exitX=0.1;exitY=0.5;exitDx=0;exitDy=0;exitPerimeter=0;entryX=0.5;entryY=0;entryDx=0;entryDy=0;" parent="1" source="nqIc30WBPKle0FcAkf76-145" target="nqIc30WBPKle0FcAkf76-142" edge="1">
          <mxGeometry width="50" height="50" relative="1" as="geometry">
            <mxPoint x="850" y="4215" as="sourcePoint" />
            <mxPoint x="950" y="3985" as="targetPoint" />
            <Array as="points">
              <mxPoint x="1000" y="3915" />
            </Array>
          </mxGeometry>
        </mxCell>
        <mxCell id="nqIc30WBPKle0FcAkf76-155" value="warp_id=3" style="edgeLabel;html=1;align=center;verticalAlign=middle;resizable=0;points=[];" parent="nqIc30WBPKle0FcAkf76-154" vertex="1" connectable="0">
          <mxGeometry x="0.4733" y="3" relative="1" as="geometry">
            <mxPoint as="offset" />
          </mxGeometry>
        </mxCell>
        <mxCell id="nqIc30WBPKle0FcAkf76-158" value="" style="rounded=0;whiteSpace=wrap;html=1;" parent="1" vertex="1">
          <mxGeometry x="-755" y="3438.19" width="280" height="80" as="geometry" />
        </mxCell>
        <mxCell id="nqIc30WBPKle0FcAkf76-159" value="" style="rounded=0;whiteSpace=wrap;html=1;fillColor=#ffcccc;strokeColor=#36393d;" parent="1" vertex="1">
          <mxGeometry x="-30" y="3427.5" width="40" height="40" as="geometry" />
        </mxCell>
        <mxCell id="nqIc30WBPKle0FcAkf76-160" value="" style="rounded=0;whiteSpace=wrap;html=1;fillColor=#e1d5e7;strokeColor=#9673a6;" parent="1" vertex="1">
          <mxGeometry x="10" y="3427.5" width="40" height="40" as="geometry" />
        </mxCell>
        <mxCell id="nqIc30WBPKle0FcAkf76-161" value="&lt;span style=&quot;text-wrap: nowrap;&quot;&gt;&lt;b style=&quot;&quot;&gt;tile_k&lt;/b&gt;&lt;/span&gt;" style="rounded=1;whiteSpace=wrap;html=1;" parent="1" vertex="1">
          <mxGeometry x="-33.17" y="3392.5" width="40" height="20" as="geometry" />
        </mxCell>
        <mxCell id="nqIc30WBPKle0FcAkf76-162" value="&lt;span style=&quot;text-wrap: nowrap;&quot;&gt;&lt;b style=&quot;&quot;&gt;tile_k+1&lt;/b&gt;&lt;/span&gt;" style="rounded=1;whiteSpace=wrap;html=1;" parent="1" vertex="1">
          <mxGeometry x="13.990000000000009" y="3392.5" width="50" height="20" as="geometry" />
        </mxCell>
        <mxCell id="nqIc30WBPKle0FcAkf76-163" value="" style="endArrow=classic;html=1;rounded=0;exitX=0.5;exitY=0;exitDx=0;exitDy=0;entryX=0.5;entryY=1;entryDx=0;entryDy=0;" parent="1" source="nqIc30WBPKle0FcAkf76-159" target="nqIc30WBPKle0FcAkf76-161" edge="1">
          <mxGeometry width="50" height="50" relative="1" as="geometry">
            <mxPoint x="-10" y="3427.5" as="sourcePoint" />
            <mxPoint x="60" y="3372.96" as="targetPoint" />
          </mxGeometry>
        </mxCell>
        <mxCell id="nqIc30WBPKle0FcAkf76-164" value="" style="endArrow=classic;html=1;rounded=0;exitX=0.5;exitY=0;exitDx=0;exitDy=0;entryX=0.5;entryY=1;entryDx=0;entryDy=0;" parent="1" source="nqIc30WBPKle0FcAkf76-160" target="nqIc30WBPKle0FcAkf76-162" edge="1">
          <mxGeometry width="50" height="50" relative="1" as="geometry">
            <mxPoint x="30" y="3427.5" as="sourcePoint" />
            <mxPoint y="3412.5" as="targetPoint" />
          </mxGeometry>
        </mxCell>
        <mxCell id="nqIc30WBPKle0FcAkf76-165" value="" style="rounded=0;whiteSpace=wrap;html=1;fillColor=#ffff88;strokeColor=#36393d;" parent="1" vertex="1">
          <mxGeometry x="-755" y="3598.19" width="280" height="80" as="geometry" />
        </mxCell>
        <mxCell id="nqIc30WBPKle0FcAkf76-166" value="..." style="rounded=0;whiteSpace=wrap;html=1;" parent="1" vertex="1">
          <mxGeometry x="-755" y="3678.19" width="280" height="80" as="geometry" />
        </mxCell>
        <mxCell id="nqIc30WBPKle0FcAkf76-167" value="" style="shape=curlyBracket;whiteSpace=wrap;html=1;rounded=1;labelPosition=left;verticalLabelPosition=middle;align=right;verticalAlign=middle;rotation=-180;" parent="1" vertex="1">
          <mxGeometry x="-475" y="3438.19" width="20" height="80" as="geometry" />
        </mxCell>
        <mxCell id="nqIc30WBPKle0FcAkf76-168" value="256" style="text;html=1;align=center;verticalAlign=middle;resizable=0;points=[];autosize=1;strokeColor=none;fillColor=none;" parent="1" vertex="1">
          <mxGeometry x="-465" y="3473.19" width="40" height="30" as="geometry" />
        </mxCell>
        <mxCell id="nqIc30WBPKle0FcAkf76-169" value="256" style="text;html=1;align=center;verticalAlign=middle;resizable=0;points=[];autosize=1;strokeColor=none;fillColor=none;" parent="1" vertex="1">
          <mxGeometry x="-460" y="3623.19" width="40" height="30" as="geometry" />
        </mxCell>
        <mxCell id="nqIc30WBPKle0FcAkf76-170" value="" style="curved=1;endArrow=classic;html=1;rounded=0;entryX=0;entryY=0.5;entryDx=0;entryDy=0;exitX=1;exitY=0.5;exitDx=0;exitDy=0;" parent="1" source="nqIc30WBPKle0FcAkf76-165" target="nqIc30WBPKle0FcAkf76-2" edge="1">
          <mxGeometry width="50" height="50" relative="1" as="geometry">
            <mxPoint x="-330" y="3470" as="sourcePoint" />
            <mxPoint x="-280" y="3420" as="targetPoint" />
            <Array as="points">
              <mxPoint x="-440" y="3570" />
              <mxPoint x="-380" y="3550" />
            </Array>
          </mxGeometry>
        </mxCell>
        <mxCell id="nqIc30WBPKle0FcAkf76-171" value="&lt;font style=&quot;font-size: 19px;&quot;&gt;M&lt;/font&gt;" style="text;html=1;align=center;verticalAlign=middle;resizable=0;points=[];autosize=1;strokeColor=none;fillColor=none;" parent="1" vertex="1">
          <mxGeometry x="-810" y="3577.5" width="40" height="40" as="geometry" />
        </mxCell>
        <mxCell id="nqIc30WBPKle0FcAkf76-172" value="" style="shape=curlyBracket;whiteSpace=wrap;html=1;rounded=1;flipH=1;labelPosition=right;verticalLabelPosition=middle;align=left;verticalAlign=middle;rotation=90;" parent="1" vertex="1">
          <mxGeometry x="-625" y="3628.19" width="20" height="280" as="geometry" />
        </mxCell>
        <mxCell id="nqIc30WBPKle0FcAkf76-173" value="&lt;font style=&quot;font-size: 19px;&quot;&gt;K&lt;/font&gt;" style="text;html=1;align=center;verticalAlign=middle;resizable=0;points=[];autosize=1;strokeColor=none;fillColor=none;" parent="1" vertex="1">
          <mxGeometry x="-635" y="3770" width="40" height="40" as="geometry" />
        </mxCell>
        <mxCell id="nqIc30WBPKle0FcAkf76-174" value="" style="shape=curlyBracket;whiteSpace=wrap;html=1;rounded=1;labelPosition=left;verticalLabelPosition=middle;align=right;verticalAlign=middle;" parent="1" vertex="1">
          <mxGeometry x="-775" y="3438.19" width="20" height="320" as="geometry" />
        </mxCell>
        <mxCell id="nqIc30WBPKle0FcAkf76-175" style="edgeStyle=orthogonalEdgeStyle;rounded=0;orthogonalLoop=1;jettySize=auto;html=1;" parent="1" source="nqIc30WBPKle0FcAkf76-176" target="nqIc30WBPKle0FcAkf76-158" edge="1">
          <mxGeometry relative="1" as="geometry" />
        </mxCell>
        <mxCell id="nqIc30WBPKle0FcAkf76-176" value="&lt;font style=&quot;font-size: 17px;&quot;&gt;A.shape=(M,K)&lt;/font&gt;" style="rounded=1;whiteSpace=wrap;html=1;" parent="1" vertex="1">
          <mxGeometry x="-675" y="3358.19" width="120" height="35" as="geometry" />
        </mxCell>
        <mxCell id="nqIc30WBPKle0FcAkf76-177" value="&lt;span style=&quot;text-wrap: nowrap;&quot;&gt;block_tile_i*MMA_N*K&lt;/span&gt;" style="rounded=1;whiteSpace=wrap;html=1;" parent="1" vertex="1">
          <mxGeometry x="-741" y="3523.19" width="136" height="35" as="geometry" />
        </mxCell>
        <mxCell id="nqIc30WBPKle0FcAkf76-178" value="" style="whiteSpace=wrap;html=1;aspect=fixed;fillColor=#d5e8d4;strokeColor=#82b366;" parent="1" vertex="1">
          <mxGeometry x="-755" y="3598.19" width="10" height="10" as="geometry" />
        </mxCell>
        <mxCell id="nqIc30WBPKle0FcAkf76-179" value="" style="endArrow=classic;html=1;rounded=0;entryX=0.5;entryY=1;entryDx=0;entryDy=0;exitX=0.75;exitY=0;exitDx=0;exitDy=0;" parent="1" source="nqIc30WBPKle0FcAkf76-178" target="nqIc30WBPKle0FcAkf76-177" edge="1">
          <mxGeometry width="50" height="50" relative="1" as="geometry">
            <mxPoint x="-745" y="3668.19" as="sourcePoint" />
            <mxPoint x="-495" y="3758.19" as="targetPoint" />
          </mxGeometry>
        </mxCell>
        <mxCell id="nqIc30WBPKle0FcAkf76-180" value="" style="rounded=0;whiteSpace=wrap;html=1;fillColor=#ffcccc;strokeColor=#36393d;" parent="1" vertex="1">
          <mxGeometry x="-590" y="3598.19" width="20" height="80" as="geometry" />
        </mxCell>
        <mxCell id="nqIc30WBPKle0FcAkf76-181" value="" style="rounded=0;whiteSpace=wrap;html=1;fillColor=#e1d5e7;strokeColor=#9673a6;" parent="1" vertex="1">
          <mxGeometry x="-570" y="3598.19" width="20" height="80" as="geometry" />
        </mxCell>
        <mxCell id="nqIc30WBPKle0FcAkf76-182" value="&lt;span style=&quot;text-wrap: nowrap;&quot;&gt;&lt;b style=&quot;&quot;&gt;tile_k&lt;/b&gt;&lt;/span&gt;" style="rounded=1;whiteSpace=wrap;html=1;" parent="1" vertex="1">
          <mxGeometry x="-610" y="3563.19" width="40" height="20" as="geometry" />
        </mxCell>
        <mxCell id="nqIc30WBPKle0FcAkf76-183" value="&lt;span style=&quot;text-wrap: nowrap;&quot;&gt;&lt;b style=&quot;&quot;&gt;tile_k+1&lt;/b&gt;&lt;/span&gt;" style="rounded=1;whiteSpace=wrap;html=1;" parent="1" vertex="1">
          <mxGeometry x="-570" y="3563.19" width="50" height="20" as="geometry" />
        </mxCell>
        <mxCell id="nqIc30WBPKle0FcAkf76-184" value="" style="endArrow=classic;html=1;rounded=0;entryX=0.5;entryY=1;entryDx=0;entryDy=0;" parent="1" source="nqIc30WBPKle0FcAkf76-180" target="nqIc30WBPKle0FcAkf76-182" edge="1">
          <mxGeometry width="50" height="50" relative="1" as="geometry">
            <mxPoint x="-400" y="3699.19" as="sourcePoint" />
            <mxPoint x="-350" y="3649.19" as="targetPoint" />
          </mxGeometry>
        </mxCell>
        <mxCell id="nqIc30WBPKle0FcAkf76-185" value="" style="endArrow=classic;html=1;rounded=0;exitX=0.5;exitY=0;exitDx=0;exitDy=0;entryX=0.5;entryY=1;entryDx=0;entryDy=0;" parent="1" source="nqIc30WBPKle0FcAkf76-181" target="nqIc30WBPKle0FcAkf76-183" edge="1">
          <mxGeometry width="50" height="50" relative="1" as="geometry">
            <mxPoint x="-570" y="3589.19" as="sourcePoint" />
            <mxPoint x="-475" y="3349.19" as="targetPoint" />
          </mxGeometry>
        </mxCell>
        <mxCell id="nqIc30WBPKle0FcAkf76-186" value="" style="shape=curlyBracket;whiteSpace=wrap;html=1;rounded=1;labelPosition=left;verticalLabelPosition=middle;align=right;verticalAlign=middle;rotation=-180;" parent="1" vertex="1">
          <mxGeometry x="-476" y="3598.19" width="20" height="80" as="geometry" />
        </mxCell>
        <mxCell id="nqIc30WBPKle0FcAkf76-187" value="" style="rounded=0;whiteSpace=wrap;html=1;fillColor=#ffcccc;strokeColor=#36393d;" parent="1" vertex="1">
          <mxGeometry x="-30" y="3467.5" width="40" height="40" as="geometry" />
        </mxCell>
        <mxCell id="nqIc30WBPKle0FcAkf76-188" value="" style="rounded=0;whiteSpace=wrap;html=1;fillColor=#ffcccc;strokeColor=#36393d;" parent="1" vertex="1">
          <mxGeometry x="-30" y="3507.5" width="40" height="40" as="geometry" />
        </mxCell>
        <mxCell id="nqIc30WBPKle0FcAkf76-189" value="" style="rounded=0;whiteSpace=wrap;html=1;fillColor=#ffcccc;strokeColor=#36393d;" parent="1" vertex="1">
          <mxGeometry x="-30" y="3547.5" width="40" height="40" as="geometry" />
        </mxCell>
        <mxCell id="nqIc30WBPKle0FcAkf76-190" value="" style="rounded=0;whiteSpace=wrap;html=1;fillColor=#ffcccc;strokeColor=#36393d;" parent="1" vertex="1">
          <mxGeometry x="-30" y="3587.5" width="40" height="40" as="geometry" />
        </mxCell>
        <mxCell id="nqIc30WBPKle0FcAkf76-191" value="" style="rounded=0;whiteSpace=wrap;html=1;fillColor=#ffcccc;strokeColor=#36393d;" parent="1" vertex="1">
          <mxGeometry x="-30" y="3627.5" width="40" height="40" as="geometry" />
        </mxCell>
        <mxCell id="nqIc30WBPKle0FcAkf76-192" value="" style="rounded=0;whiteSpace=wrap;html=1;fillColor=#ffcccc;strokeColor=#36393d;" parent="1" vertex="1">
          <mxGeometry x="-30" y="3667.5" width="40" height="40" as="geometry" />
        </mxCell>
        <mxCell id="nqIc30WBPKle0FcAkf76-193" value="" style="rounded=0;whiteSpace=wrap;html=1;fillColor=#ffcccc;strokeColor=#36393d;" parent="1" vertex="1">
          <mxGeometry x="-30" y="3707.5" width="40" height="40" as="geometry" />
        </mxCell>
        <mxCell id="nqIc30WBPKle0FcAkf76-194" value="" style="rounded=0;whiteSpace=wrap;html=1;fillColor=#e1d5e7;strokeColor=#9673a6;" parent="1" vertex="1">
          <mxGeometry x="10" y="3467.5" width="40" height="40" as="geometry" />
        </mxCell>
        <mxCell id="nqIc30WBPKle0FcAkf76-195" value="" style="rounded=0;whiteSpace=wrap;html=1;fillColor=#e1d5e7;strokeColor=#9673a6;" parent="1" vertex="1">
          <mxGeometry x="10" y="3507.5" width="40" height="40" as="geometry" />
        </mxCell>
        <mxCell id="nqIc30WBPKle0FcAkf76-196" value="" style="rounded=0;whiteSpace=wrap;html=1;fillColor=#e1d5e7;strokeColor=#9673a6;" parent="1" vertex="1">
          <mxGeometry x="10" y="3547.5" width="40" height="40" as="geometry" />
        </mxCell>
        <mxCell id="nqIc30WBPKle0FcAkf76-197" value="" style="rounded=0;whiteSpace=wrap;html=1;fillColor=#e1d5e7;strokeColor=#9673a6;" parent="1" vertex="1">
          <mxGeometry x="10" y="3587.5" width="40" height="40" as="geometry" />
        </mxCell>
        <mxCell id="nqIc30WBPKle0FcAkf76-198" value="" style="rounded=0;whiteSpace=wrap;html=1;fillColor=#e1d5e7;strokeColor=#9673a6;" parent="1" vertex="1">
          <mxGeometry x="10" y="3627.5" width="40" height="40" as="geometry" />
        </mxCell>
        <mxCell id="nqIc30WBPKle0FcAkf76-199" value="" style="rounded=0;whiteSpace=wrap;html=1;fillColor=#e1d5e7;strokeColor=#9673a6;" parent="1" vertex="1">
          <mxGeometry x="10" y="3667.5" width="40" height="40" as="geometry" />
        </mxCell>
        <mxCell id="nqIc30WBPKle0FcAkf76-200" value="" style="rounded=0;whiteSpace=wrap;html=1;fillColor=#e1d5e7;strokeColor=#9673a6;" parent="1" vertex="1">
          <mxGeometry x="10" y="3707.5" width="40" height="40" as="geometry" />
        </mxCell>
        <mxCell id="nqIc30WBPKle0FcAkf76-201" value="" style="shape=curlyBracket;whiteSpace=wrap;html=1;rounded=1;flipH=1;labelPosition=right;verticalLabelPosition=middle;align=left;verticalAlign=middle;" parent="1" vertex="1">
          <mxGeometry x="1310" y="4215" width="20" height="120" as="geometry" />
        </mxCell>
        <mxCell id="nqIc30WBPKle0FcAkf76-202" value="128" style="text;html=1;align=center;verticalAlign=middle;resizable=0;points=[];autosize=1;strokeColor=none;fillColor=none;" parent="1" vertex="1">
          <mxGeometry x="1330" y="4260" width="40" height="30" as="geometry" />
        </mxCell>
        <mxCell id="nqIc30WBPKle0FcAkf76-203" value="" style="curved=1;endArrow=classic;html=1;rounded=0;exitX=0.933;exitY=0.187;exitDx=0;exitDy=0;exitPerimeter=0;entryX=0.5;entryY=0;entryDx=0;entryDy=0;" parent="1" source="nqIc30WBPKle0FcAkf76-122" target="nqIc30WBPKle0FcAkf76-114" edge="1">
          <mxGeometry width="50" height="50" relative="1" as="geometry">
            <mxPoint x="360" y="3274.3" as="sourcePoint" />
            <mxPoint x="410" y="3224.3" as="targetPoint" />
            <Array as="points">
              <mxPoint x="410" y="3314.3" />
              <mxPoint x="290" y="3314.3" />
            </Array>
          </mxGeometry>
        </mxCell>
        <mxCell id="nqIc30WBPKle0FcAkf76-206" value="&lt;div style=&quot;text-align: left;&quot;&gt;&lt;span style=&quot;text-wrap: nowrap;&quot;&gt;&lt;font color=&quot;#ff0000&quot; style=&quot;font-size: 20px;&quot;&gt;&lt;b&gt;different from mma_base.cu&lt;/b&gt;&lt;/font&gt;&lt;/span&gt;&lt;/div&gt;" style="rounded=1;whiteSpace=wrap;html=1;fillColor=#e3c800;fontColor=#000000;strokeColor=#B09500;" parent="1" vertex="1">
          <mxGeometry x="-734.31" y="3972.5" width="300" height="60" as="geometry" />
        </mxCell>
        <mxCell id="nqIc30WBPKle0FcAkf76-249" value="" style="rounded=1;whiteSpace=wrap;html=1;dashed=1;fillColor=#ffe6cc;strokeColor=#d79b00;rotation=90;" parent="1" vertex="1">
          <mxGeometry x="-394.46" y="3889.93" width="218.75" height="620.13" as="geometry" />
        </mxCell>
        <mxCell id="nqIc30WBPKle0FcAkf76-293" style="edgeStyle=orthogonalEdgeStyle;rounded=0;orthogonalLoop=1;jettySize=auto;html=1;" parent="1" source="nqIc30WBPKle0FcAkf76-250" target="nqIc30WBPKle0FcAkf76-287" edge="1">
          <mxGeometry relative="1" as="geometry" />
        </mxCell>
        <mxCell id="nqIc30WBPKle0FcAkf76-250" value="lane_id=0" style="rounded=0;whiteSpace=wrap;html=1;fillColor=#60a917;fontColor=#ffffff;strokeColor=#2D7600;" parent="1" vertex="1">
          <mxGeometry x="-571.56" y="4154.99" width="70" height="30" as="geometry" />
        </mxCell>
        <mxCell id="nqIc30WBPKle0FcAkf76-251" value="lane_id=1" style="rounded=0;whiteSpace=wrap;html=1;fillColor=#1ba1e2;fontColor=#ffffff;strokeColor=#006EAF;" parent="1" vertex="1">
          <mxGeometry x="-501.55999999999995" y="4154.99" width="70" height="30" as="geometry" />
        </mxCell>
        <mxCell id="nqIc30WBPKle0FcAkf76-302" style="edgeStyle=orthogonalEdgeStyle;rounded=0;orthogonalLoop=1;jettySize=auto;html=1;entryX=0.5;entryY=1;entryDx=0;entryDy=0;" parent="1" source="nqIc30WBPKle0FcAkf76-252" target="nqIc30WBPKle0FcAkf76-301" edge="1">
          <mxGeometry relative="1" as="geometry" />
        </mxCell>
        <mxCell id="nqIc30WBPKle0FcAkf76-252" value="lane_id=2" style="rounded=0;whiteSpace=wrap;html=1;fillColor=#6a00ff;fontColor=#ffffff;strokeColor=#3700CC;" parent="1" vertex="1">
          <mxGeometry x="-431.56" y="4154.99" width="70" height="30" as="geometry" />
        </mxCell>
        <mxCell id="nqIc30WBPKle0FcAkf76-300" style="edgeStyle=orthogonalEdgeStyle;rounded=0;orthogonalLoop=1;jettySize=auto;html=1;" parent="1" source="nqIc30WBPKle0FcAkf76-253" target="nqIc30WBPKle0FcAkf76-291" edge="1">
          <mxGeometry relative="1" as="geometry" />
        </mxCell>
        <mxCell id="nqIc30WBPKle0FcAkf76-253" value="lane_id=3" style="rounded=0;whiteSpace=wrap;html=1;fillColor=#d80073;fontColor=#ffffff;strokeColor=#A50040;" parent="1" vertex="1">
          <mxGeometry x="-361.56" y="4154.99" width="70" height="30" as="geometry" />
        </mxCell>
        <mxCell id="nqIc30WBPKle0FcAkf76-304" style="edgeStyle=orthogonalEdgeStyle;rounded=0;orthogonalLoop=1;jettySize=auto;html=1;entryX=0.5;entryY=1;entryDx=0;entryDy=0;" parent="1" source="nqIc30WBPKle0FcAkf76-254" target="nqIc30WBPKle0FcAkf76-303" edge="1">
          <mxGeometry relative="1" as="geometry" />
        </mxCell>
        <mxCell id="nqIc30WBPKle0FcAkf76-254" value="lane_id=4" style="rounded=0;whiteSpace=wrap;html=1;fillColor=#60a917;fontColor=#ffffff;strokeColor=#2D7600;" parent="1" vertex="1">
          <mxGeometry x="-291.56" y="4154.99" width="70" height="30" as="geometry" />
        </mxCell>
        <mxCell id="nqIc30WBPKle0FcAkf76-307" style="edgeStyle=orthogonalEdgeStyle;rounded=0;orthogonalLoop=1;jettySize=auto;html=1;entryX=0.5;entryY=1;entryDx=0;entryDy=0;" parent="1" source="nqIc30WBPKle0FcAkf76-255" target="nqIc30WBPKle0FcAkf76-306" edge="1">
          <mxGeometry relative="1" as="geometry" />
        </mxCell>
        <mxCell id="nqIc30WBPKle0FcAkf76-255" value="lane_id=5" style="rounded=0;whiteSpace=wrap;html=1;fillColor=#1ba1e2;fontColor=#ffffff;strokeColor=#006EAF;" parent="1" vertex="1">
          <mxGeometry x="-221.56000000000003" y="4154.99" width="70" height="30" as="geometry" />
        </mxCell>
        <mxCell id="nqIc30WBPKle0FcAkf76-310" style="edgeStyle=orthogonalEdgeStyle;rounded=0;orthogonalLoop=1;jettySize=auto;html=1;entryX=0.5;entryY=1;entryDx=0;entryDy=0;" parent="1" source="nqIc30WBPKle0FcAkf76-256" target="nqIc30WBPKle0FcAkf76-308" edge="1">
          <mxGeometry relative="1" as="geometry" />
        </mxCell>
        <mxCell id="nqIc30WBPKle0FcAkf76-256" value="lane_id=6" style="rounded=0;whiteSpace=wrap;html=1;fillColor=#6a00ff;fontColor=#ffffff;strokeColor=#3700CC;" parent="1" vertex="1">
          <mxGeometry x="-151.56000000000003" y="4154.99" width="70" height="30" as="geometry" />
        </mxCell>
        <mxCell id="nqIc30WBPKle0FcAkf76-311" style="edgeStyle=orthogonalEdgeStyle;rounded=0;orthogonalLoop=1;jettySize=auto;html=1;entryX=0.5;entryY=1;entryDx=0;entryDy=0;" parent="1" source="nqIc30WBPKle0FcAkf76-257" target="nqIc30WBPKle0FcAkf76-309" edge="1">
          <mxGeometry relative="1" as="geometry" />
        </mxCell>
        <mxCell id="nqIc30WBPKle0FcAkf76-257" value="lane_id=7" style="rounded=0;whiteSpace=wrap;html=1;fillColor=#d80073;fontColor=#ffffff;strokeColor=#A50040;" parent="1" vertex="1">
          <mxGeometry x="-81.56" y="4154.99" width="70" height="30" as="geometry" />
        </mxCell>
        <mxCell id="nqIc30WBPKle0FcAkf76-258" value="lane_id=8" style="rounded=0;whiteSpace=wrap;html=1;fillColor=#60a917;fontColor=#ffffff;strokeColor=#2D7600;" parent="1" vertex="1">
          <mxGeometry x="-501.55999999999995" y="4184.99" width="70" height="30" as="geometry" />
        </mxCell>
        <mxCell id="nqIc30WBPKle0FcAkf76-259" value="lane_id=9" style="rounded=0;whiteSpace=wrap;html=1;fillColor=#1ba1e2;fontColor=#ffffff;strokeColor=#006EAF;" parent="1" vertex="1">
          <mxGeometry x="-431.56" y="4184.99" width="70" height="30" as="geometry" />
        </mxCell>
        <mxCell id="nqIc30WBPKle0FcAkf76-260" value="lane_id=10" style="rounded=0;whiteSpace=wrap;html=1;fillColor=#6a00ff;fontColor=#ffffff;strokeColor=#3700CC;" parent="1" vertex="1">
          <mxGeometry x="-361.56" y="4184.99" width="70" height="30" as="geometry" />
        </mxCell>
        <mxCell id="nqIc30WBPKle0FcAkf76-261" value="lane_id=15" style="rounded=0;whiteSpace=wrap;html=1;fillColor=#d80073;fontColor=#ffffff;strokeColor=#A50040;" parent="1" vertex="1">
          <mxGeometry x="-291.56" y="4184.99" width="70" height="30" as="geometry" />
        </mxCell>
        <mxCell id="nqIc30WBPKle0FcAkf76-262" value="lane_id=12" style="rounded=0;whiteSpace=wrap;html=1;fillColor=#60a917;fontColor=#ffffff;strokeColor=#2D7600;" parent="1" vertex="1">
          <mxGeometry x="-221.56000000000003" y="4184.99" width="70" height="30" as="geometry" />
        </mxCell>
        <mxCell id="nqIc30WBPKle0FcAkf76-263" value="lane_id=13" style="rounded=0;whiteSpace=wrap;html=1;fillColor=#1ba1e2;fontColor=#ffffff;strokeColor=#006EAF;" parent="1" vertex="1">
          <mxGeometry x="-151.56000000000003" y="4184.99" width="70" height="30" as="geometry" />
        </mxCell>
        <mxCell id="nqIc30WBPKle0FcAkf76-264" value="lane_id=14" style="rounded=0;whiteSpace=wrap;html=1;fillColor=#6a00ff;fontColor=#ffffff;strokeColor=#3700CC;" parent="1" vertex="1">
          <mxGeometry x="-81.56" y="4184.99" width="70" height="30" as="geometry" />
        </mxCell>
        <mxCell id="nqIc30WBPKle0FcAkf76-265" value="lane_id=11" style="rounded=0;whiteSpace=wrap;html=1;fillColor=#d80073;fontColor=#ffffff;strokeColor=#A50040;" parent="1" vertex="1">
          <mxGeometry x="-571.56" y="4184.99" width="70" height="30" as="geometry" />
        </mxCell>
        <mxCell id="nqIc30WBPKle0FcAkf76-266" value="lane_id=16" style="rounded=0;whiteSpace=wrap;html=1;fillColor=#60a917;fontColor=#ffffff;strokeColor=#2D7600;" parent="1" vertex="1">
          <mxGeometry x="-431.56" y="4214.99" width="70" height="30" as="geometry" />
        </mxCell>
        <mxCell id="nqIc30WBPKle0FcAkf76-267" value="lane_id=17" style="rounded=0;whiteSpace=wrap;html=1;fillColor=#1ba1e2;fontColor=#ffffff;strokeColor=#006EAF;" parent="1" vertex="1">
          <mxGeometry x="-361.56" y="4214.99" width="70" height="30" as="geometry" />
        </mxCell>
        <mxCell id="nqIc30WBPKle0FcAkf76-268" value="lane_id=22" style="rounded=0;whiteSpace=wrap;html=1;fillColor=#6a00ff;fontColor=#ffffff;strokeColor=#3700CC;" parent="1" vertex="1">
          <mxGeometry x="-291.56" y="4214.99" width="70" height="30" as="geometry" />
        </mxCell>
        <mxCell id="nqIc30WBPKle0FcAkf76-269" value="lane_id=23" style="rounded=0;whiteSpace=wrap;html=1;fillColor=#d80073;fontColor=#ffffff;strokeColor=#A50040;" parent="1" vertex="1">
          <mxGeometry x="-221.56000000000003" y="4214.99" width="70" height="30" as="geometry" />
        </mxCell>
        <mxCell id="nqIc30WBPKle0FcAkf76-270" value="lane_id=20" style="rounded=0;whiteSpace=wrap;html=1;fillColor=#60a917;fontColor=#ffffff;strokeColor=#2D7600;" parent="1" vertex="1">
          <mxGeometry x="-151.56000000000003" y="4214.99" width="70" height="30" as="geometry" />
        </mxCell>
        <mxCell id="nqIc30WBPKle0FcAkf76-271" value="lane_id=21" style="rounded=0;whiteSpace=wrap;html=1;fillColor=#1ba1e2;fontColor=#ffffff;strokeColor=#006EAF;" parent="1" vertex="1">
          <mxGeometry x="-81.56" y="4214.99" width="70" height="30" as="geometry" />
        </mxCell>
        <mxCell id="nqIc30WBPKle0FcAkf76-272" value="lane_id=18" style="rounded=0;whiteSpace=wrap;html=1;fillColor=#6a00ff;fontColor=#ffffff;strokeColor=#3700CC;" parent="1" vertex="1">
          <mxGeometry x="-571.56" y="4214.99" width="70" height="30" as="geometry" />
        </mxCell>
        <mxCell id="nqIc30WBPKle0FcAkf76-273" value="lane_id=19" style="rounded=0;whiteSpace=wrap;html=1;fillColor=#d80073;fontColor=#ffffff;strokeColor=#A50040;" parent="1" vertex="1">
          <mxGeometry x="-501.55999999999995" y="4214.99" width="70" height="30" as="geometry" />
        </mxCell>
        <mxCell id="nqIc30WBPKle0FcAkf76-274" value="lane_id=24" style="rounded=0;whiteSpace=wrap;html=1;fillColor=#60a917;fontColor=#ffffff;strokeColor=#2D7600;" parent="1" vertex="1">
          <mxGeometry x="-361.56" y="4244.99" width="70" height="30" as="geometry" />
        </mxCell>
        <mxCell id="nqIc30WBPKle0FcAkf76-275" value="lane_id=28" style="rounded=0;whiteSpace=wrap;html=1;fillColor=#1ba1e2;fontColor=#ffffff;strokeColor=#006EAF;" parent="1" vertex="1">
          <mxGeometry x="-291.56" y="4244.99" width="70" height="30" as="geometry" />
        </mxCell>
        <mxCell id="nqIc30WBPKle0FcAkf76-276" value="lane_id=29" style="rounded=0;whiteSpace=wrap;html=1;fillColor=#6a00ff;fontColor=#ffffff;strokeColor=#3700CC;" parent="1" vertex="1">
          <mxGeometry x="-221.56000000000003" y="4244.99" width="70" height="30" as="geometry" />
        </mxCell>
        <mxCell id="nqIc30WBPKle0FcAkf76-277" value="lane_id=30" style="rounded=0;whiteSpace=wrap;html=1;fillColor=#d80073;fontColor=#ffffff;strokeColor=#A50040;" parent="1" vertex="1">
          <mxGeometry x="-151.56000000000003" y="4244.99" width="70" height="30" as="geometry" />
        </mxCell>
        <mxCell id="nqIc30WBPKle0FcAkf76-278" value="lane_id=31" style="rounded=0;whiteSpace=wrap;html=1;fillColor=#60a917;fontColor=#ffffff;strokeColor=#2D7600;" parent="1" vertex="1">
          <mxGeometry x="-81.56" y="4244.99" width="70" height="30" as="geometry" />
        </mxCell>
        <mxCell id="nqIc30WBPKle0FcAkf76-279" value="lane_id=25" style="rounded=0;whiteSpace=wrap;html=1;fillColor=#1ba1e2;fontColor=#ffffff;strokeColor=#006EAF;" parent="1" vertex="1">
          <mxGeometry x="-571.56" y="4244.99" width="70" height="30" as="geometry" />
        </mxCell>
        <mxCell id="nqIc30WBPKle0FcAkf76-280" value="lane_id=26" style="rounded=0;whiteSpace=wrap;html=1;fillColor=#6a00ff;fontColor=#ffffff;strokeColor=#3700CC;" parent="1" vertex="1">
          <mxGeometry x="-501.55999999999995" y="4244.99" width="70" height="30" as="geometry" />
        </mxCell>
        <mxCell id="nqIc30WBPKle0FcAkf76-281" value="lane_id=27" style="rounded=0;whiteSpace=wrap;html=1;fillColor=#d80073;fontColor=#ffffff;strokeColor=#A50040;" parent="1" vertex="1">
          <mxGeometry x="-431.56" y="4244.99" width="70" height="30" as="geometry" />
        </mxCell>
        <mxCell id="nqIc30WBPKle0FcAkf76-286" value="" style="curved=1;endArrow=classic;html=1;rounded=0;exitX=1;exitY=0.5;exitDx=0;exitDy=0;" parent="1" source="nqIc30WBPKle0FcAkf76-206" target="nqIc30WBPKle0FcAkf76-249" edge="1">
          <mxGeometry width="50" height="50" relative="1" as="geometry">
            <mxPoint x="-250.52" y="3979.87" as="sourcePoint" />
            <mxPoint x="-188.5825" y="4028.8699999999994" as="targetPoint" />
            <Array as="points">
              <mxPoint x="-300" y="4000" />
            </Array>
          </mxGeometry>
        </mxCell>
        <mxCell id="nqIc30WBPKle0FcAkf76-287" value="bank 0~3" style="rounded=1;whiteSpace=wrap;html=1;" parent="1" vertex="1">
          <mxGeometry x="-566.56" y="4109.87" width="60" height="25" as="geometry" />
        </mxCell>
        <mxCell id="nqIc30WBPKle0FcAkf76-289" value="bank 4~7" style="rounded=1;whiteSpace=wrap;html=1;" parent="1" vertex="1">
          <mxGeometry x="-496.80999999999995" y="4109.87" width="62.5" height="25" as="geometry" />
        </mxCell>
        <mxCell id="nqIc30WBPKle0FcAkf76-291" value="bank 12~15" style="rounded=1;whiteSpace=wrap;html=1;" parent="1" vertex="1">
          <mxGeometry x="-360.31" y="4109.87" width="67.5" height="25" as="geometry" />
        </mxCell>
        <mxCell id="nqIc30WBPKle0FcAkf76-296" value="" style="endArrow=classic;html=1;rounded=0;exitX=0.5;exitY=0;exitDx=0;exitDy=0;entryX=0.5;entryY=1;entryDx=0;entryDy=0;" parent="1" target="nqIc30WBPKle0FcAkf76-289" edge="1">
          <mxGeometry width="50" height="50" relative="1" as="geometry">
            <mxPoint x="-465.56" y="4154.99" as="sourcePoint" />
            <mxPoint x="-462.56" y="4134.87" as="targetPoint" />
          </mxGeometry>
        </mxCell>
        <mxCell id="nqIc30WBPKle0FcAkf76-301" value="bank 8~11" style="rounded=1;whiteSpace=wrap;html=1;" parent="1" vertex="1">
          <mxGeometry x="-427.81" y="4109.87" width="62.5" height="25" as="geometry" />
        </mxCell>
        <mxCell id="nqIc30WBPKle0FcAkf76-303" value="bank 16~19" style="rounded=1;whiteSpace=wrap;html=1;" parent="1" vertex="1">
          <mxGeometry x="-290.31" y="4109.87" width="67.5" height="25" as="geometry" />
        </mxCell>
        <mxCell id="nqIc30WBPKle0FcAkf76-306" value="bank20-~23" style="rounded=1;whiteSpace=wrap;html=1;" parent="1" vertex="1">
          <mxGeometry x="-220.31000000000003" y="4109.87" width="67.5" height="25" as="geometry" />
        </mxCell>
        <mxCell id="nqIc30WBPKle0FcAkf76-308" value="bank24~27" style="rounded=1;whiteSpace=wrap;html=1;" parent="1" vertex="1">
          <mxGeometry x="-150.31000000000003" y="4109.87" width="67.5" height="25" as="geometry" />
        </mxCell>
        <mxCell id="nqIc30WBPKle0FcAkf76-309" value="bank28~31" style="rounded=1;whiteSpace=wrap;html=1;" parent="1" vertex="1">
          <mxGeometry x="-80.31" y="4109.87" width="67.5" height="25" as="geometry" />
        </mxCell>
        <mxCell id="nqIc30WBPKle0FcAkf76-314" value="" style="curved=1;endArrow=classic;html=1;rounded=0;entryX=1;entryY=0.5;entryDx=0;entryDy=0;exitX=0.1;exitY=0.5;exitDx=0;exitDy=0;exitPerimeter=0;" parent="1" source="nqIc30WBPKle0FcAkf76-315" target="nqIc30WBPKle0FcAkf76-257" edge="1">
          <mxGeometry width="50" height="50" relative="1" as="geometry">
            <mxPoint x="270" y="4110" as="sourcePoint" />
            <mxPoint x="250" y="4110" as="targetPoint" />
            <Array as="points">
              <mxPoint x="180" y="4010" />
              <mxPoint x="120" y="4150" />
            </Array>
          </mxGeometry>
        </mxCell>
        <mxCell id="nqIc30WBPKle0FcAkf76-315" value="" style="shape=curlyBracket;whiteSpace=wrap;html=1;rounded=1;labelPosition=left;verticalLabelPosition=middle;align=right;verticalAlign=middle;" parent="1" vertex="1">
          <mxGeometry x="379" y="3980" width="20" height="80" as="geometry" />
        </mxCell>
        <mxCell id="nqIc30WBPKle0FcAkf76-316" value="" style="shape=curlyBracket;whiteSpace=wrap;html=1;rounded=1;labelPosition=left;verticalLabelPosition=middle;align=right;verticalAlign=middle;" parent="1" vertex="1">
          <mxGeometry x="378.92" y="4140" width="20" height="80" as="geometry" />
        </mxCell>
        <mxCell id="nqIc30WBPKle0FcAkf76-319" value="" style="shape=curlyBracket;whiteSpace=wrap;html=1;rounded=1;labelPosition=left;verticalLabelPosition=middle;align=right;verticalAlign=middle;" parent="1" vertex="1">
          <mxGeometry x="378.92" y="4060" width="20" height="80" as="geometry" />
        </mxCell>
        <mxCell id="nqIc30WBPKle0FcAkf76-320" value="" style="shape=curlyBracket;whiteSpace=wrap;html=1;rounded=1;labelPosition=left;verticalLabelPosition=middle;align=right;verticalAlign=middle;" parent="1" vertex="1">
          <mxGeometry x="378.92" y="4220" width="20" height="80" as="geometry" />
        </mxCell>
        <mxCell id="nqIc30WBPKle0FcAkf76-323" value="" style="curved=1;endArrow=classic;html=1;rounded=0;entryX=1;entryY=0.5;entryDx=0;entryDy=0;exitX=0.1;exitY=0.5;exitDx=0;exitDy=0;exitPerimeter=0;" parent="1" source="nqIc30WBPKle0FcAkf76-319" target="nqIc30WBPKle0FcAkf76-264" edge="1">
          <mxGeometry width="50" height="50" relative="1" as="geometry">
            <mxPoint x="391" y="4030" as="sourcePoint" />
            <mxPoint x="-1" y="4240" as="targetPoint" />
            <Array as="points">
              <mxPoint x="220" y="4070" />
              <mxPoint x="130" y="4160" />
            </Array>
          </mxGeometry>
        </mxCell>
        <mxCell id="nqIc30WBPKle0FcAkf76-324" value="" style="curved=1;endArrow=classic;html=1;rounded=0;entryX=1;entryY=0.5;entryDx=0;entryDy=0;exitX=0.1;exitY=0.5;exitDx=0;exitDy=0;exitPerimeter=0;" parent="1" source="nqIc30WBPKle0FcAkf76-316" target="nqIc30WBPKle0FcAkf76-271" edge="1">
          <mxGeometry width="50" height="50" relative="1" as="geometry">
            <mxPoint x="391" y="4110" as="sourcePoint" />
            <mxPoint x="-1" y="4270" as="targetPoint" />
            <Array as="points">
              <mxPoint x="270" y="4120" />
              <mxPoint x="160" y="4200" />
            </Array>
          </mxGeometry>
        </mxCell>
        <mxCell id="nqIc30WBPKle0FcAkf76-325" value="" style="curved=1;endArrow=classic;html=1;rounded=0;entryX=1;entryY=0.5;entryDx=0;entryDy=0;exitX=0.1;exitY=0.5;exitDx=0;exitDy=0;exitPerimeter=0;" parent="1" source="nqIc30WBPKle0FcAkf76-320" target="nqIc30WBPKle0FcAkf76-278" edge="1">
          <mxGeometry width="50" height="50" relative="1" as="geometry">
            <mxPoint x="391" y="4190" as="sourcePoint" />
            <mxPoint x="-1" y="4300" as="targetPoint" />
            <Array as="points">
              <mxPoint x="300" y="4230" />
              <mxPoint x="170" y="4210" />
            </Array>
          </mxGeometry>
        </mxCell>
        <mxCell id="nqIc30WBPKle0FcAkf76-328" value="" style="shape=curlyBracket;whiteSpace=wrap;html=1;rounded=1;flipH=1;labelPosition=right;verticalLabelPosition=middle;align=left;verticalAlign=middle;rotation=-90;" parent="1" vertex="1">
          <mxGeometry x="429.95" y="3930" width="20" height="80" as="geometry" />
        </mxCell>
        <mxCell id="nqIc30WBPKle0FcAkf76-329" value="int4 = 8*half" style="text;html=1;align=center;verticalAlign=middle;resizable=0;points=[];autosize=1;strokeColor=none;fillColor=none;" parent="1" vertex="1">
          <mxGeometry x="399.92" y="3940" width="90" height="30" as="geometry" />
        </mxCell>
        <mxCell id="nqIc30WBPKle0FcAkf76-331" value="" style="curved=1;endArrow=classic;html=1;rounded=0;entryX=0.75;entryY=0;entryDx=0;entryDy=0;exitX=0;exitY=0.5;exitDx=0;exitDy=0;" parent="1" source="nqIc30WBPKle0FcAkf76-35" target="nqIc30WBPKle0FcAkf76-330" edge="1">
          <mxGeometry width="50" height="50" relative="1" as="geometry">
            <mxPoint x="210" y="3780" as="sourcePoint" />
            <mxPoint x="260" y="3730" as="targetPoint" />
            <Array as="points">
              <mxPoint x="270" y="3690" />
              <mxPoint x="240" y="3820" />
            </Array>
          </mxGeometry>
        </mxCell>
        <mxCell id="nqIc30WBPKle0FcAkf76-332" value="&lt;div style=&quot;font-size: 9px; text-wrap: wrap; background-color: rgb(251, 251, 251);&quot;&gt;&lt;br&gt;&lt;/div&gt;" style="edgeLabel;html=1;align=center;verticalAlign=middle;resizable=0;points=[];" parent="nqIc30WBPKle0FcAkf76-331" vertex="1" connectable="0">
          <mxGeometry relative="1" as="geometry">
            <mxPoint as="offset" />
          </mxGeometry>
        </mxCell>
        <mxCell id="nqIc30WBPKle0FcAkf76-330" value="&lt;div style=&quot;text-align: left; font-size: 9px;&quot;&gt;&lt;div&gt;*((&lt;b&gt;&lt;font style=&quot;font-size: 9px;&quot; color=&quot;#ff0000&quot;&gt;int4 *&lt;/font&gt;&lt;/b&gt;)&amp;amp;smem[A_smem_idx][0] +&lt;/div&gt;&lt;div&gt;&lt;span style=&quot;white-space: pre;&quot;&gt;&#x9;&lt;/span&gt;&lt;span style=&quot;white-space: pre;&quot;&gt;&#x9;&lt;/span&gt;((lane_id % CHUNK_COPY_LINE_LANES) +&lt;/div&gt;&lt;div&gt;&lt;span style=&quot;white-space: pre;&quot;&gt;&#x9;&lt;/span&gt;&lt;span style=&quot;white-space: pre;&quot;&gt;&#x9;&lt;/span&gt;(A_smem_idx % (CHUNK_COPY_LINE_LANES * SMEM_BANK_ROWS)) /&amp;nbsp;&lt;/div&gt;&lt;div&gt;&lt;span style=&quot;white-space: pre;&quot;&gt;&#x9;&lt;/span&gt;&lt;span style=&quot;white-space: pre;&quot;&gt;&#x9;&lt;/span&gt;SMEM_BANK_ROWS) %&lt;/div&gt;&lt;div&gt;&lt;span style=&quot;white-space: pre;&quot;&gt;&#x9;&lt;/span&gt;&lt;span style=&quot;white-space: pre;&quot;&gt;&#x9;&lt;/span&gt;CHUNK_COPY_LINE_LANES) = *A_lane_ptr;&lt;/div&gt;&lt;/div&gt;" style="rounded=1;whiteSpace=wrap;html=1;" parent="1" vertex="1">
          <mxGeometry x="-38.289999999999964" y="3835" width="370.78" height="75" as="geometry" />
        </mxCell>
        <mxCell id="nqIc30WBPKle0FcAkf76-333" value="" style="curved=1;endArrow=classic;html=1;rounded=0;exitX=0.75;exitY=1;exitDx=0;exitDy=0;" parent="1" source="nqIc30WBPKle0FcAkf76-330" edge="1">
          <mxGeometry width="50" height="50" relative="1" as="geometry">
            <mxPoint x="180" y="3790" as="sourcePoint" />
            <mxPoint x="400" y="4000" as="targetPoint" />
            <Array as="points">
              <mxPoint x="300" y="3990" />
            </Array>
          </mxGeometry>
        </mxCell>
        <mxCell id="XHxUQaSKLuy_v2T0ugLt-3" value="" style="rounded=0;whiteSpace=wrap;html=1;fillColor=#f8cecc;strokeColor=#b85450;" vertex="1" parent="1">
          <mxGeometry x="-797.82" y="5545" width="75" height="220" as="geometry" />
        </mxCell>
        <mxCell id="XHxUQaSKLuy_v2T0ugLt-8" value="" style="rounded=0;whiteSpace=wrap;html=1;fillColor=#e1d5e7;strokeColor=#9673a6;" vertex="1" parent="1">
          <mxGeometry x="-722.82" y="5545" width="75" height="220" as="geometry" />
        </mxCell>
        <mxCell id="XHxUQaSKLuy_v2T0ugLt-9" value="" style="rounded=0;whiteSpace=wrap;html=1;fillColor=#d5e8d4;strokeColor=#82b366;" vertex="1" parent="1">
          <mxGeometry x="-797.82" y="5545" width="20" height="20" as="geometry" />
        </mxCell>
        <mxCell id="XHxUQaSKLuy_v2T0ugLt-10" value="" style="endArrow=classic;html=1;rounded=0;exitX=0.5;exitY=0;exitDx=0;exitDy=0;entryX=0.5;entryY=1;entryDx=0;entryDy=0;" edge="1" parent="1" source="XHxUQaSKLuy_v2T0ugLt-9" target="XHxUQaSKLuy_v2T0ugLt-11">
          <mxGeometry width="50" height="50" relative="1" as="geometry">
            <mxPoint x="-722.82" y="5515" as="sourcePoint" />
            <mxPoint x="-672.82" y="5465" as="targetPoint" />
          </mxGeometry>
        </mxCell>
        <mxCell id="XHxUQaSKLuy_v2T0ugLt-11" value="half *A_warp_tile = A_warp_ptr+tile_k*MMA_K&lt;br&gt;(tile_k = 0)" style="rounded=1;whiteSpace=wrap;html=1;" vertex="1" parent="1">
          <mxGeometry x="-862.82" y="5425" width="170" height="60" as="geometry" />
        </mxCell>
        <mxCell id="XHxUQaSKLuy_v2T0ugLt-12" value="" style="shape=curlyBracket;whiteSpace=wrap;html=1;rounded=1;labelPosition=left;verticalLabelPosition=middle;align=right;verticalAlign=middle;" vertex="1" parent="1">
          <mxGeometry x="-817.82" y="5545" width="20" height="220" as="geometry" />
        </mxCell>
        <mxCell id="XHxUQaSKLuy_v2T0ugLt-13" value="&lt;font style=&quot;font-size: 16px;&quot;&gt;256&lt;/font&gt;" style="text;html=1;align=center;verticalAlign=middle;resizable=0;points=[];autosize=1;strokeColor=none;fillColor=none;" vertex="1" parent="1">
          <mxGeometry x="-859.82" y="5640" width="50" height="30" as="geometry" />
        </mxCell>
        <mxCell id="XHxUQaSKLuy_v2T0ugLt-14" value="" style="shape=curlyBracket;whiteSpace=wrap;html=1;rounded=1;labelPosition=left;verticalLabelPosition=middle;align=right;verticalAlign=middle;rotation=90;" vertex="1" parent="1">
          <mxGeometry x="-380.82" y="5110" width="20" height="850" as="geometry" />
        </mxCell>
        <mxCell id="XHxUQaSKLuy_v2T0ugLt-15" value="&lt;font style=&quot;font-size: 16px;&quot;&gt;K&lt;/font&gt;" style="text;html=1;align=center;verticalAlign=middle;resizable=0;points=[];autosize=1;strokeColor=none;fillColor=none;" vertex="1" parent="1">
          <mxGeometry x="-385.82" y="5500" width="30" height="30" as="geometry" />
        </mxCell>
        <mxCell id="XHxUQaSKLuy_v2T0ugLt-16" value="" style="rounded=0;whiteSpace=wrap;html=1;fillColor=#fff2cc;strokeColor=#d6b656;" vertex="1" parent="1">
          <mxGeometry x="-496.80999999999995" y="4880" width="75" height="130" as="geometry" />
        </mxCell>
        <mxCell id="XHxUQaSKLuy_v2T0ugLt-20" value="" style="rounded=0;whiteSpace=wrap;html=1;fillColor=#d5e8d4;strokeColor=#82b366;" vertex="1" parent="1">
          <mxGeometry x="-496.80999999999995" y="5010" width="75" height="60" as="geometry" />
        </mxCell>
        <mxCell id="XHxUQaSKLuy_v2T0ugLt-21" value="" style="rounded=0;whiteSpace=wrap;html=1;fillColor=#fff2cc;strokeColor=#d6b656;" vertex="1" parent="1">
          <mxGeometry x="-496.80999999999995" y="5070" width="75" height="130" as="geometry" />
        </mxCell>
        <mxCell id="XHxUQaSKLuy_v2T0ugLt-22" value="" style="rounded=0;whiteSpace=wrap;html=1;fillColor=#d5e8d4;strokeColor=#82b366;" vertex="1" parent="1">
          <mxGeometry x="-496.80999999999995" y="5200" width="75" height="60" as="geometry" />
        </mxCell>
        <mxCell id="XHxUQaSKLuy_v2T0ugLt-23" value="" style="rounded=0;whiteSpace=wrap;html=1;fillColor=#fff2cc;strokeColor=#d6b656;" vertex="1" parent="1">
          <mxGeometry x="-496.80999999999995" y="5260" width="75" height="130" as="geometry" />
        </mxCell>
        <mxCell id="XHxUQaSKLuy_v2T0ugLt-24" value="" style="rounded=0;whiteSpace=wrap;html=1;fillColor=#d5e8d4;strokeColor=#82b366;" vertex="1" parent="1">
          <mxGeometry x="-496.80999999999995" y="5390" width="75" height="60" as="geometry" />
        </mxCell>
        <mxCell id="XHxUQaSKLuy_v2T0ugLt-25" value="" style="curved=1;endArrow=classic;html=1;rounded=0;entryX=0;entryY=0.5;entryDx=0;entryDy=0;exitX=0;exitY=0;exitDx=0;exitDy=0;" edge="1" parent="1" source="XHxUQaSKLuy_v2T0ugLt-8" target="XHxUQaSKLuy_v2T0ugLt-16">
          <mxGeometry width="50" height="50" relative="1" as="geometry">
            <mxPoint x="-670" y="5090" as="sourcePoint" />
            <mxPoint x="-780" y="5090" as="targetPoint" />
            <Array as="points">
              <mxPoint x="-760" y="5320" />
              <mxPoint x="-700" y="5100" />
            </Array>
          </mxGeometry>
        </mxCell>
        <mxCell id="XHxUQaSKLuy_v2T0ugLt-27" value="" style="rounded=0;whiteSpace=wrap;html=1;rotation=90;" vertex="1" parent="1">
          <mxGeometry x="-33.17000000000009" y="4860" width="852.16" height="220" as="geometry" />
        </mxCell>
        <mxCell id="XHxUQaSKLuy_v2T0ugLt-28" value="" style="rounded=0;whiteSpace=wrap;html=1;rotation=90;" vertex="1" parent="1">
          <mxGeometry x="281.34999999999997" y="5545" width="215.31" height="220" as="geometry" />
        </mxCell>
        <mxCell id="XHxUQaSKLuy_v2T0ugLt-33" style="edgeStyle=orthogonalEdgeStyle;rounded=0;orthogonalLoop=1;jettySize=auto;html=1;entryX=0;entryY=0.5;entryDx=0;entryDy=0;" edge="1" parent="1" source="XHxUQaSKLuy_v2T0ugLt-29" target="XHxUQaSKLuy_v2T0ugLt-32">
          <mxGeometry relative="1" as="geometry" />
        </mxCell>
        <mxCell id="XHxUQaSKLuy_v2T0ugLt-29" value="" style="rounded=0;whiteSpace=wrap;html=1;fillColor=#f8cecc;strokeColor=#b85450;rotation=-90;" vertex="1" parent="1">
          <mxGeometry x="355.40999999999997" y="4471.49" width="75" height="220" as="geometry" />
        </mxCell>
        <mxCell id="XHxUQaSKLuy_v2T0ugLt-35" style="edgeStyle=orthogonalEdgeStyle;rounded=0;orthogonalLoop=1;jettySize=auto;html=1;entryX=0;entryY=0.5;entryDx=0;entryDy=0;" edge="1" parent="1" source="XHxUQaSKLuy_v2T0ugLt-30" target="XHxUQaSKLuy_v2T0ugLt-34">
          <mxGeometry relative="1" as="geometry" />
        </mxCell>
        <mxCell id="XHxUQaSKLuy_v2T0ugLt-30" value="" style="rounded=0;whiteSpace=wrap;html=1;fillColor=#e1d5e7;strokeColor=#9673a6;rotation=-90;" vertex="1" parent="1">
          <mxGeometry x="355.40999999999997" y="4548" width="75" height="220" as="geometry" />
        </mxCell>
        <mxCell id="XHxUQaSKLuy_v2T0ugLt-31" value="" style="curved=1;endArrow=classic;html=1;rounded=0;exitX=1;exitY=0;exitDx=0;exitDy=0;entryX=1;entryY=0.5;entryDx=0;entryDy=0;" edge="1" parent="1" source="XHxUQaSKLuy_v2T0ugLt-30" target="XHxUQaSKLuy_v2T0ugLt-20">
          <mxGeometry width="50" height="50" relative="1" as="geometry">
            <mxPoint x="-170" y="4870" as="sourcePoint" />
            <mxPoint x="-120" y="4820" as="targetPoint" />
            <Array as="points">
              <mxPoint y="4700" />
              <mxPoint x="-170" y="5030" />
            </Array>
          </mxGeometry>
        </mxCell>
        <mxCell id="XHxUQaSKLuy_v2T0ugLt-32" value="&lt;font style=&quot;font-size: 32px;&quot;&gt;tile_0&lt;/font&gt;" style="rounded=1;whiteSpace=wrap;html=1;" vertex="1" parent="1">
          <mxGeometry x="590" y="4551.49" width="120" height="60" as="geometry" />
        </mxCell>
        <mxCell id="XHxUQaSKLuy_v2T0ugLt-34" value="&lt;font style=&quot;font-size: 32px;&quot;&gt;tile_1&lt;/font&gt;" style="rounded=1;whiteSpace=wrap;html=1;" vertex="1" parent="1">
          <mxGeometry x="590" y="4628" width="120" height="60" as="geometry" />
        </mxCell>
        <mxCell id="XHxUQaSKLuy_v2T0ugLt-36" value="" style="rounded=0;whiteSpace=wrap;html=1;fillColor=#f8cecc;strokeColor=#b85450;rotation=-90;" vertex="1" parent="1">
          <mxGeometry x="355.40999999999997" y="4624" width="75" height="220" as="geometry" />
        </mxCell>
        <mxCell id="XHxUQaSKLuy_v2T0ugLt-37" value="" style="rounded=0;whiteSpace=wrap;html=1;fillColor=#e1d5e7;strokeColor=#9673a6;rotation=-90;" vertex="1" parent="1">
          <mxGeometry x="355.40999999999997" y="4700" width="75" height="220" as="geometry" />
        </mxCell>
        <mxCell id="XHxUQaSKLuy_v2T0ugLt-38" style="edgeStyle=orthogonalEdgeStyle;rounded=0;orthogonalLoop=1;jettySize=auto;html=1;entryX=0;entryY=0.5;entryDx=0;entryDy=0;exitX=0.5;exitY=1;exitDx=0;exitDy=0;" edge="1" parent="1" target="XHxUQaSKLuy_v2T0ugLt-40" source="XHxUQaSKLuy_v2T0ugLt-36">
          <mxGeometry relative="1" as="geometry">
            <mxPoint x="503" y="4737" as="sourcePoint" />
          </mxGeometry>
        </mxCell>
        <mxCell id="XHxUQaSKLuy_v2T0ugLt-39" style="edgeStyle=orthogonalEdgeStyle;rounded=0;orthogonalLoop=1;jettySize=auto;html=1;entryX=0;entryY=0.5;entryDx=0;entryDy=0;exitX=0.5;exitY=1;exitDx=0;exitDy=0;" edge="1" parent="1" target="XHxUQaSKLuy_v2T0ugLt-41" source="XHxUQaSKLuy_v2T0ugLt-37">
          <mxGeometry relative="1" as="geometry">
            <mxPoint x="503" y="4814" as="sourcePoint" />
          </mxGeometry>
        </mxCell>
        <mxCell id="XHxUQaSKLuy_v2T0ugLt-40" value="&lt;font style=&quot;font-size: 32px;&quot;&gt;tile_2&lt;/font&gt;" style="rounded=1;whiteSpace=wrap;html=1;" vertex="1" parent="1">
          <mxGeometry x="590" y="4704" width="120" height="60" as="geometry" />
        </mxCell>
        <mxCell id="XHxUQaSKLuy_v2T0ugLt-41" value="&lt;font style=&quot;font-size: 32px;&quot;&gt;tile_3&lt;/font&gt;" style="rounded=1;whiteSpace=wrap;html=1;" vertex="1" parent="1">
          <mxGeometry x="590" y="4780" width="120" height="60" as="geometry" />
        </mxCell>
        <mxCell id="XHxUQaSKLuy_v2T0ugLt-42" value="" style="curved=1;endArrow=classic;html=1;rounded=0;exitX=1;exitY=0;exitDx=0;exitDy=0;entryX=1;entryY=0.5;entryDx=0;entryDy=0;" edge="1" parent="1" source="XHxUQaSKLuy_v2T0ugLt-37" target="XHxUQaSKLuy_v2T0ugLt-22">
          <mxGeometry width="50" height="50" relative="1" as="geometry">
            <mxPoint x="293" y="4631" as="sourcePoint" />
            <mxPoint x="-412" y="5050" as="targetPoint" />
            <Array as="points">
              <mxPoint x="80" y="4773" />
              <mxPoint x="-140" y="5200" />
            </Array>
          </mxGeometry>
        </mxCell>
        <mxCell id="XHxUQaSKLuy_v2T0ugLt-43" value="" style="rounded=0;whiteSpace=wrap;html=1;fillColor=#f8cecc;strokeColor=#b85450;" vertex="1" parent="1">
          <mxGeometry x="-647.82" y="5545" width="75" height="220" as="geometry" />
        </mxCell>
        <mxCell id="XHxUQaSKLuy_v2T0ugLt-44" value="" style="rounded=0;whiteSpace=wrap;html=1;fillColor=#e1d5e7;strokeColor=#9673a6;" vertex="1" parent="1">
          <mxGeometry x="-572.5600000000001" y="5545" width="75" height="220" as="geometry" />
        </mxCell>
        <mxCell id="XHxUQaSKLuy_v2T0ugLt-45" value="" style="curved=1;endArrow=classic;html=1;rounded=0;entryX=0;entryY=0.5;entryDx=0;entryDy=0;exitX=1;exitY=0;exitDx=0;exitDy=0;" edge="1" parent="1" source="XHxUQaSKLuy_v2T0ugLt-43" target="XHxUQaSKLuy_v2T0ugLt-21">
          <mxGeometry width="50" height="50" relative="1" as="geometry">
            <mxPoint x="-713" y="5555" as="sourcePoint" />
            <mxPoint x="-487" y="4955" as="targetPoint" />
            <Array as="points">
              <mxPoint x="-700" y="5310" />
              <mxPoint x="-600" y="5130" />
            </Array>
          </mxGeometry>
        </mxCell>
        <mxCell id="XHxUQaSKLuy_v2T0ugLt-52" style="edgeStyle=orthogonalEdgeStyle;rounded=0;orthogonalLoop=1;jettySize=auto;html=1;entryX=0.5;entryY=1;entryDx=0;entryDy=0;" edge="1" parent="1" source="XHxUQaSKLuy_v2T0ugLt-46" target="XHxUQaSKLuy_v2T0ugLt-3">
          <mxGeometry relative="1" as="geometry" />
        </mxCell>
        <mxCell id="XHxUQaSKLuy_v2T0ugLt-46" value="&lt;font style=&quot;font-size: 32px;&quot;&gt;tile_0&lt;/font&gt;" style="rounded=1;whiteSpace=wrap;html=1;" vertex="1" parent="1">
          <mxGeometry x="-820.3199999999999" y="5810" width="120" height="60" as="geometry" />
        </mxCell>
        <mxCell id="XHxUQaSKLuy_v2T0ugLt-50" style="edgeStyle=orthogonalEdgeStyle;rounded=0;orthogonalLoop=1;jettySize=auto;html=1;" edge="1" parent="1" source="XHxUQaSKLuy_v2T0ugLt-47" target="XHxUQaSKLuy_v2T0ugLt-8">
          <mxGeometry relative="1" as="geometry" />
        </mxCell>
        <mxCell id="XHxUQaSKLuy_v2T0ugLt-47" value="&lt;font style=&quot;font-size: 32px;&quot;&gt;tile_1&lt;/font&gt;" style="rounded=1;whiteSpace=wrap;html=1;" vertex="1" parent="1">
          <mxGeometry x="-745" y="5890" width="120" height="60" as="geometry" />
        </mxCell>
        <mxCell id="XHxUQaSKLuy_v2T0ugLt-51" style="edgeStyle=orthogonalEdgeStyle;rounded=0;orthogonalLoop=1;jettySize=auto;html=1;entryX=0.5;entryY=1;entryDx=0;entryDy=0;" edge="1" parent="1" source="XHxUQaSKLuy_v2T0ugLt-48" target="XHxUQaSKLuy_v2T0ugLt-43">
          <mxGeometry relative="1" as="geometry" />
        </mxCell>
        <mxCell id="XHxUQaSKLuy_v2T0ugLt-48" value="&lt;font style=&quot;font-size: 32px;&quot;&gt;tile_2&lt;/font&gt;" style="rounded=1;whiteSpace=wrap;html=1;" vertex="1" parent="1">
          <mxGeometry x="-670" y="5810" width="120" height="60" as="geometry" />
        </mxCell>
        <mxCell id="XHxUQaSKLuy_v2T0ugLt-53" style="edgeStyle=orthogonalEdgeStyle;rounded=0;orthogonalLoop=1;jettySize=auto;html=1;" edge="1" parent="1" source="XHxUQaSKLuy_v2T0ugLt-49" target="XHxUQaSKLuy_v2T0ugLt-44">
          <mxGeometry relative="1" as="geometry" />
        </mxCell>
        <mxCell id="XHxUQaSKLuy_v2T0ugLt-49" value="&lt;font style=&quot;font-size: 32px;&quot;&gt;tile_3&lt;/font&gt;" style="rounded=1;whiteSpace=wrap;html=1;" vertex="1" parent="1">
          <mxGeometry x="-593.56" y="5890" width="120" height="60" as="geometry" />
        </mxCell>
        <mxCell id="XHxUQaSKLuy_v2T0ugLt-54" value="" style="rounded=0;whiteSpace=wrap;html=1;" vertex="1" parent="1">
          <mxGeometry x="-820.32" y="6860" width="1050.32" height="220" as="geometry" />
        </mxCell>
        <mxCell id="XHxUQaSKLuy_v2T0ugLt-55" value="" style="rounded=0;whiteSpace=wrap;html=1;fillColor=#f8cecc;strokeColor=#b85450;" vertex="1" parent="1">
          <mxGeometry x="-820.32" y="6860" width="54.84" height="220" as="geometry" />
        </mxCell>
        <mxCell id="XHxUQaSKLuy_v2T0ugLt-58" style="edgeStyle=orthogonalEdgeStyle;rounded=0;orthogonalLoop=1;jettySize=auto;html=1;" edge="1" parent="1" source="XHxUQaSKLuy_v2T0ugLt-57" target="XHxUQaSKLuy_v2T0ugLt-55">
          <mxGeometry relative="1" as="geometry" />
        </mxCell>
        <mxCell id="XHxUQaSKLuy_v2T0ugLt-57" value="&lt;font style=&quot;font-size: 32px;&quot;&gt;tile0~1&lt;/font&gt;" style="rounded=1;whiteSpace=wrap;html=1;" vertex="1" parent="1">
          <mxGeometry x="-851.8100000000001" y="7126" width="117.82" height="50" as="geometry" />
        </mxCell>
        <mxCell id="XHxUQaSKLuy_v2T0ugLt-59" value="" style="rounded=0;whiteSpace=wrap;html=1;fillColor=#ffe6cc;strokeColor=#d79b00;" vertex="1" parent="1">
          <mxGeometry x="-765.48" y="6860" width="54.84" height="220" as="geometry" />
        </mxCell>
        <mxCell id="XHxUQaSKLuy_v2T0ugLt-61" style="edgeStyle=orthogonalEdgeStyle;rounded=0;orthogonalLoop=1;jettySize=auto;html=1;" edge="1" parent="1" source="XHxUQaSKLuy_v2T0ugLt-60" target="XHxUQaSKLuy_v2T0ugLt-59">
          <mxGeometry relative="1" as="geometry" />
        </mxCell>
        <mxCell id="XHxUQaSKLuy_v2T0ugLt-60" value="&lt;font style=&quot;font-size: 32px;&quot;&gt;tile2~3&lt;/font&gt;" style="rounded=1;whiteSpace=wrap;html=1;" vertex="1" parent="1">
          <mxGeometry x="-797.82" y="6770" width="117.82" height="50" as="geometry" />
        </mxCell>
        <mxCell id="XHxUQaSKLuy_v2T0ugLt-63" value="" style="rounded=0;whiteSpace=wrap;html=1;fillColor=#f8cecc;strokeColor=#b85450;" vertex="1" parent="1">
          <mxGeometry x="-820.32" y="7280" width="54.84" height="220" as="geometry" />
        </mxCell>
        <mxCell id="XHxUQaSKLuy_v2T0ugLt-64" value="" style="rounded=0;whiteSpace=wrap;html=1;fillColor=#ffe6cc;strokeColor=#d79b00;" vertex="1" parent="1">
          <mxGeometry x="-765.48" y="7280" width="54.84" height="220" as="geometry" />
        </mxCell>
        <mxCell id="XHxUQaSKLuy_v2T0ugLt-65" value="" style="curved=1;endArrow=classic;html=1;rounded=0;exitX=0;exitY=0.5;exitDx=0;exitDy=0;entryX=0;entryY=0.5;entryDx=0;entryDy=0;" edge="1" parent="1" source="XHxUQaSKLuy_v2T0ugLt-55" target="XHxUQaSKLuy_v2T0ugLt-63">
          <mxGeometry width="50" height="50" relative="1" as="geometry">
            <mxPoint x="-950" y="7170" as="sourcePoint" />
            <mxPoint x="-900" y="7120" as="targetPoint" />
            <Array as="points">
              <mxPoint x="-890" y="7080" />
              <mxPoint x="-920" y="7220" />
            </Array>
          </mxGeometry>
        </mxCell>
        <mxCell id="XHxUQaSKLuy_v2T0ugLt-116" style="edgeStyle=orthogonalEdgeStyle;rounded=0;orthogonalLoop=1;jettySize=auto;html=1;" edge="1" parent="1" source="XHxUQaSKLuy_v2T0ugLt-72">
          <mxGeometry relative="1" as="geometry">
            <mxPoint x="-917.5" y="7750" as="targetPoint" />
          </mxGeometry>
        </mxCell>
        <mxCell id="XHxUQaSKLuy_v2T0ugLt-72" value="&lt;font style=&quot;font-size: 12px;&quot;&gt;tile0~1&lt;/font&gt;" style="rounded=1;whiteSpace=wrap;html=1;" vertex="1" parent="1">
          <mxGeometry x="-940" y="7703" width="45" height="20" as="geometry" />
        </mxCell>
        <mxCell id="XHxUQaSKLuy_v2T0ugLt-112" style="edgeStyle=orthogonalEdgeStyle;rounded=0;orthogonalLoop=1;jettySize=auto;html=1;" edge="1" parent="1" source="XHxUQaSKLuy_v2T0ugLt-73">
          <mxGeometry relative="1" as="geometry">
            <mxPoint x="-797.8199999999999" y="7750.000000000001" as="targetPoint" />
          </mxGeometry>
        </mxCell>
        <mxCell id="XHxUQaSKLuy_v2T0ugLt-73" value="&lt;font style=&quot;font-size: 12px;&quot;&gt;tile2~3&lt;/font&gt;" style="rounded=1;whiteSpace=wrap;html=1;" vertex="1" parent="1">
          <mxGeometry x="-820.32" y="7703" width="45" height="20" as="geometry" />
        </mxCell>
        <mxCell id="XHxUQaSKLuy_v2T0ugLt-77" value="" style="shape=flexArrow;endArrow=classic;html=1;rounded=0;width=24.054054054054053;endSize=7.1702702702702705;fillColor=#0050ef;strokeColor=#001DBC;" edge="1" parent="1">
          <mxGeometry width="50" height="50" relative="1" as="geometry">
            <mxPoint x="-740" y="7763" as="sourcePoint" />
            <mxPoint x="-680" y="7763" as="targetPoint" />
          </mxGeometry>
        </mxCell>
        <mxCell id="XHxUQaSKLuy_v2T0ugLt-78" value="lds" style="edgeLabel;html=1;align=center;verticalAlign=middle;resizable=0;points=[];" vertex="1" connectable="0" parent="XHxUQaSKLuy_v2T0ugLt-77">
          <mxGeometry x="-0.3297" relative="1" as="geometry">
            <mxPoint as="offset" />
          </mxGeometry>
        </mxCell>
        <mxCell id="XHxUQaSKLuy_v2T0ugLt-80" style="edgeStyle=orthogonalEdgeStyle;rounded=0;orthogonalLoop=1;jettySize=auto;html=1;" edge="1" parent="1" source="XHxUQaSKLuy_v2T0ugLt-79">
          <mxGeometry relative="1" as="geometry">
            <mxPoint x="-715.3199999999999" y="7753" as="targetPoint" />
          </mxGeometry>
        </mxCell>
        <mxCell id="XHxUQaSKLuy_v2T0ugLt-79" value="&lt;font style=&quot;font-size: 12px;&quot;&gt;tile0&lt;/font&gt;" style="rounded=1;whiteSpace=wrap;html=1;fillColor=#1ba1e2;fontColor=#ffffff;strokeColor=#006EAF;" vertex="1" parent="1">
          <mxGeometry x="-737.8199999999999" y="7703" width="45" height="20" as="geometry" />
        </mxCell>
        <mxCell id="XHxUQaSKLuy_v2T0ugLt-82" style="edgeStyle=orthogonalEdgeStyle;rounded=0;orthogonalLoop=1;jettySize=auto;html=1;" edge="1" parent="1" source="XHxUQaSKLuy_v2T0ugLt-81">
          <mxGeometry relative="1" as="geometry">
            <mxPoint x="-715.3199999999999" y="7773" as="targetPoint" />
          </mxGeometry>
        </mxCell>
        <mxCell id="XHxUQaSKLuy_v2T0ugLt-81" value="&lt;font style=&quot;font-size: 12px;&quot;&gt;RAB[0]&lt;/font&gt;" style="rounded=1;whiteSpace=wrap;html=1;fillColor=#6a00ff;fontColor=#ffffff;strokeColor=#3700CC;" vertex="1" parent="1">
          <mxGeometry x="-737.8199999999999" y="7813" width="45" height="20" as="geometry" />
        </mxCell>
        <mxCell id="XHxUQaSKLuy_v2T0ugLt-83" value="" style="shape=flexArrow;endArrow=classic;html=1;rounded=0;width=24.054054054054053;endSize=7.1702702702702705;fillColor=#0050ef;strokeColor=#001DBC;" edge="1" parent="1">
          <mxGeometry width="50" height="50" relative="1" as="geometry">
            <mxPoint x="-737.82" y="7919" as="sourcePoint" />
            <mxPoint x="-677.82" y="7919" as="targetPoint" />
          </mxGeometry>
        </mxCell>
        <mxCell id="XHxUQaSKLuy_v2T0ugLt-84" value="lds" style="edgeLabel;html=1;align=center;verticalAlign=middle;resizable=0;points=[];" vertex="1" connectable="0" parent="XHxUQaSKLuy_v2T0ugLt-83">
          <mxGeometry x="-0.3297" relative="1" as="geometry">
            <mxPoint as="offset" />
          </mxGeometry>
        </mxCell>
        <mxCell id="XHxUQaSKLuy_v2T0ugLt-86" style="edgeStyle=orthogonalEdgeStyle;rounded=0;orthogonalLoop=1;jettySize=auto;html=1;" edge="1" parent="1" source="XHxUQaSKLuy_v2T0ugLt-85">
          <mxGeometry relative="1" as="geometry">
            <mxPoint x="-713" y="7930" as="targetPoint" />
          </mxGeometry>
        </mxCell>
        <mxCell id="XHxUQaSKLuy_v2T0ugLt-85" value="&lt;font style=&quot;font-size: 12px;&quot;&gt;RAB[1]&lt;/font&gt;" style="rounded=1;whiteSpace=wrap;html=1;fillColor=#a20025;fontColor=#ffffff;strokeColor=#6F0000;" vertex="1" parent="1">
          <mxGeometry x="-735.3199999999999" y="7968" width="45" height="20" as="geometry" />
        </mxCell>
        <mxCell id="XHxUQaSKLuy_v2T0ugLt-87" value="" style="shape=flexArrow;endArrow=classic;html=1;rounded=0;width=24.054054054054053;endSize=7.1702702702702705;fillColor=#d80073;strokeColor=#A50040;" edge="1" parent="1">
          <mxGeometry width="50" height="50" relative="1" as="geometry">
            <mxPoint x="-680" y="7763" as="sourcePoint" />
            <mxPoint x="-635" y="7763" as="targetPoint" />
          </mxGeometry>
        </mxCell>
        <mxCell id="XHxUQaSKLuy_v2T0ugLt-88" value="calc" style="edgeLabel;html=1;align=center;verticalAlign=middle;resizable=0;points=[];" vertex="1" connectable="0" parent="XHxUQaSKLuy_v2T0ugLt-87">
          <mxGeometry x="-0.3297" relative="1" as="geometry">
            <mxPoint as="offset" />
          </mxGeometry>
        </mxCell>
        <mxCell id="XHxUQaSKLuy_v2T0ugLt-91" style="edgeStyle=orthogonalEdgeStyle;rounded=0;orthogonalLoop=1;jettySize=auto;html=1;" edge="1" parent="1" source="XHxUQaSKLuy_v2T0ugLt-89">
          <mxGeometry relative="1" as="geometry">
            <mxPoint x="-662.5" y="7773" as="targetPoint" />
          </mxGeometry>
        </mxCell>
        <mxCell id="XHxUQaSKLuy_v2T0ugLt-89" value="&lt;font style=&quot;font-size: 12px;&quot;&gt;RC[0]&lt;/font&gt;" style="rounded=1;whiteSpace=wrap;html=1;fillColor=#6a00ff;fontColor=#ffffff;strokeColor=#3700CC;" vertex="1" parent="1">
          <mxGeometry x="-684.9999999999999" y="7813" width="45" height="20" as="geometry" />
        </mxCell>
        <mxCell id="XHxUQaSKLuy_v2T0ugLt-93" style="edgeStyle=orthogonalEdgeStyle;rounded=0;orthogonalLoop=1;jettySize=auto;html=1;" edge="1" parent="1" source="XHxUQaSKLuy_v2T0ugLt-92">
          <mxGeometry relative="1" as="geometry">
            <mxPoint x="-712.82" y="7913" as="targetPoint" />
          </mxGeometry>
        </mxCell>
        <mxCell id="XHxUQaSKLuy_v2T0ugLt-92" value="&lt;font style=&quot;font-size: 12px;&quot;&gt;tile1&lt;/font&gt;" style="rounded=1;whiteSpace=wrap;html=1;fillColor=#1ba1e2;fontColor=#ffffff;strokeColor=#006EAF;" vertex="1" parent="1">
          <mxGeometry x="-735.3199999999999" y="7863" width="45" height="20" as="geometry" />
        </mxCell>
        <mxCell id="XHxUQaSKLuy_v2T0ugLt-107" style="edgeStyle=orthogonalEdgeStyle;rounded=0;orthogonalLoop=1;jettySize=auto;html=1;" edge="1" parent="1" source="XHxUQaSKLuy_v2T0ugLt-97">
          <mxGeometry relative="1" as="geometry">
            <mxPoint x="-637.3200000000002" y="8053.000000000001" as="targetPoint" />
          </mxGeometry>
        </mxCell>
        <mxCell id="XHxUQaSKLuy_v2T0ugLt-97" value="&lt;font style=&quot;font-size: 12px;&quot;&gt;tile4~5&lt;/font&gt;" style="rounded=1;whiteSpace=wrap;html=1;" vertex="1" parent="1">
          <mxGeometry x="-659.8199999999999" y="8093" width="45" height="20" as="geometry" />
        </mxCell>
        <mxCell id="XHxUQaSKLuy_v2T0ugLt-103" value="" style="shape=flexArrow;endArrow=classic;html=1;rounded=0;width=24.054054054054053;endSize=7.1702702702702705;fillColor=#60a917;strokeColor=#2D7600;" edge="1" parent="1">
          <mxGeometry width="50" height="50" relative="1" as="geometry">
            <mxPoint x="-676.9999999999999" y="8043" as="sourcePoint" />
            <mxPoint x="-562" y="8043" as="targetPoint" />
          </mxGeometry>
        </mxCell>
        <mxCell id="XHxUQaSKLuy_v2T0ugLt-104" value="ldgsts" style="edgeLabel;html=1;align=center;verticalAlign=middle;resizable=0;points=[];" vertex="1" connectable="0" parent="XHxUQaSKLuy_v2T0ugLt-103">
          <mxGeometry x="-0.3297" relative="1" as="geometry">
            <mxPoint as="offset" />
          </mxGeometry>
        </mxCell>
        <mxCell id="XHxUQaSKLuy_v2T0ugLt-106" value="" style="endArrow=none;html=1;rounded=0;strokeWidth=5;fillColor=#6a00ff;strokeColor=#3700CC;" edge="1" parent="1">
          <mxGeometry width="50" height="50" relative="1" as="geometry">
            <mxPoint x="-740" y="8120" as="sourcePoint" />
            <mxPoint x="-740" y="7680" as="targetPoint" />
          </mxGeometry>
        </mxCell>
        <mxCell id="XHxUQaSKLuy_v2T0ugLt-108" value="" style="endArrow=none;html=1;rounded=0;strokeWidth=5;fillColor=#6a00ff;strokeColor=#3700CC;" edge="1" parent="1">
          <mxGeometry width="50" height="50" relative="1" as="geometry">
            <mxPoint x="-558.65" y="8103" as="sourcePoint" />
            <mxPoint x="-558.65" y="7680" as="targetPoint" />
          </mxGeometry>
        </mxCell>
        <mxCell id="XHxUQaSKLuy_v2T0ugLt-109" value="" style="shape=flexArrow;endArrow=classic;html=1;rounded=0;width=24.054054054054053;endSize=7.1702702702702705;fillColor=#60a917;strokeColor=#2D7600;" edge="1" parent="1">
          <mxGeometry width="50" height="50" relative="1" as="geometry">
            <mxPoint x="-856.9999999999999" y="7762" as="sourcePoint" />
            <mxPoint x="-742" y="7762" as="targetPoint" />
          </mxGeometry>
        </mxCell>
        <mxCell id="XHxUQaSKLuy_v2T0ugLt-110" value="ldgsts" style="edgeLabel;html=1;align=center;verticalAlign=middle;resizable=0;points=[];" vertex="1" connectable="0" parent="XHxUQaSKLuy_v2T0ugLt-109">
          <mxGeometry x="-0.3297" relative="1" as="geometry">
            <mxPoint as="offset" />
          </mxGeometry>
        </mxCell>
        <mxCell id="XHxUQaSKLuy_v2T0ugLt-113" value="" style="shape=flexArrow;endArrow=classic;html=1;rounded=0;width=24.054054054054053;endSize=7.1702702702702705;fillColor=#60a917;strokeColor=#2D7600;" edge="1" parent="1">
          <mxGeometry width="50" height="50" relative="1" as="geometry">
            <mxPoint x="-971.8199999999999" y="7760" as="sourcePoint" />
            <mxPoint x="-856.8199999999999" y="7760" as="targetPoint" />
          </mxGeometry>
        </mxCell>
        <mxCell id="XHxUQaSKLuy_v2T0ugLt-114" value="ldgsts" style="edgeLabel;html=1;align=center;verticalAlign=middle;resizable=0;points=[];" vertex="1" connectable="0" parent="XHxUQaSKLuy_v2T0ugLt-113">
          <mxGeometry x="-0.3297" relative="1" as="geometry">
            <mxPoint as="offset" />
          </mxGeometry>
        </mxCell>
        <mxCell id="XHxUQaSKLuy_v2T0ugLt-117" value="" style="shape=flexArrow;endArrow=classic;html=1;rounded=0;width=24.054054054054053;endSize=7.1702702702702705;fillColor=#0050ef;strokeColor=#001DBC;" edge="1" parent="1">
          <mxGeometry width="50" height="50" relative="1" as="geometry">
            <mxPoint x="-556.65" y="7760" as="sourcePoint" />
            <mxPoint x="-496.65" y="7760" as="targetPoint" />
          </mxGeometry>
        </mxCell>
        <mxCell id="XHxUQaSKLuy_v2T0ugLt-118" value="lds" style="edgeLabel;html=1;align=center;verticalAlign=middle;resizable=0;points=[];" vertex="1" connectable="0" parent="XHxUQaSKLuy_v2T0ugLt-117">
          <mxGeometry x="-0.3297" relative="1" as="geometry">
            <mxPoint as="offset" />
          </mxGeometry>
        </mxCell>
        <mxCell id="XHxUQaSKLuy_v2T0ugLt-119" value="" style="shape=flexArrow;endArrow=classic;html=1;rounded=0;width=24.054054054054053;endSize=7.1702702702702705;fillColor=#0050ef;strokeColor=#001DBC;" edge="1" parent="1">
          <mxGeometry width="50" height="50" relative="1" as="geometry">
            <mxPoint x="-507.84000000000003" y="7920" as="sourcePoint" />
            <mxPoint x="-447.84" y="7920" as="targetPoint" />
          </mxGeometry>
        </mxCell>
        <mxCell id="XHxUQaSKLuy_v2T0ugLt-120" value="lds" style="edgeLabel;html=1;align=center;verticalAlign=middle;resizable=0;points=[];" vertex="1" connectable="0" parent="XHxUQaSKLuy_v2T0ugLt-119">
          <mxGeometry x="-0.3297" relative="1" as="geometry">
            <mxPoint as="offset" />
          </mxGeometry>
        </mxCell>
        <mxCell id="XHxUQaSKLuy_v2T0ugLt-122" style="edgeStyle=orthogonalEdgeStyle;rounded=0;orthogonalLoop=1;jettySize=auto;html=1;" edge="1" parent="1" source="XHxUQaSKLuy_v2T0ugLt-121">
          <mxGeometry relative="1" as="geometry">
            <mxPoint x="-533.15" y="7750" as="targetPoint" />
          </mxGeometry>
        </mxCell>
        <mxCell id="XHxUQaSKLuy_v2T0ugLt-121" value="&lt;font style=&quot;font-size: 12px;&quot;&gt;tile2&lt;/font&gt;" style="rounded=1;whiteSpace=wrap;html=1;fillColor=#1ba1e2;fontColor=#ffffff;strokeColor=#006EAF;" vertex="1" parent="1">
          <mxGeometry x="-555.65" y="7703" width="45" height="20" as="geometry" />
        </mxCell>
        <mxCell id="XHxUQaSKLuy_v2T0ugLt-124" style="edgeStyle=orthogonalEdgeStyle;rounded=0;orthogonalLoop=1;jettySize=auto;html=1;" edge="1" parent="1" source="XHxUQaSKLuy_v2T0ugLt-123">
          <mxGeometry relative="1" as="geometry">
            <mxPoint x="-533.15" y="7769.999999999999" as="targetPoint" />
          </mxGeometry>
        </mxCell>
        <mxCell id="XHxUQaSKLuy_v2T0ugLt-123" value="&lt;font style=&quot;font-size: 12px;&quot;&gt;RAB[0]&lt;/font&gt;" style="rounded=1;whiteSpace=wrap;html=1;fillColor=#6a00ff;fontColor=#ffffff;strokeColor=#3700CC;" vertex="1" parent="1">
          <mxGeometry x="-555.65" y="7813" width="45" height="20" as="geometry" />
        </mxCell>
        <mxCell id="XHxUQaSKLuy_v2T0ugLt-126" style="edgeStyle=orthogonalEdgeStyle;rounded=0;orthogonalLoop=1;jettySize=auto;html=1;" edge="1" parent="1" source="XHxUQaSKLuy_v2T0ugLt-125">
          <mxGeometry relative="1" as="geometry">
            <mxPoint x="-484.34000000000003" y="7909.999999999999" as="targetPoint" />
          </mxGeometry>
        </mxCell>
        <mxCell id="XHxUQaSKLuy_v2T0ugLt-125" value="&lt;font style=&quot;font-size: 12px;&quot;&gt;tile3&lt;/font&gt;" style="rounded=1;whiteSpace=wrap;html=1;fillColor=#1ba1e2;fontColor=#ffffff;strokeColor=#006EAF;" vertex="1" parent="1">
          <mxGeometry x="-506.84000000000003" y="7863" width="45" height="20" as="geometry" />
        </mxCell>
        <mxCell id="XHxUQaSKLuy_v2T0ugLt-128" style="edgeStyle=orthogonalEdgeStyle;rounded=0;orthogonalLoop=1;jettySize=auto;html=1;" edge="1" parent="1" source="XHxUQaSKLuy_v2T0ugLt-127">
          <mxGeometry relative="1" as="geometry">
            <mxPoint x="-486.15" y="7929.999999999999" as="targetPoint" />
          </mxGeometry>
        </mxCell>
        <mxCell id="XHxUQaSKLuy_v2T0ugLt-127" value="&lt;font style=&quot;font-size: 12px;&quot;&gt;RAB[1]&lt;/font&gt;" style="rounded=1;whiteSpace=wrap;html=1;fillColor=#a20025;fontColor=#ffffff;strokeColor=#6F0000;" vertex="1" parent="1">
          <mxGeometry x="-508.65" y="7968" width="45" height="20" as="geometry" />
        </mxCell>
        <mxCell id="XHxUQaSKLuy_v2T0ugLt-129" value="" style="shape=flexArrow;endArrow=classic;html=1;rounded=0;width=24.054054054054053;endSize=7.1702702702702705;fillColor=#d80073;strokeColor=#A50040;" edge="1" parent="1">
          <mxGeometry width="50" height="50" relative="1" as="geometry">
            <mxPoint x="-553.15" y="7920" as="sourcePoint" />
            <mxPoint x="-508.15" y="7920" as="targetPoint" />
          </mxGeometry>
        </mxCell>
        <mxCell id="XHxUQaSKLuy_v2T0ugLt-130" value="calc" style="edgeLabel;html=1;align=center;verticalAlign=middle;resizable=0;points=[];" vertex="1" connectable="0" parent="XHxUQaSKLuy_v2T0ugLt-129">
          <mxGeometry x="-0.3297" relative="1" as="geometry">
            <mxPoint as="offset" />
          </mxGeometry>
        </mxCell>
        <mxCell id="XHxUQaSKLuy_v2T0ugLt-132" style="edgeStyle=orthogonalEdgeStyle;rounded=0;orthogonalLoop=1;jettySize=auto;html=1;" edge="1" parent="1" source="XHxUQaSKLuy_v2T0ugLt-131">
          <mxGeometry relative="1" as="geometry">
            <mxPoint x="-535.65" y="7930" as="targetPoint" />
          </mxGeometry>
        </mxCell>
        <mxCell id="XHxUQaSKLuy_v2T0ugLt-131" value="&lt;font style=&quot;font-size: 12px;&quot;&gt;RC[1]&lt;/font&gt;" style="rounded=1;whiteSpace=wrap;html=1;fillColor=#a20025;fontColor=#ffffff;strokeColor=#6F0000;" vertex="1" parent="1">
          <mxGeometry x="-557.4599999999999" y="7968" width="45" height="20" as="geometry" />
        </mxCell>
        <mxCell id="XHxUQaSKLuy_v2T0ugLt-133" value="" style="shape=flexArrow;endArrow=classic;html=1;rounded=0;width=24.054054054054053;endSize=7.1702702702702705;fillColor=#d80073;strokeColor=#A50040;" edge="1" parent="1">
          <mxGeometry width="50" height="50" relative="1" as="geometry">
            <mxPoint x="-497.2099999999999" y="7763" as="sourcePoint" />
            <mxPoint x="-452.21" y="7763" as="targetPoint" />
          </mxGeometry>
        </mxCell>
        <mxCell id="XHxUQaSKLuy_v2T0ugLt-134" value="calc" style="edgeLabel;html=1;align=center;verticalAlign=middle;resizable=0;points=[];" vertex="1" connectable="0" parent="XHxUQaSKLuy_v2T0ugLt-133">
          <mxGeometry x="-0.3297" relative="1" as="geometry">
            <mxPoint as="offset" />
          </mxGeometry>
        </mxCell>
        <mxCell id="XHxUQaSKLuy_v2T0ugLt-136" style="edgeStyle=orthogonalEdgeStyle;rounded=0;orthogonalLoop=1;jettySize=auto;html=1;" edge="1" parent="1" source="XHxUQaSKLuy_v2T0ugLt-135">
          <mxGeometry relative="1" as="geometry">
            <mxPoint x="-479.7099999999999" y="7773" as="targetPoint" />
          </mxGeometry>
        </mxCell>
        <mxCell id="XHxUQaSKLuy_v2T0ugLt-135" value="&lt;font style=&quot;font-size: 12px;&quot;&gt;RC[0]&lt;/font&gt;" style="rounded=1;whiteSpace=wrap;html=1;fillColor=#6a00ff;fontColor=#ffffff;strokeColor=#3700CC;" vertex="1" parent="1">
          <mxGeometry x="-502.2099999999999" y="7813" width="45" height="20" as="geometry" />
        </mxCell>
        <mxCell id="XHxUQaSKLuy_v2T0ugLt-141" style="edgeStyle=orthogonalEdgeStyle;rounded=0;orthogonalLoop=1;jettySize=auto;html=1;" edge="1" parent="1" source="XHxUQaSKLuy_v2T0ugLt-142">
          <mxGeometry relative="1" as="geometry">
            <mxPoint x="-405.5300000000001" y="8053.000000000001" as="targetPoint" />
          </mxGeometry>
        </mxCell>
        <mxCell id="XHxUQaSKLuy_v2T0ugLt-142" value="&lt;font style=&quot;font-size: 12px;&quot;&gt;tile6~7&lt;/font&gt;" style="rounded=1;whiteSpace=wrap;html=1;" vertex="1" parent="1">
          <mxGeometry x="-428.02999999999986" y="8093" width="45" height="20" as="geometry" />
        </mxCell>
        <mxCell id="XHxUQaSKLuy_v2T0ugLt-143" value="" style="shape=flexArrow;endArrow=classic;html=1;rounded=0;width=24.054054054054053;endSize=7.1702702702702705;fillColor=#60a917;strokeColor=#2D7600;" edge="1" parent="1">
          <mxGeometry width="50" height="50" relative="1" as="geometry">
            <mxPoint x="-445.2099999999999" y="8043" as="sourcePoint" />
            <mxPoint x="-330.21" y="8043" as="targetPoint" />
          </mxGeometry>
        </mxCell>
        <mxCell id="XHxUQaSKLuy_v2T0ugLt-144" value="ldgsts" style="edgeLabel;html=1;align=center;verticalAlign=middle;resizable=0;points=[];" vertex="1" connectable="0" parent="XHxUQaSKLuy_v2T0ugLt-143">
          <mxGeometry x="-0.3297" relative="1" as="geometry">
            <mxPoint as="offset" />
          </mxGeometry>
        </mxCell>
        <mxCell id="XHxUQaSKLuy_v2T0ugLt-148" value="" style="shape=flexArrow;endArrow=classic;html=1;rounded=0;width=24.054054054054053;endSize=7.1702702702702705;fillColor=#0050ef;strokeColor=#001DBC;" edge="1" parent="1">
          <mxGeometry width="50" height="50" relative="1" as="geometry">
            <mxPoint x="-327.56" y="7760" as="sourcePoint" />
            <mxPoint x="-267.56" y="7760" as="targetPoint" />
          </mxGeometry>
        </mxCell>
        <mxCell id="XHxUQaSKLuy_v2T0ugLt-149" value="lds" style="edgeLabel;html=1;align=center;verticalAlign=middle;resizable=0;points=[];" vertex="1" connectable="0" parent="XHxUQaSKLuy_v2T0ugLt-148">
          <mxGeometry x="-0.3297" relative="1" as="geometry">
            <mxPoint as="offset" />
          </mxGeometry>
        </mxCell>
        <mxCell id="XHxUQaSKLuy_v2T0ugLt-150" style="edgeStyle=orthogonalEdgeStyle;rounded=0;orthogonalLoop=1;jettySize=auto;html=1;" edge="1" parent="1" source="XHxUQaSKLuy_v2T0ugLt-151">
          <mxGeometry relative="1" as="geometry">
            <mxPoint x="-304.06" y="7750" as="targetPoint" />
          </mxGeometry>
        </mxCell>
        <mxCell id="XHxUQaSKLuy_v2T0ugLt-151" value="&lt;font style=&quot;font-size: 12px;&quot;&gt;tile4&lt;/font&gt;" style="rounded=1;whiteSpace=wrap;html=1;fillColor=#1ba1e2;fontColor=#ffffff;strokeColor=#006EAF;" vertex="1" parent="1">
          <mxGeometry x="-326.56" y="7703" width="45" height="20" as="geometry" />
        </mxCell>
        <mxCell id="XHxUQaSKLuy_v2T0ugLt-152" style="edgeStyle=orthogonalEdgeStyle;rounded=0;orthogonalLoop=1;jettySize=auto;html=1;" edge="1" parent="1" source="XHxUQaSKLuy_v2T0ugLt-153">
          <mxGeometry relative="1" as="geometry">
            <mxPoint x="-304.06" y="7769.999999999999" as="targetPoint" />
          </mxGeometry>
        </mxCell>
        <mxCell id="XHxUQaSKLuy_v2T0ugLt-153" value="&lt;font style=&quot;font-size: 12px;&quot;&gt;RAB[0]&lt;/font&gt;" style="rounded=1;whiteSpace=wrap;html=1;fillColor=#6a00ff;fontColor=#ffffff;strokeColor=#3700CC;" vertex="1" parent="1">
          <mxGeometry x="-326.56" y="7813" width="45" height="20" as="geometry" />
        </mxCell>
        <mxCell id="XHxUQaSKLuy_v2T0ugLt-154" value="" style="shape=flexArrow;endArrow=classic;html=1;rounded=0;width=24.054054054054053;endSize=7.1702702702702705;fillColor=#d80073;strokeColor=#A50040;" edge="1" parent="1">
          <mxGeometry width="50" height="50" relative="1" as="geometry">
            <mxPoint x="-321.69" y="7920" as="sourcePoint" />
            <mxPoint x="-276.69" y="7920" as="targetPoint" />
          </mxGeometry>
        </mxCell>
        <mxCell id="XHxUQaSKLuy_v2T0ugLt-155" value="calc" style="edgeLabel;html=1;align=center;verticalAlign=middle;resizable=0;points=[];" vertex="1" connectable="0" parent="XHxUQaSKLuy_v2T0ugLt-154">
          <mxGeometry x="-0.3297" relative="1" as="geometry">
            <mxPoint as="offset" />
          </mxGeometry>
        </mxCell>
        <mxCell id="XHxUQaSKLuy_v2T0ugLt-156" style="edgeStyle=orthogonalEdgeStyle;rounded=0;orthogonalLoop=1;jettySize=auto;html=1;" edge="1" parent="1" source="XHxUQaSKLuy_v2T0ugLt-157">
          <mxGeometry relative="1" as="geometry">
            <mxPoint x="-304.19" y="7930" as="targetPoint" />
          </mxGeometry>
        </mxCell>
        <mxCell id="XHxUQaSKLuy_v2T0ugLt-157" value="&lt;font style=&quot;font-size: 12px;&quot;&gt;RC[1]&lt;/font&gt;" style="rounded=1;whiteSpace=wrap;html=1;fillColor=#a20025;fontColor=#ffffff;strokeColor=#6F0000;" vertex="1" parent="1">
          <mxGeometry x="-325.99999999999994" y="7968" width="45" height="20" as="geometry" />
        </mxCell>
        <mxCell id="XHxUQaSKLuy_v2T0ugLt-158" value="" style="shape=flexArrow;endArrow=classic;html=1;rounded=0;width=24.054054054054053;endSize=7.1702702702702705;fillColor=#0050ef;strokeColor=#001DBC;" edge="1" parent="1">
          <mxGeometry width="50" height="50" relative="1" as="geometry">
            <mxPoint x="-277.1500000000001" y="7920" as="sourcePoint" />
            <mxPoint x="-217.14999999999998" y="7920" as="targetPoint" />
          </mxGeometry>
        </mxCell>
        <mxCell id="XHxUQaSKLuy_v2T0ugLt-159" value="lds" style="edgeLabel;html=1;align=center;verticalAlign=middle;resizable=0;points=[];" vertex="1" connectable="0" parent="XHxUQaSKLuy_v2T0ugLt-158">
          <mxGeometry x="-0.3297" relative="1" as="geometry">
            <mxPoint as="offset" />
          </mxGeometry>
        </mxCell>
        <mxCell id="XHxUQaSKLuy_v2T0ugLt-160" style="edgeStyle=orthogonalEdgeStyle;rounded=0;orthogonalLoop=1;jettySize=auto;html=1;" edge="1" parent="1" source="XHxUQaSKLuy_v2T0ugLt-161">
          <mxGeometry relative="1" as="geometry">
            <mxPoint x="-253.6500000000001" y="7909.999999999999" as="targetPoint" />
          </mxGeometry>
        </mxCell>
        <mxCell id="XHxUQaSKLuy_v2T0ugLt-161" value="&lt;font style=&quot;font-size: 12px;&quot;&gt;tile5&lt;/font&gt;" style="rounded=1;whiteSpace=wrap;html=1;fillColor=#1ba1e2;fontColor=#ffffff;strokeColor=#006EAF;" vertex="1" parent="1">
          <mxGeometry x="-276.1500000000001" y="7863" width="45" height="20" as="geometry" />
        </mxCell>
        <mxCell id="XHxUQaSKLuy_v2T0ugLt-162" style="edgeStyle=orthogonalEdgeStyle;rounded=0;orthogonalLoop=1;jettySize=auto;html=1;" edge="1" parent="1" source="XHxUQaSKLuy_v2T0ugLt-163">
          <mxGeometry relative="1" as="geometry">
            <mxPoint x="-255.46000000000004" y="7929.999999999999" as="targetPoint" />
          </mxGeometry>
        </mxCell>
        <mxCell id="XHxUQaSKLuy_v2T0ugLt-163" value="&lt;font style=&quot;font-size: 12px;&quot;&gt;RAB[1]&lt;/font&gt;" style="rounded=1;whiteSpace=wrap;html=1;fillColor=#a20025;fontColor=#ffffff;strokeColor=#6F0000;" vertex="1" parent="1">
          <mxGeometry x="-277.96000000000004" y="7968" width="45" height="20" as="geometry" />
        </mxCell>
        <mxCell id="XHxUQaSKLuy_v2T0ugLt-164" value="" style="shape=flexArrow;endArrow=classic;html=1;rounded=0;width=24.054054054054053;endSize=7.1702702702702705;fillColor=#d80073;strokeColor=#A50040;" edge="1" parent="1">
          <mxGeometry width="50" height="50" relative="1" as="geometry">
            <mxPoint x="-266" y="7760" as="sourcePoint" />
            <mxPoint x="-221" y="7760" as="targetPoint" />
          </mxGeometry>
        </mxCell>
        <mxCell id="XHxUQaSKLuy_v2T0ugLt-165" value="calc" style="edgeLabel;html=1;align=center;verticalAlign=middle;resizable=0;points=[];" vertex="1" connectable="0" parent="XHxUQaSKLuy_v2T0ugLt-164">
          <mxGeometry x="-0.3297" relative="1" as="geometry">
            <mxPoint as="offset" />
          </mxGeometry>
        </mxCell>
        <mxCell id="XHxUQaSKLuy_v2T0ugLt-166" style="edgeStyle=orthogonalEdgeStyle;rounded=0;orthogonalLoop=1;jettySize=auto;html=1;" edge="1" parent="1" source="XHxUQaSKLuy_v2T0ugLt-167">
          <mxGeometry relative="1" as="geometry">
            <mxPoint x="-248.5" y="7770" as="targetPoint" />
          </mxGeometry>
        </mxCell>
        <mxCell id="XHxUQaSKLuy_v2T0ugLt-167" value="&lt;font style=&quot;font-size: 12px;&quot;&gt;RC[0]&lt;/font&gt;" style="rounded=1;whiteSpace=wrap;html=1;fillColor=#6a00ff;fontColor=#ffffff;strokeColor=#3700CC;" vertex="1" parent="1">
          <mxGeometry x="-271" y="7813" width="45" height="20" as="geometry" />
        </mxCell>
        <mxCell id="XHxUQaSKLuy_v2T0ugLt-168" style="edgeStyle=orthogonalEdgeStyle;rounded=0;orthogonalLoop=1;jettySize=auto;html=1;" edge="1" parent="1" source="XHxUQaSKLuy_v2T0ugLt-169">
          <mxGeometry relative="1" as="geometry">
            <mxPoint x="-176.63000000000017" y="8053.000000000001" as="targetPoint" />
          </mxGeometry>
        </mxCell>
        <mxCell id="XHxUQaSKLuy_v2T0ugLt-169" value="&lt;font style=&quot;font-size: 12px;&quot;&gt;tile8~9&lt;/font&gt;" style="rounded=1;whiteSpace=wrap;html=1;" vertex="1" parent="1">
          <mxGeometry x="-199.12999999999994" y="8093" width="45" height="20" as="geometry" />
        </mxCell>
        <mxCell id="XHxUQaSKLuy_v2T0ugLt-170" value="" style="shape=flexArrow;endArrow=classic;html=1;rounded=0;width=24.054054054054053;endSize=7.1702702702702705;fillColor=#60a917;strokeColor=#2D7600;" edge="1" parent="1">
          <mxGeometry width="50" height="50" relative="1" as="geometry">
            <mxPoint x="-216.31" y="8043" as="sourcePoint" />
            <mxPoint x="-101.30999999999999" y="8043" as="targetPoint" />
          </mxGeometry>
        </mxCell>
        <mxCell id="XHxUQaSKLuy_v2T0ugLt-171" value="ldgsts" style="edgeLabel;html=1;align=center;verticalAlign=middle;resizable=0;points=[];" vertex="1" connectable="0" parent="XHxUQaSKLuy_v2T0ugLt-170">
          <mxGeometry x="-0.3297" relative="1" as="geometry">
            <mxPoint as="offset" />
          </mxGeometry>
        </mxCell>
        <mxCell id="XHxUQaSKLuy_v2T0ugLt-172" value="" style="endArrow=none;html=1;rounded=0;strokeWidth=5;fillColor=#6a00ff;strokeColor=#3700CC;" edge="1" parent="1">
          <mxGeometry width="50" height="50" relative="1" as="geometry">
            <mxPoint x="-327.39" y="8103" as="sourcePoint" />
            <mxPoint x="-327.39" y="7680" as="targetPoint" />
          </mxGeometry>
        </mxCell>
        <mxCell id="XHxUQaSKLuy_v2T0ugLt-173" value="" style="endArrow=none;html=1;rounded=0;strokeWidth=5;fillColor=#6a00ff;strokeColor=#3700CC;" edge="1" parent="1">
          <mxGeometry width="50" height="50" relative="1" as="geometry">
            <mxPoint x="-97.74999999999994" y="8103" as="sourcePoint" />
            <mxPoint x="-97.74999999999994" y="7680" as="targetPoint" />
          </mxGeometry>
        </mxCell>
        <mxCell id="XHxUQaSKLuy_v2T0ugLt-174" value="" style="endArrow=none;html=1;rounded=0;strokeWidth=5;fillColor=#6a00ff;strokeColor=#3700CC;" edge="1" parent="1">
          <mxGeometry width="50" height="50" relative="1" as="geometry">
            <mxPoint x="54.690000000000026" y="8103" as="sourcePoint" />
            <mxPoint x="54.690000000000026" y="7680" as="targetPoint" />
          </mxGeometry>
        </mxCell>
        <mxCell id="XHxUQaSKLuy_v2T0ugLt-175" value="" style="shape=flexArrow;endArrow=classic;html=1;rounded=0;width=54.16666666666667;endSize=7.641666666666667;" edge="1" parent="1">
          <mxGeometry width="50" height="50" relative="1" as="geometry">
            <mxPoint x="-59.28999999999999" y="7872.58" as="sourcePoint" />
            <mxPoint x="30.70999999999998" y="7872.58" as="targetPoint" />
          </mxGeometry>
        </mxCell>
        <mxCell id="XHxUQaSKLuy_v2T0ugLt-176" value="&lt;font style=&quot;font-size: 32px;&quot;&gt;...&lt;/font&gt;" style="edgeLabel;html=1;align=center;verticalAlign=middle;resizable=0;points=[];" vertex="1" connectable="0" parent="XHxUQaSKLuy_v2T0ugLt-175">
          <mxGeometry x="-0.2685" y="5" relative="1" as="geometry">
            <mxPoint as="offset" />
          </mxGeometry>
        </mxCell>
        <mxCell id="XHxUQaSKLuy_v2T0ugLt-177" value="" style="shape=flexArrow;endArrow=classic;html=1;rounded=0;width=24.054054054054053;endSize=7.1702702702702705;fillColor=#0050ef;strokeColor=#001DBC;" edge="1" parent="1">
          <mxGeometry width="50" height="50" relative="1" as="geometry">
            <mxPoint x="56.43999999999997" y="7760" as="sourcePoint" />
            <mxPoint x="116.43999999999998" y="7760" as="targetPoint" />
          </mxGeometry>
        </mxCell>
        <mxCell id="XHxUQaSKLuy_v2T0ugLt-178" value="lds" style="edgeLabel;html=1;align=center;verticalAlign=middle;resizable=0;points=[];" vertex="1" connectable="0" parent="XHxUQaSKLuy_v2T0ugLt-177">
          <mxGeometry x="-0.3297" relative="1" as="geometry">
            <mxPoint as="offset" />
          </mxGeometry>
        </mxCell>
        <mxCell id="XHxUQaSKLuy_v2T0ugLt-179" style="edgeStyle=orthogonalEdgeStyle;rounded=0;orthogonalLoop=1;jettySize=auto;html=1;" edge="1" parent="1" source="XHxUQaSKLuy_v2T0ugLt-180">
          <mxGeometry relative="1" as="geometry">
            <mxPoint x="79.93999999999998" y="7750" as="targetPoint" />
          </mxGeometry>
        </mxCell>
        <mxCell id="XHxUQaSKLuy_v2T0ugLt-180" value="&lt;font style=&quot;font-size: 12px;&quot;&gt;tile n-5&lt;/font&gt;" style="rounded=1;whiteSpace=wrap;html=1;fillColor=#1ba1e2;fontColor=#ffffff;strokeColor=#006EAF;" vertex="1" parent="1">
          <mxGeometry x="57.43999999999997" y="7703" width="45" height="20" as="geometry" />
        </mxCell>
        <mxCell id="XHxUQaSKLuy_v2T0ugLt-181" style="edgeStyle=orthogonalEdgeStyle;rounded=0;orthogonalLoop=1;jettySize=auto;html=1;" edge="1" parent="1" source="XHxUQaSKLuy_v2T0ugLt-182">
          <mxGeometry relative="1" as="geometry">
            <mxPoint x="79.93999999999998" y="7769.999999999999" as="targetPoint" />
          </mxGeometry>
        </mxCell>
        <mxCell id="XHxUQaSKLuy_v2T0ugLt-182" value="&lt;font style=&quot;font-size: 12px;&quot;&gt;RAB[0]&lt;/font&gt;" style="rounded=1;whiteSpace=wrap;html=1;fillColor=#6a00ff;fontColor=#ffffff;strokeColor=#3700CC;" vertex="1" parent="1">
          <mxGeometry x="57.43999999999997" y="7813" width="45" height="20" as="geometry" />
        </mxCell>
        <mxCell id="XHxUQaSKLuy_v2T0ugLt-183" value="" style="shape=flexArrow;endArrow=classic;html=1;rounded=0;width=24.054054054054053;endSize=7.1702702702702705;fillColor=#d80073;strokeColor=#A50040;" edge="1" parent="1">
          <mxGeometry width="50" height="50" relative="1" as="geometry">
            <mxPoint x="62.309999999999974" y="7920" as="sourcePoint" />
            <mxPoint x="107.30999999999999" y="7920" as="targetPoint" />
          </mxGeometry>
        </mxCell>
        <mxCell id="XHxUQaSKLuy_v2T0ugLt-184" value="calc" style="edgeLabel;html=1;align=center;verticalAlign=middle;resizable=0;points=[];" vertex="1" connectable="0" parent="XHxUQaSKLuy_v2T0ugLt-183">
          <mxGeometry x="-0.3297" relative="1" as="geometry">
            <mxPoint as="offset" />
          </mxGeometry>
        </mxCell>
        <mxCell id="XHxUQaSKLuy_v2T0ugLt-185" style="edgeStyle=orthogonalEdgeStyle;rounded=0;orthogonalLoop=1;jettySize=auto;html=1;" edge="1" parent="1" source="XHxUQaSKLuy_v2T0ugLt-186">
          <mxGeometry relative="1" as="geometry">
            <mxPoint x="79.80999999999999" y="7930" as="targetPoint" />
          </mxGeometry>
        </mxCell>
        <mxCell id="XHxUQaSKLuy_v2T0ugLt-186" value="&lt;font style=&quot;font-size: 12px;&quot;&gt;RC[1]&lt;/font&gt;" style="rounded=1;whiteSpace=wrap;html=1;fillColor=#a20025;fontColor=#ffffff;strokeColor=#6F0000;" vertex="1" parent="1">
          <mxGeometry x="58.00000000000003" y="7968" width="45" height="20" as="geometry" />
        </mxCell>
        <mxCell id="XHxUQaSKLuy_v2T0ugLt-187" value="" style="shape=flexArrow;endArrow=classic;html=1;rounded=0;width=24.054054054054053;endSize=7.1702702702702705;fillColor=#0050ef;strokeColor=#001DBC;" edge="1" parent="1">
          <mxGeometry width="50" height="50" relative="1" as="geometry">
            <mxPoint x="106.8499999999999" y="7920" as="sourcePoint" />
            <mxPoint x="166.85" y="7920" as="targetPoint" />
          </mxGeometry>
        </mxCell>
        <mxCell id="XHxUQaSKLuy_v2T0ugLt-188" value="lds" style="edgeLabel;html=1;align=center;verticalAlign=middle;resizable=0;points=[];" vertex="1" connectable="0" parent="XHxUQaSKLuy_v2T0ugLt-187">
          <mxGeometry x="-0.3297" relative="1" as="geometry">
            <mxPoint as="offset" />
          </mxGeometry>
        </mxCell>
        <mxCell id="XHxUQaSKLuy_v2T0ugLt-189" style="edgeStyle=orthogonalEdgeStyle;rounded=0;orthogonalLoop=1;jettySize=auto;html=1;" edge="1" parent="1" source="XHxUQaSKLuy_v2T0ugLt-190">
          <mxGeometry relative="1" as="geometry">
            <mxPoint x="130.3499999999999" y="7909.999999999999" as="targetPoint" />
          </mxGeometry>
        </mxCell>
        <mxCell id="XHxUQaSKLuy_v2T0ugLt-190" value="&lt;font style=&quot;font-size: 12px;&quot;&gt;tile n-4&lt;/font&gt;" style="rounded=1;whiteSpace=wrap;html=1;fillColor=#1ba1e2;fontColor=#ffffff;strokeColor=#006EAF;" vertex="1" parent="1">
          <mxGeometry x="107.8499999999999" y="7863" width="45" height="20" as="geometry" />
        </mxCell>
        <mxCell id="XHxUQaSKLuy_v2T0ugLt-191" style="edgeStyle=orthogonalEdgeStyle;rounded=0;orthogonalLoop=1;jettySize=auto;html=1;" edge="1" parent="1" source="XHxUQaSKLuy_v2T0ugLt-192">
          <mxGeometry relative="1" as="geometry">
            <mxPoint x="128.53999999999996" y="7929.999999999999" as="targetPoint" />
          </mxGeometry>
        </mxCell>
        <mxCell id="XHxUQaSKLuy_v2T0ugLt-192" value="&lt;font style=&quot;font-size: 12px;&quot;&gt;RAB[1]&lt;/font&gt;" style="rounded=1;whiteSpace=wrap;html=1;fillColor=#a20025;fontColor=#ffffff;strokeColor=#6F0000;" vertex="1" parent="1">
          <mxGeometry x="106.03999999999995" y="7968" width="45" height="20" as="geometry" />
        </mxCell>
        <mxCell id="XHxUQaSKLuy_v2T0ugLt-193" value="" style="shape=flexArrow;endArrow=classic;html=1;rounded=0;width=24.054054054054053;endSize=7.1702702702702705;fillColor=#d80073;strokeColor=#A50040;" edge="1" parent="1">
          <mxGeometry width="50" height="50" relative="1" as="geometry">
            <mxPoint x="117.99999999999999" y="7760" as="sourcePoint" />
            <mxPoint x="162.99999999999997" y="7760" as="targetPoint" />
          </mxGeometry>
        </mxCell>
        <mxCell id="XHxUQaSKLuy_v2T0ugLt-194" value="calc" style="edgeLabel;html=1;align=center;verticalAlign=middle;resizable=0;points=[];" vertex="1" connectable="0" parent="XHxUQaSKLuy_v2T0ugLt-193">
          <mxGeometry x="-0.3297" relative="1" as="geometry">
            <mxPoint as="offset" />
          </mxGeometry>
        </mxCell>
        <mxCell id="XHxUQaSKLuy_v2T0ugLt-195" style="edgeStyle=orthogonalEdgeStyle;rounded=0;orthogonalLoop=1;jettySize=auto;html=1;" edge="1" parent="1" source="XHxUQaSKLuy_v2T0ugLt-196">
          <mxGeometry relative="1" as="geometry">
            <mxPoint x="135.5" y="7770" as="targetPoint" />
          </mxGeometry>
        </mxCell>
        <mxCell id="XHxUQaSKLuy_v2T0ugLt-196" value="&lt;font style=&quot;font-size: 12px;&quot;&gt;RC[0]&lt;/font&gt;" style="rounded=1;whiteSpace=wrap;html=1;fillColor=#6a00ff;fontColor=#ffffff;strokeColor=#3700CC;" vertex="1" parent="1">
          <mxGeometry x="112.99999999999999" y="7813" width="45" height="20" as="geometry" />
        </mxCell>
        <mxCell id="XHxUQaSKLuy_v2T0ugLt-197" style="edgeStyle=orthogonalEdgeStyle;rounded=0;orthogonalLoop=1;jettySize=auto;html=1;" edge="1" parent="1" source="XHxUQaSKLuy_v2T0ugLt-198">
          <mxGeometry relative="1" as="geometry">
            <mxPoint x="207.67999999999984" y="8053.000000000001" as="targetPoint" />
          </mxGeometry>
        </mxCell>
        <mxCell id="XHxUQaSKLuy_v2T0ugLt-198" value="&lt;font style=&quot;font-size: 12px;&quot;&gt;tile n-1~n&lt;/font&gt;" style="rounded=1;whiteSpace=wrap;html=1;" vertex="1" parent="1">
          <mxGeometry x="177" y="8093" width="62.82" height="20" as="geometry" />
        </mxCell>
        <mxCell id="XHxUQaSKLuy_v2T0ugLt-199" value="" style="shape=flexArrow;endArrow=classic;html=1;rounded=0;width=24.054054054054053;endSize=7.1702702702702705;fillColor=#60a917;strokeColor=#2D7600;" edge="1" parent="1">
          <mxGeometry width="50" height="50" relative="1" as="geometry">
            <mxPoint x="168" y="8043" as="sourcePoint" />
            <mxPoint x="283" y="8043" as="targetPoint" />
          </mxGeometry>
        </mxCell>
        <mxCell id="XHxUQaSKLuy_v2T0ugLt-200" value="ldgsts" style="edgeLabel;html=1;align=center;verticalAlign=middle;resizable=0;points=[];" vertex="1" connectable="0" parent="XHxUQaSKLuy_v2T0ugLt-199">
          <mxGeometry x="-0.3297" relative="1" as="geometry">
            <mxPoint as="offset" />
          </mxGeometry>
        </mxCell>
        <mxCell id="XHxUQaSKLuy_v2T0ugLt-201" value="" style="endArrow=none;html=1;rounded=0;strokeWidth=5;fillColor=#6a00ff;strokeColor=#3700CC;" edge="1" parent="1">
          <mxGeometry width="50" height="50" relative="1" as="geometry">
            <mxPoint x="283.73" y="8120" as="sourcePoint" />
            <mxPoint x="283.7300000000001" y="7680" as="targetPoint" />
          </mxGeometry>
        </mxCell>
        <mxCell id="XHxUQaSKLuy_v2T0ugLt-202" value="" style="shape=flexArrow;endArrow=classic;html=1;rounded=0;width=24.054054054054053;endSize=7.1702702702702705;fillColor=#0050ef;strokeColor=#001DBC;" edge="1" parent="1">
          <mxGeometry width="50" height="50" relative="1" as="geometry">
            <mxPoint x="285.73" y="7760" as="sourcePoint" />
            <mxPoint x="345.73" y="7760" as="targetPoint" />
          </mxGeometry>
        </mxCell>
        <mxCell id="XHxUQaSKLuy_v2T0ugLt-203" value="lds" style="edgeLabel;html=1;align=center;verticalAlign=middle;resizable=0;points=[];" vertex="1" connectable="0" parent="XHxUQaSKLuy_v2T0ugLt-202">
          <mxGeometry x="-0.3297" relative="1" as="geometry">
            <mxPoint as="offset" />
          </mxGeometry>
        </mxCell>
        <mxCell id="XHxUQaSKLuy_v2T0ugLt-204" style="edgeStyle=orthogonalEdgeStyle;rounded=0;orthogonalLoop=1;jettySize=auto;html=1;" edge="1" parent="1" source="XHxUQaSKLuy_v2T0ugLt-205">
          <mxGeometry relative="1" as="geometry">
            <mxPoint x="309.23" y="7750" as="targetPoint" />
          </mxGeometry>
        </mxCell>
        <mxCell id="XHxUQaSKLuy_v2T0ugLt-205" value="&lt;font style=&quot;font-size: 12px;&quot;&gt;tile n-3&lt;/font&gt;" style="rounded=1;whiteSpace=wrap;html=1;fillColor=#1ba1e2;fontColor=#ffffff;strokeColor=#006EAF;" vertex="1" parent="1">
          <mxGeometry x="286.73" y="7703" width="45" height="20" as="geometry" />
        </mxCell>
        <mxCell id="XHxUQaSKLuy_v2T0ugLt-206" style="edgeStyle=orthogonalEdgeStyle;rounded=0;orthogonalLoop=1;jettySize=auto;html=1;" edge="1" parent="1" source="XHxUQaSKLuy_v2T0ugLt-207">
          <mxGeometry relative="1" as="geometry">
            <mxPoint x="309.23" y="7769.999999999999" as="targetPoint" />
          </mxGeometry>
        </mxCell>
        <mxCell id="XHxUQaSKLuy_v2T0ugLt-207" value="&lt;font style=&quot;font-size: 12px;&quot;&gt;RAB[0]&lt;/font&gt;" style="rounded=1;whiteSpace=wrap;html=1;fillColor=#6a00ff;fontColor=#ffffff;strokeColor=#3700CC;" vertex="1" parent="1">
          <mxGeometry x="286.73" y="7813" width="45" height="20" as="geometry" />
        </mxCell>
        <mxCell id="XHxUQaSKLuy_v2T0ugLt-208" value="" style="shape=flexArrow;endArrow=classic;html=1;rounded=0;width=24.054054054054053;endSize=7.1702702702702705;fillColor=#d80073;strokeColor=#A50040;" edge="1" parent="1">
          <mxGeometry width="50" height="50" relative="1" as="geometry">
            <mxPoint x="291.6" y="7920" as="sourcePoint" />
            <mxPoint x="336.6" y="7920" as="targetPoint" />
          </mxGeometry>
        </mxCell>
        <mxCell id="XHxUQaSKLuy_v2T0ugLt-209" value="calc" style="edgeLabel;html=1;align=center;verticalAlign=middle;resizable=0;points=[];" vertex="1" connectable="0" parent="XHxUQaSKLuy_v2T0ugLt-208">
          <mxGeometry x="-0.3297" relative="1" as="geometry">
            <mxPoint as="offset" />
          </mxGeometry>
        </mxCell>
        <mxCell id="XHxUQaSKLuy_v2T0ugLt-210" style="edgeStyle=orthogonalEdgeStyle;rounded=0;orthogonalLoop=1;jettySize=auto;html=1;" edge="1" parent="1" source="XHxUQaSKLuy_v2T0ugLt-211">
          <mxGeometry relative="1" as="geometry">
            <mxPoint x="309.1" y="7930" as="targetPoint" />
          </mxGeometry>
        </mxCell>
        <mxCell id="XHxUQaSKLuy_v2T0ugLt-211" value="&lt;font style=&quot;font-size: 12px;&quot;&gt;RC[1]&lt;/font&gt;" style="rounded=1;whiteSpace=wrap;html=1;fillColor=#a20025;fontColor=#ffffff;strokeColor=#6F0000;" vertex="1" parent="1">
          <mxGeometry x="287.2900000000001" y="7968" width="45" height="20" as="geometry" />
        </mxCell>
        <mxCell id="XHxUQaSKLuy_v2T0ugLt-213" value="" style="shape=flexArrow;endArrow=classic;html=1;rounded=0;width=24.054054054054053;endSize=7.1702702702702705;fillColor=#0050ef;strokeColor=#001DBC;" edge="1" parent="1">
          <mxGeometry width="50" height="50" relative="1" as="geometry">
            <mxPoint x="336.13999999999993" y="7920" as="sourcePoint" />
            <mxPoint x="396.14000000000004" y="7920" as="targetPoint" />
          </mxGeometry>
        </mxCell>
        <mxCell id="XHxUQaSKLuy_v2T0ugLt-214" value="lds" style="edgeLabel;html=1;align=center;verticalAlign=middle;resizable=0;points=[];" vertex="1" connectable="0" parent="XHxUQaSKLuy_v2T0ugLt-213">
          <mxGeometry x="-0.3297" relative="1" as="geometry">
            <mxPoint as="offset" />
          </mxGeometry>
        </mxCell>
        <mxCell id="XHxUQaSKLuy_v2T0ugLt-215" style="edgeStyle=orthogonalEdgeStyle;rounded=0;orthogonalLoop=1;jettySize=auto;html=1;" edge="1" parent="1" source="XHxUQaSKLuy_v2T0ugLt-216">
          <mxGeometry relative="1" as="geometry">
            <mxPoint x="359.63999999999993" y="7909.999999999999" as="targetPoint" />
          </mxGeometry>
        </mxCell>
        <mxCell id="XHxUQaSKLuy_v2T0ugLt-216" value="&lt;font style=&quot;font-size: 12px;&quot;&gt;tile n-2&lt;/font&gt;" style="rounded=1;whiteSpace=wrap;html=1;fillColor=#1ba1e2;fontColor=#ffffff;strokeColor=#006EAF;" vertex="1" parent="1">
          <mxGeometry x="337.13999999999993" y="7863" width="45" height="20" as="geometry" />
        </mxCell>
        <mxCell id="XHxUQaSKLuy_v2T0ugLt-217" style="edgeStyle=orthogonalEdgeStyle;rounded=0;orthogonalLoop=1;jettySize=auto;html=1;" edge="1" parent="1" source="XHxUQaSKLuy_v2T0ugLt-218">
          <mxGeometry relative="1" as="geometry">
            <mxPoint x="357.83" y="7929.999999999999" as="targetPoint" />
          </mxGeometry>
        </mxCell>
        <mxCell id="XHxUQaSKLuy_v2T0ugLt-218" value="&lt;font style=&quot;font-size: 12px;&quot;&gt;RAB[1]&lt;/font&gt;" style="rounded=1;whiteSpace=wrap;html=1;fillColor=#a20025;fontColor=#ffffff;strokeColor=#6F0000;" vertex="1" parent="1">
          <mxGeometry x="335.33" y="7968" width="45" height="20" as="geometry" />
        </mxCell>
        <mxCell id="XHxUQaSKLuy_v2T0ugLt-219" value="" style="shape=flexArrow;endArrow=classic;html=1;rounded=0;width=24.054054054054053;endSize=7.1702702702702705;fillColor=#d80073;strokeColor=#A50040;" edge="1" parent="1">
          <mxGeometry width="50" height="50" relative="1" as="geometry">
            <mxPoint x="347.29" y="7760" as="sourcePoint" />
            <mxPoint x="392.29" y="7760" as="targetPoint" />
          </mxGeometry>
        </mxCell>
        <mxCell id="XHxUQaSKLuy_v2T0ugLt-220" value="calc" style="edgeLabel;html=1;align=center;verticalAlign=middle;resizable=0;points=[];" vertex="1" connectable="0" parent="XHxUQaSKLuy_v2T0ugLt-219">
          <mxGeometry x="-0.3297" relative="1" as="geometry">
            <mxPoint as="offset" />
          </mxGeometry>
        </mxCell>
        <mxCell id="XHxUQaSKLuy_v2T0ugLt-221" style="edgeStyle=orthogonalEdgeStyle;rounded=0;orthogonalLoop=1;jettySize=auto;html=1;" edge="1" parent="1" source="XHxUQaSKLuy_v2T0ugLt-222">
          <mxGeometry relative="1" as="geometry">
            <mxPoint x="364.79" y="7770" as="targetPoint" />
          </mxGeometry>
        </mxCell>
        <mxCell id="XHxUQaSKLuy_v2T0ugLt-222" value="&lt;font style=&quot;font-size: 12px;&quot;&gt;RC[0]&lt;/font&gt;" style="rounded=1;whiteSpace=wrap;html=1;fillColor=#6a00ff;fontColor=#ffffff;strokeColor=#3700CC;" vertex="1" parent="1">
          <mxGeometry x="342.29" y="7813" width="45" height="20" as="geometry" />
        </mxCell>
        <mxCell id="XHxUQaSKLuy_v2T0ugLt-223" value="" style="endArrow=none;html=1;rounded=0;strokeWidth=5;fillColor=#6a00ff;strokeColor=#3700CC;" edge="1" parent="1">
          <mxGeometry width="50" height="50" relative="1" as="geometry">
            <mxPoint x="398.72" y="8103" as="sourcePoint" />
            <mxPoint x="398.72" y="7680" as="targetPoint" />
          </mxGeometry>
        </mxCell>
        <mxCell id="XHxUQaSKLuy_v2T0ugLt-224" value="" style="shape=flexArrow;endArrow=classic;html=1;rounded=0;width=24.054054054054053;endSize=7.1702702702702705;fillColor=#0050ef;strokeColor=#001DBC;" edge="1" parent="1">
          <mxGeometry width="50" height="50" relative="1" as="geometry">
            <mxPoint x="400.71999999999997" y="7760" as="sourcePoint" />
            <mxPoint x="460.71999999999997" y="7760" as="targetPoint" />
          </mxGeometry>
        </mxCell>
        <mxCell id="XHxUQaSKLuy_v2T0ugLt-225" value="lds" style="edgeLabel;html=1;align=center;verticalAlign=middle;resizable=0;points=[];" vertex="1" connectable="0" parent="XHxUQaSKLuy_v2T0ugLt-224">
          <mxGeometry x="-0.3297" relative="1" as="geometry">
            <mxPoint as="offset" />
          </mxGeometry>
        </mxCell>
        <mxCell id="XHxUQaSKLuy_v2T0ugLt-226" style="edgeStyle=orthogonalEdgeStyle;rounded=0;orthogonalLoop=1;jettySize=auto;html=1;" edge="1" parent="1" source="XHxUQaSKLuy_v2T0ugLt-227">
          <mxGeometry relative="1" as="geometry">
            <mxPoint x="424.21999999999997" y="7750" as="targetPoint" />
          </mxGeometry>
        </mxCell>
        <mxCell id="XHxUQaSKLuy_v2T0ugLt-227" value="&lt;font style=&quot;font-size: 12px;&quot;&gt;tile n-1&lt;/font&gt;" style="rounded=1;whiteSpace=wrap;html=1;fillColor=#1ba1e2;fontColor=#ffffff;strokeColor=#006EAF;" vertex="1" parent="1">
          <mxGeometry x="401.71999999999997" y="7703" width="45" height="20" as="geometry" />
        </mxCell>
        <mxCell id="XHxUQaSKLuy_v2T0ugLt-228" style="edgeStyle=orthogonalEdgeStyle;rounded=0;orthogonalLoop=1;jettySize=auto;html=1;" edge="1" parent="1" source="XHxUQaSKLuy_v2T0ugLt-229">
          <mxGeometry relative="1" as="geometry">
            <mxPoint x="424.21999999999997" y="7769.999999999999" as="targetPoint" />
          </mxGeometry>
        </mxCell>
        <mxCell id="XHxUQaSKLuy_v2T0ugLt-229" value="&lt;font style=&quot;font-size: 12px;&quot;&gt;RAB[0]&lt;/font&gt;" style="rounded=1;whiteSpace=wrap;html=1;fillColor=#6a00ff;fontColor=#ffffff;strokeColor=#3700CC;" vertex="1" parent="1">
          <mxGeometry x="401.71999999999997" y="7813" width="45" height="20" as="geometry" />
        </mxCell>
        <mxCell id="XHxUQaSKLuy_v2T0ugLt-230" value="" style="shape=flexArrow;endArrow=classic;html=1;rounded=0;width=24.054054054054053;endSize=7.1702702702702705;fillColor=#d80073;strokeColor=#A50040;" edge="1" parent="1">
          <mxGeometry width="50" height="50" relative="1" as="geometry">
            <mxPoint x="406.59" y="7920" as="sourcePoint" />
            <mxPoint x="451.59" y="7920" as="targetPoint" />
          </mxGeometry>
        </mxCell>
        <mxCell id="XHxUQaSKLuy_v2T0ugLt-231" value="calc" style="edgeLabel;html=1;align=center;verticalAlign=middle;resizable=0;points=[];" vertex="1" connectable="0" parent="XHxUQaSKLuy_v2T0ugLt-230">
          <mxGeometry x="-0.3297" relative="1" as="geometry">
            <mxPoint as="offset" />
          </mxGeometry>
        </mxCell>
        <mxCell id="XHxUQaSKLuy_v2T0ugLt-232" style="edgeStyle=orthogonalEdgeStyle;rounded=0;orthogonalLoop=1;jettySize=auto;html=1;" edge="1" parent="1" source="XHxUQaSKLuy_v2T0ugLt-233">
          <mxGeometry relative="1" as="geometry">
            <mxPoint x="424.09" y="7930" as="targetPoint" />
          </mxGeometry>
        </mxCell>
        <mxCell id="XHxUQaSKLuy_v2T0ugLt-233" value="&lt;font style=&quot;font-size: 12px;&quot;&gt;RC[1]&lt;/font&gt;" style="rounded=1;whiteSpace=wrap;html=1;fillColor=#a20025;fontColor=#ffffff;strokeColor=#6F0000;" vertex="1" parent="1">
          <mxGeometry x="402.28000000000003" y="7968" width="45" height="20" as="geometry" />
        </mxCell>
        <mxCell id="XHxUQaSKLuy_v2T0ugLt-234" value="" style="endArrow=none;html=1;rounded=0;strokeWidth=5;fillColor=#6a00ff;strokeColor=#3700CC;" edge="1" parent="1">
          <mxGeometry width="50" height="50" relative="1" as="geometry">
            <mxPoint x="463.73" y="8103" as="sourcePoint" />
            <mxPoint x="463.73" y="7680" as="targetPoint" />
          </mxGeometry>
        </mxCell>
        <mxCell id="XHxUQaSKLuy_v2T0ugLt-235" value="" style="shape=flexArrow;endArrow=classic;html=1;rounded=0;width=24.054054054054053;endSize=7.1702702702702705;fillColor=#0050ef;strokeColor=#001DBC;" edge="1" parent="1">
          <mxGeometry width="50" height="50" relative="1" as="geometry">
            <mxPoint x="466.72999999999985" y="7920" as="sourcePoint" />
            <mxPoint x="526.7299999999999" y="7920" as="targetPoint" />
          </mxGeometry>
        </mxCell>
        <mxCell id="XHxUQaSKLuy_v2T0ugLt-236" value="lds" style="edgeLabel;html=1;align=center;verticalAlign=middle;resizable=0;points=[];" vertex="1" connectable="0" parent="XHxUQaSKLuy_v2T0ugLt-235">
          <mxGeometry x="-0.3297" relative="1" as="geometry">
            <mxPoint as="offset" />
          </mxGeometry>
        </mxCell>
        <mxCell id="XHxUQaSKLuy_v2T0ugLt-237" style="edgeStyle=orthogonalEdgeStyle;rounded=0;orthogonalLoop=1;jettySize=auto;html=1;" edge="1" parent="1" source="XHxUQaSKLuy_v2T0ugLt-238">
          <mxGeometry relative="1" as="geometry">
            <mxPoint x="490.22999999999985" y="7909.999999999999" as="targetPoint" />
          </mxGeometry>
        </mxCell>
        <mxCell id="XHxUQaSKLuy_v2T0ugLt-238" value="&lt;font style=&quot;font-size: 12px;&quot;&gt;tile n&lt;/font&gt;" style="rounded=1;whiteSpace=wrap;html=1;fillColor=#1ba1e2;fontColor=#ffffff;strokeColor=#006EAF;" vertex="1" parent="1">
          <mxGeometry x="467.72999999999985" y="7863" width="45" height="20" as="geometry" />
        </mxCell>
        <mxCell id="XHxUQaSKLuy_v2T0ugLt-239" style="edgeStyle=orthogonalEdgeStyle;rounded=0;orthogonalLoop=1;jettySize=auto;html=1;" edge="1" parent="1" source="XHxUQaSKLuy_v2T0ugLt-240">
          <mxGeometry relative="1" as="geometry">
            <mxPoint x="488.4199999999999" y="7929.999999999999" as="targetPoint" />
          </mxGeometry>
        </mxCell>
        <mxCell id="XHxUQaSKLuy_v2T0ugLt-240" value="&lt;font style=&quot;font-size: 12px;&quot;&gt;RAB[1]&lt;/font&gt;" style="rounded=1;whiteSpace=wrap;html=1;fillColor=#a20025;fontColor=#ffffff;strokeColor=#6F0000;" vertex="1" parent="1">
          <mxGeometry x="465.9199999999999" y="7968" width="45" height="20" as="geometry" />
        </mxCell>
        <mxCell id="XHxUQaSKLuy_v2T0ugLt-241" value="" style="shape=flexArrow;endArrow=classic;html=1;rounded=0;width=24.054054054054053;endSize=7.1702702702702705;fillColor=#d80073;strokeColor=#A50040;" edge="1" parent="1">
          <mxGeometry width="50" height="50" relative="1" as="geometry">
            <mxPoint x="466.91999999999996" y="7760" as="sourcePoint" />
            <mxPoint x="511.9199999999999" y="7760" as="targetPoint" />
          </mxGeometry>
        </mxCell>
        <mxCell id="XHxUQaSKLuy_v2T0ugLt-242" value="calc" style="edgeLabel;html=1;align=center;verticalAlign=middle;resizable=0;points=[];" vertex="1" connectable="0" parent="XHxUQaSKLuy_v2T0ugLt-241">
          <mxGeometry x="-0.3297" relative="1" as="geometry">
            <mxPoint as="offset" />
          </mxGeometry>
        </mxCell>
        <mxCell id="XHxUQaSKLuy_v2T0ugLt-243" style="edgeStyle=orthogonalEdgeStyle;rounded=0;orthogonalLoop=1;jettySize=auto;html=1;" edge="1" parent="1" source="XHxUQaSKLuy_v2T0ugLt-244">
          <mxGeometry relative="1" as="geometry">
            <mxPoint x="484.41999999999996" y="7770" as="targetPoint" />
          </mxGeometry>
        </mxCell>
        <mxCell id="XHxUQaSKLuy_v2T0ugLt-244" value="&lt;font style=&quot;font-size: 12px;&quot;&gt;RC[0]&lt;/font&gt;" style="rounded=1;whiteSpace=wrap;html=1;fillColor=#6a00ff;fontColor=#ffffff;strokeColor=#3700CC;" vertex="1" parent="1">
          <mxGeometry x="461.91999999999996" y="7813" width="45" height="20" as="geometry" />
        </mxCell>
        <mxCell id="XHxUQaSKLuy_v2T0ugLt-245" value="" style="shape=flexArrow;endArrow=classic;html=1;rounded=0;width=24.054054054054053;endSize=7.1702702702702705;fillColor=#d80073;strokeColor=#A50040;" edge="1" parent="1">
          <mxGeometry width="50" height="50" relative="1" as="geometry">
            <mxPoint x="526.7299999999999" y="7920" as="sourcePoint" />
            <mxPoint x="571.73" y="7920" as="targetPoint" />
          </mxGeometry>
        </mxCell>
        <mxCell id="XHxUQaSKLuy_v2T0ugLt-246" value="calc" style="edgeLabel;html=1;align=center;verticalAlign=middle;resizable=0;points=[];" vertex="1" connectable="0" parent="XHxUQaSKLuy_v2T0ugLt-245">
          <mxGeometry x="-0.3297" relative="1" as="geometry">
            <mxPoint as="offset" />
          </mxGeometry>
        </mxCell>
        <mxCell id="XHxUQaSKLuy_v2T0ugLt-247" style="edgeStyle=orthogonalEdgeStyle;rounded=0;orthogonalLoop=1;jettySize=auto;html=1;" edge="1" parent="1" source="XHxUQaSKLuy_v2T0ugLt-248">
          <mxGeometry relative="1" as="geometry">
            <mxPoint x="544.23" y="7930" as="targetPoint" />
          </mxGeometry>
        </mxCell>
        <mxCell id="XHxUQaSKLuy_v2T0ugLt-248" value="&lt;font style=&quot;font-size: 12px;&quot;&gt;RC[1]&lt;/font&gt;" style="rounded=1;whiteSpace=wrap;html=1;fillColor=#a20025;fontColor=#ffffff;strokeColor=#6F0000;" vertex="1" parent="1">
          <mxGeometry x="521.7299999999999" y="7969" width="45" height="20" as="geometry" />
        </mxCell>
        <mxCell id="XHxUQaSKLuy_v2T0ugLt-249" value="" style="shape=curlyBracket;whiteSpace=wrap;html=1;rounded=1;labelPosition=left;verticalLabelPosition=middle;align=right;verticalAlign=middle;rotation=-90;strokeWidth=3;" vertex="1" parent="1">
          <mxGeometry x="-241.32" y="7617.5" width="26.5" height="1025" as="geometry" />
        </mxCell>
        <mxCell id="XHxUQaSKLuy_v2T0ugLt-250" value="&lt;font style=&quot;font-size: 24px;&quot;&gt;CHUNK_K * (K_STAGE - 1)&lt;/font&gt;" style="text;html=1;align=center;verticalAlign=middle;resizable=0;points=[];autosize=1;strokeColor=none;fillColor=none;" vertex="1" parent="1">
          <mxGeometry x="-385.81999999999994" y="8140" width="320" height="40" as="geometry" />
        </mxCell>
        <mxCell id="XHxUQaSKLuy_v2T0ugLt-254" value="" style="endArrow=none;html=1;rounded=0;dashed=1;dashPattern=8 8;" edge="1" parent="1">
          <mxGeometry width="50" height="50" relative="1" as="geometry">
            <mxPoint x="-677" y="8090" as="sourcePoint" />
            <mxPoint x="-677" y="7883" as="targetPoint" />
          </mxGeometry>
        </mxCell>
        <mxCell id="XHxUQaSKLuy_v2T0ugLt-256" value="" style="endArrow=none;html=1;rounded=0;dashed=1;dashPattern=8 8;" edge="1" parent="1">
          <mxGeometry width="50" height="50" relative="1" as="geometry">
            <mxPoint x="-445.36" y="8093" as="sourcePoint" />
            <mxPoint x="-445.36" y="7886" as="targetPoint" />
          </mxGeometry>
        </mxCell>
        <mxCell id="XHxUQaSKLuy_v2T0ugLt-257" value="" style="endArrow=none;html=1;rounded=0;dashed=1;dashPattern=8 8;" edge="1" parent="1">
          <mxGeometry width="50" height="50" relative="1" as="geometry">
            <mxPoint x="-216.31" y="8093" as="sourcePoint" />
            <mxPoint x="-216.31" y="7886" as="targetPoint" />
          </mxGeometry>
        </mxCell>
        <mxCell id="XHxUQaSKLuy_v2T0ugLt-258" value="" style="endArrow=none;html=1;rounded=0;dashed=1;dashPattern=8 8;" edge="1" parent="1">
          <mxGeometry width="50" height="50" relative="1" as="geometry">
            <mxPoint x="167.99999999999997" y="8093" as="sourcePoint" />
            <mxPoint x="167.99999999999997" y="7886" as="targetPoint" />
          </mxGeometry>
        </mxCell>
      </root>
    </mxGraphModel>
  </diagram>
</mxfile>
